{
DisplayStrings = (
AEOILCDP
);
classes = (
{
automatic = 1;
code = "A B C D E F G H I J K L M N O P Q R S T U V W X Y Z Agrave Aacute Acircumflex Atilde Adieresis Aring AE Ccedilla Egrave Eacute Ecircumflex Edieresis Igrave Iacute Icircumflex Idieresis Eth Ntilde Ograve Oacute Ocircumflex Otilde Odieresis Oslash Ugrave Uacute Ucircumflex Udieresis Yacute Thorn Cacute Ccaron Gbreve Idotaccent Lslash OE Scedilla Scaron Ydieresis Zcaron Omega Delta";
name = Uppercase;
}
);
copyright = "OpenDyslexic(open-dyslexic) by Abelardo Gonzalez is licensed under a Creative Commons Attribution 3.0 Unported License.\012Based on a work at dyslexicfonts.com.\012Permissions beyond the scope of this license may be available at http://dyslexicfonts.com/license.php.";
customParameters = (
{
name = glyphOrder;
value = (
    ".notdef",
    uni0000,
    uni000D,
    NULL,
    space,
    exclam,
    quotedbl,
    numbersign,
    dollar,
    percent,
    ampersand,
    quotesingle,
    parenleft,
    parenright,
    asterisk,
    plus,
    comma,
    hyphen,
    period,
    slash,
    zero,
    one,
    two,
    three,
    four,
    five,
    six,
    seven,
    eight,
    nine,
    colon,
    semicolon,
    less,
    equal,
    greater,
    question,
    at,
    A,
    B,
    C,
    D,
    E,
    F,
    G,
    H,
    I,
    J,
    K,
    L,
    M,
    N,
    O,
    P,
    Q,
    R,
    S,
    T,
    U,
    V,
    W,
    X,
    Y,
    Z,
    bracketleft,
    backslash,
    bracketright,
    asciicircum,
    underscore,
    grave,
    a,
    b,
    c,
    d,
    e,
    f,
    g,
    h,
    i,
    j,
    k,
    l,
    m,
    n,
    o,
    p,
    q,
    r,
    s,
    t,
    u,
    v,
    w,
    x,
    y,
    z,
    braceleft,
    bar,
    braceright,
    asciitilde,
    uni00A0,
    exclamdown,
    cent,
    sterling,
    currency,
    yen,
    brokenbar,
    section,
    dieresis,
    copyright,
    ordfeminine,
    guillemotleft,
    logicalnot,
    sfthyphen,
    registered,
    macron,

glyphs = (
{
glyphname = q.ss01;
lastChange = "2012-05-26 16:48:50 +0000";
layers = (
{
layerId = "6B6936E6-7670-4A82-900D-EAF583C971AF";
name = Regular;
paths = (
{
closed = 1;
nodes = (
"322 314 OFFCURVE",
"435 278 OFFCURVE",
"630 278 CURVE SMOOTH",
"825 278 OFFCURVE",
"949 314 OFFCURVE",
"949 585 CURVE SMOOTH",
"949 856 OFFCURVE",
"830 1019 OFFCURVE",
"635 1019 CURVE SMOOTH",
"440 1019 OFFCURVE",
"322 856 OFFCURVE",
"322 585 CURVE SMOOTH"
);
},
{
closed = 1;
nodes = (
"1017 168 LINE",
"940 35 OFFCURVE",
"823 -29 OFFCURVE",
"658 -29 CURVE SMOOTH",
"387 -29 OFFCURVE",
"200 207 OFFCURVE",
"200 559 CURVE SMOOTH",
"200 911 OFFCURVE",
"387 1147 OFFCURVE",
"658 1147 CURVE SMOOTH",
"823 1147 OFFCURVE",
"940 1083 OFFCURVE",
"1017 950 CURVE",
"1047 1120 LINE",
"1225 1120 LINE",
"1162 -66 LINE",
"1388 -282 LINE SMOOTH",
"1221 -423 LINE",
"961 -426 LINE"
);
}
);
width = 1470;
}
);
},
{
glyphname = .notdef;
lastChange = "2012-05-24 21:38:30 +0000";
layers = (
{
layerId = "6B6936E6-7670-4A82-900D-EAF583C971AF";
name = Regular;
paths = (
{
closed = 1;
nodes = (
"275 -362 LINE",
"275 1444 LINE",
"1299 1444 LINE",
"1299 -362 LINE"
);
},
{
closed = 1;
nodes = (
"390 -68 LINE",
"1185 -68 LINE",
"1185 1329 LINE",
"390 1329 LINE"
);
}
);
width = 1573;
}
);
},
{
glyphname = exclam;
lastChange = "2012-05-24 21:38:30 +0000";
layers = (
{
layerId = "6B6936E6-7670-4A82-900D-EAF583C971AF";
name = Regular;
paths = (
{
closed = 1;
nodes = (
"216 254 LINE",
"429 254 LINE",
"449 0 LINE",
"196 0 LINE"
);
},
{
closed = 1;
nodes = (
"226 1493 LINE",
"419 1493 LINE",
"429 838 LINE",
"459 481 LINE",
"187 481 LINE",
"206 838 LINE"
);
}
);
width = 628;
}
);
unicode = 0021;
},
{
glyphname = quotedbl;
lastChange = "2012-05-24 21:38:30 +0000";
layers = (
{
layerId = "6B6936E6-7670-4A82-900D-EAF583C971AF";
name = Regular;
paths = (
{
closed = 1;
nodes = (
"456 1493 LINE",
"467 906 LINE",
"266 906 LINE",
"277 1493 LINE"
);
},
{
closed = 1;
nodes = (
"856 1493 LINE",
"867 906 LINE",
"666 906 LINE",
"676 1493 LINE"
);
}
);
width = 1132;
}
);
unicode = 0022;
},
{
glyphname = numbersign;
lastChange = "2012-05-24 21:38:30 +0000";
layers = (
{
layerId = "6B6936E6-7670-4A82-900D-EAF583C971AF";
name = Regular;
paths = (
{
closed = 1;
nodes = (
"946 901 LINE",
"655 901 LINE",
"571 567 LINE",
"864 567 LINE"
);
},
{
closed = 1;
nodes = (
"796 1470 LINE",
"692 1055 LINE",
"984 1055 LINE",
"1089 1470 LINE",
"1249 1470 LINE",
"1146 1055 LINE",
"1458 1055 LINE",
"1458 901 LINE",
"1107 901 LINE",
"1025 567 LINE",
"1343 567 LINE",
"1343 414 LINE",
"986 414 LINE",
"882 0 LINE",
"722 0 LINE",
"825 414 LINE",
"532 414 LINE",
"429 0 LINE",
"268 0 LINE",
"372 414 LINE",
"57 414 LINE",
"57 567 LINE",
"409 567 LINE",
"493 901 LINE",
"171 901 LINE",
"171 1055 LINE",
"532 1055 LINE",
"634 1470 LINE"
);
}
);
width = 1515;
}
);
unicode = 0023;
},
{
glyphname = dollar;
lastChange = "2012-05-24 21:38:30 +0000";
layers = (
{
layerId = "6B6936E6-7670-4A82-900D-EAF583C971AF";
name = Regular;
paths = (
{
closed = 1;
nodes = (
"622 -294 LINE",
"442 -291 LINE",
"466 10 LINE",
"339 14 OFFCURVE",
"197 46 OFFCURVE",
"57 109 CURVE",
"61 349 LINE",
"196 261 OFFCURVE",
"336 215 OFFCURVE",
"471 212 CURVE",
"478 607 LINE",
"197 660 OFFCURVE",
"81 773 OFFCURVE",
"72 973 CURVE",
"76 1190 OFFCURVE",
"228 1317 OFFCURVE",
"500 1330 CURVE",
"504 1565 LINE",
"604 1563 LINE",
"600 1331 LINE",
"724 1324 OFFCURVE",
"840 1302 OFFCURVE",
"949 1263 CURVE",
"946 1108 LINE",
"837 1167 OFFCURVE",
"721 1199 OFFCURVE",
"598 1206 CURVE",
"590 740 LINE",
"893 688 OFFCURVE",
"1016 589 OFFCURVE",
"1025 381 CURVE",
"1021 156 OFFCURVE",
"854 25 OFFCURVE",
"607 9 CURVE"
);
},
{
closed = 1;
nodes = (
"482 1200 LINE",
"314 1183 OFFCURVE",
"214 1090 OFFCURVE",
"214 973 CURVE SMOOTH",
"214 858 OFFCURVE",
"305 778 OFFCURVE",
"472 750 CURVE"
);
},
{
closed = 1;
nodes = (
"592 205 LINE",
"735 228 OFFCURVE",
"828 242 OFFCURVE",
"828 362 CURVE SMOOTH",
"828 479 OFFCURVE",
"746 546 OFFCURVE",
"582 578 CURVE"
);
}
);
width = 1069;
}
);
unicode = 0024;
},
{
glyphname = percent;
lastChange = "2012-05-24 21:38:30 +0000";
layers = (
{
layerId = "6B6936E6-7670-4A82-900D-EAF583C971AF";
name = Regular;
paths = (
{
closed = 1;
nodes = (
"1413 657 OFFCURVE",
"1343 560 OFFCURVE",
"1343 397 CURVE SMOOTH",
"1343 236 OFFCURVE",
"1413 137 OFFCURVE",
"1529 137 CURVE SMOOTH",
"1642 137 OFFCURVE",
"1713 236 OFFCURVE",
"1713 397 CURVE SMOOTH",
"1713 558 OFFCURVE",
"1642 657 OFFCURVE",
"1529 657 CURVE SMOOTH"
);
},
{
closed = 1;
nodes = (
"1740 784 OFFCURVE",
"1873 626 OFFCURVE",
"1873 377 CURVE SMOOTH",
"1873 128 OFFCURVE",
"1738 -29 OFFCURVE",
"1529 -29 CURVE SMOOTH",
"1316 -29 OFFCURVE",
"1183 128 OFFCURVE",
"1183 377 CURVE SMOOTH",
"1183 628 OFFCURVE",
"1317 784 OFFCURVE",
"1529 784 CURVE SMOOTH"
);
},
{
closed = 1;
nodes = (
"382 1393 OFFCURVE",
"312 1289 OFFCURVE",
"312 1120 CURVE SMOOTH",
"312 948 OFFCURVE",
"381 846 OFFCURVE",
"497 846 CURVE SMOOTH",
"613 846 OFFCURVE",
"683 948 OFFCURVE",
"683 1120 CURVE SMOOTH",
"683 1288 OFFCURVE",
"612 1393 OFFCURVE",
"497 1393 CURVE SMOOTH"
);
},
{
closed = 1;
nodes = (
"1409 1520 LINE",
"1570 1520 LINE",
"627 -29 LINE",
"466 -29 LINE"
);
},
{
closed = 1;
nodes = (
"708 1520 OFFCURVE",
"843 1363 OFFCURVE",
"843 1114 CURVE SMOOTH",
"843 862 OFFCURVE",
"709 707 OFFCURVE",
"497 707 CURVE SMOOTH",
"285 707 OFFCURVE",
"153 863 OFFCURVE",
"153 1114 CURVE SMOOTH",
"153 1362 OFFCURVE",
"286 1520 OFFCURVE",
"497 1520 CURVE SMOOTH"
);
}
);
width = 2029;
}
);
unicode = 0025;
},
{
glyphname = ampersand;
lastChange = "2012-05-24 21:38:30 +0000";
layers = (
{
layerId = "6B6936E6-7670-4A82-900D-EAF583C971AF";
name = Regular;
paths = (
{
closed = 1;
nodes = (
"483 843 LINE",
"360 734 OFFCURVE",
"305 629 OFFCURVE",
"305 510 CURVE SMOOTH",
"305 314 OFFCURVE",
"465 167 OFFCURVE",
"680 167 CURVE SMOOTH",
"808 167 OFFCURVE",
"920 210 OFFCURVE",
"1017 295 CURVE"
);
},
{
closed = 1;
nodes = (
"1150 415 LINE",
"1229 534 OFFCURVE",
"1243 649 OFFCURVE",
"1251 801 CURVE",
"1437 801 LINE",
"1421 625 OFFCURVE",
"1412 453 OFFCURVE",
"1288 285 CURVE",
"1567 0 LINE",
"1315 0 LINE",
"1172 147 LINE",
"1033 28 OFFCURVE",
"884 -29 OFFCURVE",
"709 -29 CURVE SMOOTH",
"388 -29 OFFCURVE",
"162 174 OFFCURVE",
"162 461 CURVE SMOOTH",
"162 632 OFFCURVE",
"251 781 OFFCURVE",
"430 913 CURVE",
"366 997 OFFCURVE",
"332 1081 OFFCURVE",
"332 1161 CURVE SMOOTH",
"332 1377 OFFCURVE",
"493 1520 OFFCURVE",
"738 1520 CURVE SMOOTH",
"849 1520 OFFCURVE",
"958 1496 OFFCURVE",
"1071 1448 CURVE",
"1001 1306 LINE",
"885 1369 OFFCURVE",
"779 1402 OFFCURVE",
"688 1402 CURVE SMOOTH",
"548 1402 OFFCURVE",
"452 1320 OFFCURVE",
"452 1203 CURVE SMOOTH",
"452 1169 OFFCURVE",
"462 1135 OFFCURVE",
"482 1101 CURVE SMOOTH",
"501 1066 OFFCURVE",
"541 1018 OFFCURVE",
"602 955 CURVE SMOOTH"
);
}
);
width = 1619;
}
);
unicode = 0026;
},
{
glyphname = quotesingle;
lastChange = "2012-05-24 21:38:30 +0000";
layers = (
{
layerId = "6B6936E6-7670-4A82-900D-EAF583C971AF";
name = Regular;
paths = (
{
closed = 1;
nodes = (
"445 1493 LINE",
"445 938 LINE",
"275 938 LINE",
"275 1493 LINE"
);
}
);
width = 712;
}
);
unicode = 0027;
},
{
glyphname = parenleft;
lastChange = "2012-05-24 21:38:30 +0000";
layers = (
{
layerId = "6B6936E6-7670-4A82-900D-EAF583C971AF";
name = Regular;
paths = (
{
closed = 1;
nodes = (
"630 1547 LINE",
"425 1258 OFFCURVE",
"310 970 OFFCURVE",
"297 663 CURVE",
"310 355 OFFCURVE",
"340 50 OFFCURVE",
"491 -270 CURVE",
"281 -256 LINE",
"149 73 OFFCURVE",
"93 381 OFFCURVE",
"93 680 CURVE",
"118 976 OFFCURVE",
"242 1265 OFFCURVE",
"470 1561 CURVE"
);
}
);
width = 667;
}
);
unicode = 0028;
},
{
glyphname = parenright;
lastChange = "2012-05-24 21:38:30 +0000";
layers = (
{
layerId = "6B6936E6-7670-4A82-900D-EAF583C971AF";
name = Regular;
paths = (
{
closed = 1;
nodes = (
"348 1573 LINE",
"520 1242 OFFCURVE",
"566 936 OFFCURVE",
"567 640 CURVE SMOOTH",
"567 341 OFFCURVE",
"419 51 OFFCURVE",
"259 -244 CURVE",
"30 -230 LINE",
"233 59 OFFCURVE",
"345 349 OFFCURVE",
"373 657 CURVE",
"373 964 OFFCURVE",
"338 1266 OFFCURVE",
"189 1587 CURVE"
);
}
);
width = 670;
}
);
unicode = 0029;
},
{
glyphname = asterisk;
lastChange = "2012-05-28 22:37:27 +0000";
layers = (
{
layerId = "6B6936E6-7670-4A82-900D-EAF583C971AF";
name = Regular;
paths = (
{
closed = 1;
nodes = (
"944 1247 LINE",
"585 1053 LINE",
"984 898 LINE",
"886 760 LINE",
"550 963 LINE",
"590 616 LINE",
"436 586 LINE",
"436 963 LINE",
"140 720 LINE",
"42 858 LINE",
"401 1053 LINE",
"12 1207 LINE",
"100 1346 LINE",
"436 1143 LINE",
"396 1480 LINE",
"550 1520 LINE",
"550 1143 LINE",
"926 1386 LINE"
);
}
);
width = 986;
}
);
unicode = 002A;
},
{
glyphname = plus;
lastChange = "2012-05-24 21:38:30 +0000";
layers = (
{
layerId = "6B6936E6-7670-4A82-900D-EAF583C971AF";
name = Regular;
paths = (
{
closed = 1;
nodes = (
"727 1284 LINE",
"727 727 LINE",
"1284 727 LINE",
"1284 557 LINE",
"727 557 LINE",
"727 0 LINE",
"559 0 LINE",
"559 557 LINE",
"2 557 LINE",
"2 727 LINE",
"559 727 LINE",
"559 1284 LINE"
);
}
);
width = 1286;
}
);
unicode = 002B;
},
{
glyphname = comma;
lastChange = "2012-05-24 21:38:30 +0000";
layers = (
{
layerId = "6B6936E6-7670-4A82-900D-EAF583C971AF";
name = Regular;
paths = (
{
closed = 1;
nodes = (
"209 244 LINE",
"460 244 LINE",
"460 32 LINE",
"236 -288 LINE",
"107 -288 LINE",
"209 32 LINE"
);
}
);
width = 543;
}
);
unicode = 002C;
},
{
glyphname = hyphen;
lastChange = "2012-05-24 21:38:30 +0000";
layers = (
{
layerId = "6B6936E6-7670-4A82-900D-EAF583C971AF";
name = Regular;
paths = (
{
closed = 1;
nodes = (
"268 643 LINE",
"807 653 LINE",
"800 488 LINE",
"261 479 LINE"
);
}
);
width = 1059;
}
);
unicode = 002D;
},
{
glyphname = period;
lastChange = "2012-05-24 21:38:30 +0000";
layers = (
{
layerId = "6B6936E6-7670-4A82-900D-EAF583C971AF";
name = Regular;
paths = (
{
closed = 1;
nodes = (
"275 323 LINE",
"574 323 LINE",
"574 0 LINE",
"275 0 LINE"
);
}
);
width = 845;
}
);
unicode = 002E;
},
{
glyphname = slash;
lastChange = "2012-05-24 21:38:30 +0000";
layers = (
{
layerId = "6B6936E6-7670-4A82-900D-EAF583C971AF";
name = Regular;
paths = (
{
closed = 1;
nodes = (
"580 1474 LINE",
"730 1469 LINE",
"232 -198 LINE",
"2 -190 LINE"
);
}
);
width = 742;
}
);
unicode = 002F;
},
{
glyphname = zero;
lastChange = "2012-05-24 21:38:30 +0000";
layers = (
{
layerId = "6B6936E6-7670-4A82-900D-EAF583C971AF";
name = Regular;
paths = (
{
closed = 1;
nodes = (
"501 1440 OFFCURVE",
"396 1257 OFFCURVE",
"396 890 CURVE SMOOTH",
"396 511 OFFCURVE",
"481 341 OFFCURVE",
"689 341 CURVE SMOOTH",
"898 341 OFFCURVE",
"996 525 OFFCURVE",
"1023 890 CURVE",
"1023 1257 OFFCURVE",
"918 1440 OFFCURVE",
"709 1440 CURVE SMOOTH"
);
},
{
closed = 1;
nodes = (
"1044 1520 OFFCURVE",
"1215 1249 OFFCURVE",
"1215 745 CURVE SMOOTH",
"1202 242 OFFCURVE",
"1024 -29 OFFCURVE",
"689 -29 CURVE SMOOTH",
"354 -29 OFFCURVE",
"183 242 OFFCURVE",
"183 745 CURVE SMOOTH",
"196 1249 OFFCURVE",
"374 1520 OFFCURVE",
"709 1520 CURVE SMOOTH"
);
}
);
width = 1397;
}
);
unicode = 0030;
},
{
glyphname = one;
lastChange = "2012-05-24 21:38:30 +0000";
layers = (
{
layerId = "6B6936E6-7670-4A82-900D-EAF583C971AF";
name = Regular;
paths = (
{
closed = 1;
nodes = (
"258 280 LINE",
"588 280 LINE",
"588 1309 LINE",
"229 1237 LINE",
"229 1421 LINE",
"586 1493 LINE",
"788 1493 LINE",
"788 280 LINE",
"1118 280 LINE",
"1118 0 LINE",
"258 0 LINE"
);
}
);
width = 1206;
}
);
unicode = 0031;
},
{
glyphname = two;
lastChange = "2012-05-24 21:38:30 +0000";
layers = (
{
layerId = "6B6936E6-7670-4A82-900D-EAF583C971AF";
name = Regular;
paths = (
{
closed = 1;
nodes = (
"1189 290 LINE",
"1189 0 LINE",
"241 0 LINE",
"241 290 LINE",
"346 377 OFFCURVE",
"457 465 OFFCURVE",
"576 555 CURVE SMOOTH",
"812 735 OFFCURVE",
"888 832 OFFCURVE",
"940 933 CURVE SMOOTH",
"965 983 OFFCURVE",
"978 1032 OFFCURVE",
"978 1081 CURVE SMOOTH",
"978 1240 OFFCURVE",
"856 1350 OFFCURVE",
"677 1350 CURVE SMOOTH",
"550 1350 OFFCURVE",
"411 1306 OFFCURVE",
"251 1217 CURVE",
"251 1421 LINE",
"414 1486 OFFCURVE",
"556 1520 OFFCURVE",
"673 1520 CURVE SMOOTH",
"982 1520 OFFCURVE",
"1181 1353 OFFCURVE",
"1181 1094 CURVE SMOOTH",
"1181 971 OFFCURVE",
"1142 874 OFFCURVE",
"1021 725 CURVE",
"1004 706 OFFCURVE",
"951 650 OFFCURVE",
"862 558 CURVE SMOOTH",
"773 465 OFFCURVE",
"717 376 OFFCURVE",
"694 290 CURVE"
);
}
);
width = 1399;
}
);
unicode = 0032;
},
{
glyphname = three;
lastChange = "2012-05-24 21:38:30 +0000";
layers = (
{
layerId = "6B6936E6-7670-4A82-900D-EAF583C971AF";
name = Regular;
paths = (
{
closed = 1;
nodes = (
"1052 790 OFFCURVE",
"1167 646 OFFCURVE",
"1167 454 CURVE SMOOTH",
"1167 133 OFFCURVE",
"956 -29 OFFCURVE",
"583 -29 CURVE SMOOTH",
"458 -29 OFFCURVE",
"325 -4 OFFCURVE",
"184 45 CURVE",
"184 360 LINE",
"296 295 OFFCURVE",
"432 261 OFFCURVE",
"577 261 CURVE SMOOTH",
"704 261 OFFCURVE",
"800 289 OFFCURVE",
"867 346 CURVE SMOOTH",
"933 403 OFFCURVE",
"966 449 OFFCURVE",
"966 484 CURVE SMOOTH",
"966 620 OFFCURVE",
"836 735 OFFCURVE",
"616 735 CURVE SMOOTH",
"442 735 LINE",
"442 901 LINE",
"624 901 LINE SMOOTH",
"823 901 OFFCURVE",
"931 983 OFFCURVE",
"931 1132 CURVE SMOOTH",
"931 1285 OFFCURVE",
"819 1370 OFFCURVE",
"616 1370 CURVE SMOOTH",
"505 1370 OFFCURVE",
"381 1347 OFFCURVE",
"229 1296 CURVE",
"229 1456 LINE",
"382 1499 OFFCURVE",
"515 1520 OFFCURVE",
"634 1520 CURVE SMOOTH",
"941 1520 OFFCURVE",
"1132 1370 OFFCURVE",
"1132 1133 CURVE SMOOTH",
"1132 968 OFFCURVE",
"1034 849 OFFCURVE",
"859 805 CURVE"
);
}
);
width = 1343;
}
);
unicode = 0033;
},
{
glyphname = four;
lastChange = "2012-05-24 21:38:30 +0000";
layers = (
{
layerId = "6B6936E6-7670-4A82-900D-EAF583C971AF";
name = Regular;
paths = (
{
closed = 1;
nodes = (
"682 1387 LINE",
"172 590 LINE",
"672 590 LINE"
);
},
{
closed = 1;
nodes = (
"629 1493 LINE",
"883 1493 LINE",
"893 590 LINE",
"1096 590 LINE",
"1096 422 LINE",
"893 422 LINE",
"913 0 LINE",
"642 0 LINE",
"662 422 LINE",
"8 422 LINE",
"8 547 LINE"
);
}
);
width = 1198;
}
);
unicode = 0034;
},
{
glyphname = five;
lastChange = "2012-05-24 21:38:30 +0000";
layers = (
{
layerId = "6B6936E6-7670-4A82-900D-EAF583C971AF";
name = Regular;
paths = (
{
closed = 1;
nodes = (
"285 1493 LINE",
"1078 1493 LINE",
"1078 1343 LINE",
"450 1343 LINE",
"450 957 LINE",
"535 977 OFFCURVE",
"587 987 OFFCURVE",
"646 987 CURVE SMOOTH",
"979 987 OFFCURVE",
"1188 791 OFFCURVE",
"1188 479 CURVE SMOOTH",
"1188 158 OFFCURVE",
"979 -29 OFFCURVE",
"615 -29 CURVE SMOOTH",
"490 -29 OFFCURVE",
"361 -8 OFFCURVE",
"222 35 CURVE",
"222 348 LINE",
"342 283 OFFCURVE",
"468 251 OFFCURVE",
"611 251 CURVE SMOOTH",
"842 251 OFFCURVE",
"976 408 OFFCURVE",
"976 509 CURVE SMOOTH",
"976 717 OFFCURVE",
"842 817 OFFCURVE",
"611 817 CURVE SMOOTH",
"503 817 OFFCURVE",
"397 794 OFFCURVE",
"285 743 CURVE"
);
}
);
width = 1299;
}
);
unicode = 0035;
},
{
glyphname = six;
lastChange = "2012-05-24 21:38:30 +0000";
layers = (
{
layerId = "6B6936E6-7670-4A82-900D-EAF583C971AF";
name = Regular;
paths = (
{
closed = 1;
nodes = (
"523 827 OFFCURVE",
"409 695 OFFCURVE",
"409 479 CURVE SMOOTH",
"409 344 OFFCURVE",
"523 261 OFFCURVE",
"704 261 CURVE SMOOTH",
"885 261 OFFCURVE",
"999 344 OFFCURVE",
"999 479 CURVE SMOOTH",
"999 695 OFFCURVE",
"885 827 OFFCURVE",
"704 827 CURVE SMOOTH"
);
},
{
closed = 1;
nodes = (
"1105 1276 LINE",
"1004 1324 OFFCURVE",
"899 1350 OFFCURVE",
"798 1350 CURVE SMOOTH",
"531 1350 OFFCURVE",
"392 1171 OFFCURVE",
"372 807 CURVE",
"451 923 OFFCURVE",
"573 987 OFFCURVE",
"716 987 CURVE SMOOTH",
"1016 987 OFFCURVE",
"1202 792 OFFCURVE",
"1202 479 CURVE SMOOTH",
"1202 172 OFFCURVE",
"1005 -29 OFFCURVE",
"704 -29 CURVE SMOOTH",
"359 -29 OFFCURVE",
"171 242 OFFCURVE",
"171 745 CURVE SMOOTH",
"171 1217 OFFCURVE",
"413 1520 OFFCURVE",
"790 1520 CURVE SMOOTH",
"891 1520 OFFCURVE",
"993 1500 OFFCURVE",
"1105 1460 CURVE"
);
}
);
width = 1370;
}
);
unicode = 0036;
},
{
glyphname = seven;
lastChange = "2012-05-24 21:38:30 +0000";
layers = (
{
layerId = "6B6936E6-7670-4A82-900D-EAF583C971AF";
name = Regular;
paths = (
{
closed = 1;
nodes = (
"38 1493 LINE",
"988 1493 LINE",
"988 1407 LINE",
"616 0 LINE",
"255 0 LINE",
"805 1343 LINE",
"38 1343 LINE"
);
}
);
width = 1078;
}
);
unicode = 0037;
},
{
glyphname = eight;
lastChange = "2012-05-24 21:38:30 +0000";
layers = (
{
layerId = "6B6936E6-7670-4A82-900D-EAF583C971AF";
name = Regular;
paths = (
{
closed = 1;
nodes = (
"507 729 OFFCURVE",
"390 620 OFFCURVE",
"390 440 CURVE SMOOTH",
"390 340 OFFCURVE",
"507 221 OFFCURVE",
"699 221 CURVE SMOOTH",
"891 221 OFFCURVE",
"1009 341 OFFCURVE",
"1009 440 CURVE SMOOTH",
"1009 620 OFFCURVE",
"892 729 OFFCURVE",
"699 729 CURVE SMOOTH"
);
},
{
closed = 1;
nodes = (
"324 838 OFFCURVE",
"242 962 OFFCURVE",
"242 1133 CURVE SMOOTH",
"242 1345 OFFCURVE",
"403 1500 OFFCURVE",
"699 1500 CURVE SMOOTH",
"996 1500 OFFCURVE",
"1156 1345 OFFCURVE",
"1156 1133 CURVE SMOOTH",
"1156 962 OFFCURVE",
"1074 838 OFFCURVE",
"902 795 CURVE",
"1097 750 OFFCURVE",
"1231 611 OFFCURVE",
"1231 420 CURVE SMOOTH",
"1231 131 OFFCURVE",
"1028 -29 OFFCURVE",
"699 -29 CURVE SMOOTH",
"370 -29 OFFCURVE",
"167 131 OFFCURVE",
"167 420 CURVE SMOOTH",
"167 611 OFFCURVE",
"302 750 OFFCURVE",
"497 795 CURVE"
);
},
{
closed = 1;
nodes = (
"423 1019 OFFCURVE",
"524 928 OFFCURVE",
"699 928 CURVE SMOOTH",
"872 928 OFFCURVE",
"976 1019 OFFCURVE",
"976 1174 CURVE SMOOTH",
"976 1302 OFFCURVE",
"872 1400 OFFCURVE",
"699 1400 CURVE SMOOTH",
"524 1400 OFFCURVE",
"423 1302 OFFCURVE",
"423 1174 CURVE SMOOTH"
);
}
);
width = 1398;
}
);
unicode = 0038;
},
{
glyphname = nine;
lastChange = "2012-05-24 21:38:30 +0000";
layers = (
{
layerId = "6B6936E6-7670-4A82-900D-EAF583C971AF";
name = Regular;
paths = (
{
closed = 1;
nodes = (
"274 335 LINE",
"375 287 OFFCURVE",
"481 261 OFFCURVE",
"581 261 CURVE SMOOTH",
"848 261 OFFCURVE",
"987 319 OFFCURVE",
"1007 684 CURVE",
"930 569 OFFCURVE",
"807 506 OFFCURVE",
"663 506 CURVE SMOOTH",
"364 506 OFFCURVE",
"178 699 OFFCURVE",
"178 1012 CURVE SMOOTH",
"178 1319 OFFCURVE",
"375 1520 OFFCURVE",
"676 1520 CURVE SMOOTH",
"1021 1520 OFFCURVE",
"1208 1249 OFFCURVE",
"1208 745 CURVE SMOOTH",
"1208 274 OFFCURVE",
"967 -29 OFFCURVE",
"590 -29 CURVE SMOOTH",
"489 -29 OFFCURVE",
"386 -9 OFFCURVE",
"274 31 CURVE"
);
},
{
closed = 1;
nodes = (
"879 806 OFFCURVE",
"1018 828 OFFCURVE",
"1018 1044 CURVE SMOOTH",
"1018 1259 OFFCURVE",
"879 1392 OFFCURVE",
"659 1392 CURVE SMOOTH",
"438 1392 OFFCURVE",
"299 1259 OFFCURVE",
"299 1044 CURVE SMOOTH",
"299 828 OFFCURVE",
"438 806 OFFCURVE",
"659 806 CURVE SMOOTH"
);
}
);
width = 1378;
}
);
unicode = 0039;
},
{
glyphname = colon;
lastChange = "2012-05-24 21:38:30 +0000";
layers = (
{
layerId = "6B6936E6-7670-4A82-900D-EAF583C971AF";
name = Regular;
paths = (
{
closed = 1;
nodes = (
"275 306 LINE",
"536 306 LINE",
"536 0 LINE",
"275 0 LINE"
);
},
{
closed = 1;
nodes = (
"275 1101 LINE",
"536 1101 LINE",
"536 816 LINE",
"275 816 LINE"
);
}
);
width = 806;
}
);
unicode = 003A;
},
{
glyphname = semicolon;
lastChange = "2012-05-24 21:38:30 +0000";
layers = (
{
layerId = "6B6936E6-7670-4A82-900D-EAF583C971AF";
name = Regular;
paths = (
{
closed = 1;
nodes = (
"182 1096 LINE",
"425 1096 LINE",
"425 803 LINE",
"182 803 LINE"
);
},
{
closed = 1;
nodes = (
"187 218 LINE",
"421 218 LINE",
"421 27 LINE",
"239 -328 LINE",
"96 -328 LINE",
"187 27 LINE"
);
}
);
width = 555;
}
);
unicode = 003B;
},
{
glyphname = less;
lastChange = "2012-05-24 21:38:30 +0000";
layers = (
{
layerId = "6B6936E6-7670-4A82-900D-EAF583C971AF";
name = Regular;
paths = (
{
closed = 1;
nodes = (
"1324 987 LINE",
"264 711 LINE",
"1261 258 LINE",
"1240 17 LINE",
"3 591 LINE",
"23 817 LINE",
"1340 1168 LINE"
);
}
);
width = 1569;
}
);
unicode = 003C;
},
{
glyphname = equal;
lastChange = "2012-05-24 21:38:30 +0000";
layers = (
{
layerId = "6B6936E6-7670-4A82-900D-EAF583C971AF";
name = Regular;
paths = (
{
closed = 1;
nodes = (
"275 930 LINE",
"1557 930 LINE",
"1557 762 LINE",
"275 762 LINE"
);
},
{
closed = 1;
nodes = (
"275 552 LINE",
"1557 552 LINE",
"1557 352 LINE",
"275 352 LINE"
);
}
);
width = 1831;
}
);
unicode = 003D;
},
{
glyphname = greater;
lastChange = "2012-05-24 21:38:30 +0000";
layers = (
{
layerId = "6B6936E6-7670-4A82-900D-EAF583C971AF";
name = Regular;
paths = (
{
closed = 1;
nodes = (
"313 1107 LINE",
"329 1289 LINE",
"1565 714 LINE",
"1546 488 LINE",
"228 137 LINE",
"249 378 LINE",
"1307 652 LINE"
);
}
);
width = 1568;
}
);
unicode = 003E;
},
{
glyphname = question;
lastChange = "2012-05-24 21:38:30 +0000";
layers = (
{
layerId = "6B6936E6-7670-4A82-900D-EAF583C971AF";
name = Regular;
paths = (
{
closed = 1;
nodes = (
"304 274 LINE",
"567 274 LINE",
"567 -10 LINE",
"304 -10 LINE"
);
},
{
closed = 1;
nodes = (
"571 401 LINE",
"310 401 LINE",
"310 555 LINE SMOOTH",
"310 690 OFFCURVE",
"336 767 OFFCURVE",
"456 882 CURVE",
"556 971 LINE",
"659 1055 OFFCURVE",
"701 1092 OFFCURVE",
"714 1157 CURVE",
"714 1276 OFFCURVE",
"619 1386 OFFCURVE",
"475 1386 CURVE SMOOTH",
"370 1386 OFFCURVE",
"249 1338 OFFCURVE",
"120 1249 CURVE",
"120 1407 LINE",
"245 1483 OFFCURVE",
"373 1520 OFFCURVE",
"510 1520 CURVE SMOOTH",
"755 1520 OFFCURVE",
"907 1379 OFFCURVE",
"907 1167 CURVE SMOOTH",
"907 1066 OFFCURVE",
"842 983 OFFCURVE",
"735 868 CURVE SMOOTH",
"657 782 LINE",
"639 751 OFFCURVE",
"624 726 OFFCURVE",
"611 709 CURVE SMOOTH",
"585 673 OFFCURVE",
"578 646 OFFCURVE",
"574 606 CURVE SMOOTH",
"572 586 OFFCURVE",
"571 559 OFFCURVE",
"571 524 CURVE SMOOTH"
);
}
);
width = 961;
}
);
unicode = 003F;
},
{
glyphname = at;
lastChange = "2012-05-24 21:38:30 +0000";
layers = (
{
layerId = "6B6936E6-7670-4A82-900D-EAF583C971AF";
name = Regular;
paths = (
{
closed = 1;
nodes = (
"760 448 OFFCURVE",
"861 345 OFFCURVE",
"1026 345 CURVE SMOOTH",
"1190 345 OFFCURVE",
"1290 450 OFFCURVE",
"1290 619 CURVE SMOOTH",
"1290 786 OFFCURVE",
"1187 892 OFFCURVE",
"1024 892 CURVE SMOOTH",
"863 892 OFFCURVE",
"760 787 OFFCURVE",
"760 619 CURVE SMOOTH"
);
},
{
closed = 1;
nodes = (
"1335 238 LINE",
"1255 135 OFFCURVE",
"1154 88 OFFCURVE",
"1017 88 CURVE SMOOTH",
"788 88 OFFCURVE",
"630 270 OFFCURVE",
"630 537 CURVE SMOOTH",
"630 804 OFFCURVE",
"789 987 OFFCURVE",
"1017 987 CURVE SMOOTH",
"1154 987 OFFCURVE",
"1256 937 OFFCURVE",
"1335 836 CURVE",
"1335 967 LINE",
"1478 967 LINE",
"1478 231 LINE",
"1673 260 OFFCURVE",
"1789 417 OFFCURVE",
"1789 653 CURVE SMOOTH",
"1789 796 OFFCURVE",
"1747 921 OFFCURVE",
"1662 1028 CURVE SMOOTH",
"1523 1203 OFFCURVE",
"1318 1298 OFFCURVE",
"1083 1298 CURVE SMOOTH",
"919 1298 OFFCURVE",
"766 1254 OFFCURVE",
"638 1169 CURVE SMOOTH",
"429 1033 OFFCURVE",
"304 800 OFFCURVE",
"304 543 CURVE SMOOTH",
"304 331 OFFCURVE",
"376 231 OFFCURVE",
"548 50 CURVE SMOOTH",
"688 -89 OFFCURVE",
"857 -133 OFFCURVE",
"1066 -133 CURVE SMOOTH",
"1238 -133 OFFCURVE",
"1409 -83 OFFCURVE",
"1548 25 CURVE",
"1638 -156 LINE",
"1471 -285 OFFCURVE",
"1269 -356 OFFCURVE",
"1066 -356 CURVE SMOOTH",
"819 -356 OFFCURVE",
"596 -267 OFFCURVE",
"425 -100 CURVE SMOOTH",
"254 67 OFFCURVE",
"163 291 OFFCURVE",
"163 543 CURVE SMOOTH",
"163 786 OFFCURVE",
"257 1013 OFFCURVE",
"425 1180 CURVE SMOOTH",
"597 1349 OFFCURVE",
"829 1442 OFFCURVE",
"1081 1442 CURVE SMOOTH",
"1364 1442 OFFCURVE",
"1615 1321 OFFCURVE",
"1779 1108 CURVE SMOOTH",
"1879 977 OFFCURVE",
"1933 821 OFFCURVE",
"1933 657 CURVE SMOOTH",
"1933 306 OFFCURVE",
"1708 92 OFFCURVE",
"1335 84 CURVE"
);
}
);
width = 2080;
}
);
unicode = 0040;
},
{
glyphname = A;
lastChange = "2012-05-24 21:38:45 +0000";
layers = (
{
anchors = (
{
name = ogonek;
position = "{1437, 10}";
},
{
name = top;
position = "{754, 1493}";
}
);
layerId = "6B6936E6-7670-4A82-900D-EAF583C971AF";
name = Regular;
paths = (
{
closed = 1;
nodes = (
"753 1309 LINE",
"479 481 LINE",
"1028 481 LINE"
);
},
{
closed = 1;
nodes = (
"659 1493 LINE",
"848 1493 LINE",
"1437 0 LINE",
"1147 0 LINE",
"1091 243 LINE",
"418 243 LINE",
"342 0 LINE",
"69 0 LINE"
);
}
);
width = 1507;
}
);
unicode = 0041;
},
{
glyphname = B;
lastChange = "2012-05-24 21:38:30 +0000";
layers = (
{
layerId = "6B6936E6-7670-4A82-900D-EAF583C971AF";
name = Regular;
paths = (
{
closed = 1;
nodes = (
"477 713 LINE",
"477 296 LINE",
"801 296 LINE SMOOTH",
"1018 296 OFFCURVE",
"1121 345 OFFCURVE",
"1121 530 CURVE SMOOTH",
"1121 563 OFFCURVE",
"1095 602 OFFCURVE",
"1043 647 CURVE SMOOTH",
"990 691 OFFCURVE",
"910 713 OFFCURVE",
"801 713 CURVE SMOOTH"
);
},
{
closed = 1;
nodes = (
"477 1357 LINE",
"477 877 LINE",
"776 877 LINE SMOOTH",
"973 877 OFFCURVE",
"1069 950 OFFCURVE",
"1069 1102 CURVE SMOOTH",
"1069 1253 OFFCURVE",
"973 1357 OFFCURVE",
"776 1357 CURVE SMOOTH"
);
},
{
closed = 1;
nodes = (
"275 1493 LINE",
"741 1493 LINE SMOOTH",
"1049 1493 OFFCURVE",
"1222 1360 OFFCURVE",
"1222 1124 CURVE SMOOTH",
"1222 941 OFFCURVE",
"1135 832 OFFCURVE",
"970 805 CURVE",
"1235 762 OFFCURVE",
"1354 621 OFFCURVE",
"1354 418 CURVE SMOOTH",
"1354 151 OFFCURVE",
"1146 0 OFFCURVE",
"811 0 CURVE SMOOTH",
"275 0 LINE"
);
}
);
width = 1498;
}
);
unicode = 0042;
},
{
glyphname = C;
lastChange = "2012-05-24 21:38:30 +0000";
layers = (
{
anchors = (
{
name = bottom;
position = "{794, 0}";
},
{
name = top;
position = "{794, 1493}";
}
);
layerId = "6B6936E6-7670-4A82-900D-EAF583C971AF";
name = Regular;
paths = (
{
closed = 1;
nodes = (
"1365 1165 LINE",
"1229 1292 OFFCURVE",
"1075 1354 OFFCURVE",
"902 1354 CURVE SMOOTH",
"561 1354 OFFCURVE",
"374 1140 OFFCURVE",
"374 745 CURVE SMOOTH",
"379 396 OFFCURVE",
"561 277 OFFCURVE",
"902 277 CURVE SMOOTH",
"1075 277 OFFCURVE",
"1229 339 OFFCURVE",
"1365 466 CURVE",
"1365 115 LINE",
"1224 19 OFFCURVE",
"1066 -29 OFFCURVE",
"890 -29 CURVE SMOOTH",
"438 -29 OFFCURVE",
"161 266 OFFCURVE",
"161 745 CURVE SMOOTH",
"161 1225 OFFCURVE",
"438 1520 OFFCURVE",
"890 1520 CURVE SMOOTH",
"1069 1520 OFFCURVE",
"1226 1473 OFFCURVE",
"1365 1378 CURVE"
);
}
);
width = 1588;
}
);
unicode = 0043;
},
{
glyphname = D;
lastChange = "2012-05-24 21:38:30 +0000";
layers = (
{
anchors = (
{
name = center;
position = "{849, 747}";
},
{
name = top;
position = "{849, 1493}";
}
);
layerId = "6B6936E6-7670-4A82-900D-EAF583C971AF";
name = Regular;
paths = (
{
closed = 1;
nodes = (
"487 1327 LINE",
"487 376 LINE",
"731 376 LINE SMOOTH",
"1143 376 OFFCURVE",
"1259 463 OFFCURVE",
"1327 768 CURVE",
"1327 1141 OFFCURVE",
"1143 1327 OFFCURVE",
"731 1327 CURVE SMOOTH"
);
},
{
closed = 1;
nodes = (
"275 1493 LINE",
"690 1493 LINE SMOOTH",
"1269 1493 OFFCURVE",
"1530 1260 OFFCURVE",
"1530 748 CURVE SMOOTH",
"1530 233 OFFCURVE",
"1266 0 OFFCURVE",
"690 0 CURVE SMOOTH",
"275 0 LINE"
);
}
);
width = 1698;
}
);
unicode = 0044;
},
{
glyphname = E;
lastChange = "2012-05-24 21:38:30 +0000";
layers = (
{
anchors = (
{
name = bottom;
position = "{704, 0}";
},
{
name = ogonek;
position = "{1267, 10}";
},
{
name = top;
position = "{704, 1493}";
}
);
layerId = "6B6936E6-7670-4A82-900D-EAF583C971AF";
name = Regular;
paths = (
{
closed = 1;
nodes = (
"275 1493 LINE",
"1219 1493 LINE",
"1219 1323 LINE",
"477 1323 LINE",
"477 881 LINE",
"1188 881 LINE",
"1188 711 LINE",
"477 711 LINE",
"477 310 LINE",
"1237 310 LINE",
"1237 0 LINE",
"275 0 LINE"
);
}
);
width = 1408;
}
);
unicode = 0045;
},
{
glyphname = F;
lastChange = "2012-05-24 21:38:30 +0000";
layers = (
{
layerId = "6B6936E6-7670-4A82-900D-EAF583C971AF";
name = Regular;
paths = (
{
closed = 1;
nodes = (
"287 1493 LINE",
"1105 1493 LINE",
"1105 1313 LINE",
"489 1313 LINE",
"469 883 LINE",
"1051 883 LINE",
"1051 673 LINE",
"479 673 LINE",
"499 0 LINE",
"247 0 LINE"
);
}
);
width = 1108;
}
);
unicode = 0046;
},
{
glyphname = G;
lastChange = "2012-05-24 21:38:30 +0000";
layers = (
{
anchors = (
{
name = bottom;
position = "{846, 0}";
},
{
name = top;
position = "{846, 1493}";
}
);
layerId = "6B6936E6-7670-4A82-900D-EAF583C971AF";
name = Regular;
paths = (
{
closed = 1;
nodes = (
"1243 534 LINE",
"923 534 LINE",
"923 750 LINE",
"1473 750 LINE",
"1473 139 LINE",
"1317 28 OFFCURVE",
"1127 -29 OFFCURVE",
"914 -29 CURVE SMOOTH",
"447 -29 OFFCURVE",
"169 258 OFFCURVE",
"169 745 CURVE SMOOTH",
"169 1233 OFFCURVE",
"447 1520 OFFCURVE",
"914 1520 CURVE SMOOTH",
"1109 1520 OFFCURVE",
"1286 1471 OFFCURVE",
"1434 1378 CURVE",
"1434 1183 LINE",
"1285 1310 OFFCURVE",
"1116 1374 OFFCURVE",
"931 1374 CURVE SMOOTH",
"566 1374 OFFCURVE",
"382 1169 OFFCURVE",
"382 765 CURVE",
"395 397 OFFCURVE",
"566 297 OFFCURVE",
"931 297 CURVE SMOOTH",
"1074 297 OFFCURVE",
"1194 321 OFFCURVE",
"1243 373 CURVE"
);
}
);
width = 1691;
}
);
unicode = 0047;
},
{
glyphname = H;
lastChange = "2012-05-24 21:38:30 +0000";
layers = (
{
anchors = (
{
name = center;
position = "{844, 747}";
},
{
name = top;
position = "{844, 1493}";
}
);
layerId = "6B6936E6-7670-4A82-900D-EAF583C971AF";
name = Regular;
paths = (
{
closed = 1;
nodes = (
"285 1493 LINE",
"497 1493 LINE",
"497 781 LINE",
"1191 781 LINE",
"1191 1493 LINE",
"1403 1493 LINE",
"1423 0 LINE",
"1191 0 LINE",
"1191 501 LINE",
"497 501 LINE",
"497 0 LINE",
"265 0 LINE"
);
}
);
width = 1687;
}
);
unicode = 0048;
},
{
glyphname = I;
lastChange = "2012-06-10 13:45:46 +0000";
layers = (
{
anchors = (
{
name = ogonek;
position = "{605, 10}";
},
{
name = top;
position = "{336, 1493}";
}
);
layerId = "6B6936E6-7670-4A82-900D-EAF583C971AF";
name = Regular;
paths = (
{
closed = 1;
nodes = (
"235 498 OFFCURVE",
"235 995 OFFCURVE",
"245 1493 CURVE",
"417 1493 LINE",
"424 995 OFFCURVE",
"420 498 OFFCURVE",
"447 0 CURVE",
"205 0 LINE"
);
}
);
width = 672;
}
);
unicode = 0049;
},
{
glyphname = J;
lastChange = "2012-05-24 21:38:30 +0000";
layers = (
{
anchors = (
{
name = top;
position = "{414, 1493}";
}
);
layerId = "6B6936E6-7670-4A82-900D-EAF583C971AF";
name = Regular;
paths = (
{
closed = 1;
nodes = (
"429 1495 LINE",
"641 1481 LINE",
"587 63 LINE SMOOTH",
"580 -297 OFFCURVE",
"452 -427 OFFCURVE",
"136 -432 CURVE",
"19 -420 LINE",
"15 -90 LINE",
"117 -112 LINE",
"296 -104 OFFCURVE",
"372 -9 OFFCURVE",
"375 76 CURVE SMOOTH"
);
}
);
width = 827;
}
);
unicode = 004A;
},
{
glyphname = K;
lastChange = "2012-05-24 21:38:30 +0000";
layers = (
{
anchors = (
{
name = bottom;
position = "{800, 0}";
},
{
name = top;
position = "{800, 1493}";
}
);
layerId = "6B6936E6-7670-4A82-900D-EAF583C971AF";
name = Regular;
paths = (
{
closed = 1;
nodes = (
"295 1493 LINE",
"497 1493 LINE",
"477 862 LINE",
"1147 1493 LINE",
"1407 1493 LINE",
"666 797 LINE",
"1460 0 LINE",
"984 0 LINE",
"477 719 LINE",
"517 0 LINE",
"255 0 LINE"
);
}
);
width = 1600;
}
);
unicode = 004B;
},
{
glyphname = L;
lastChange = "2012-05-24 21:38:30 +0000";
layers = (
{
anchors = (
{
name = bottom;
position = "{602, 0}";
},
{
name = top;
position = "{602, 1493}";
}
);
layerId = "6B6936E6-7670-4A82-900D-EAF583C971AF";
name = Regular;
paths = (
{
closed = 1;
nodes = (
"282 1493 LINE",
"484 1493 LINE",
"474 310 LINE",
"1201 310 LINE",
"1181 0 LINE",
"262 0 LINE"
);
}
);
width = 1204;
}
);
unicode = 004C;
},
{
glyphname = M;
lastChange = "2012-05-24 21:38:30 +0000";
layers = (
{
layerId = "6B6936E6-7670-4A82-900D-EAF583C971AF";
name = Regular;
paths = (
{
closed = 1;
nodes = (
"292 1493 LINE",
"593 1493 LINE",
"964 607 LINE",
"1357 1493 LINE",
"1638 1493 LINE",
"1668 0 LINE",
"1411 0 LINE",
"1451 1311 LINE",
"1086 237 LINE",
"843 237 LINE",
"478 1311 LINE",
"518 0 LINE",
"262 0 LINE"
);
}
);
width = 1930;
}
);
unicode = 004D;
},
{
glyphname = N;
lastChange = "2012-05-24 21:38:30 +0000";
layers = (
{
anchors = (
{
name = bottom;
position = "{837, 0}";
},
{
name = top;
position = "{837, 1493}";
}
);
layerId = "6B6936E6-7670-4A82-900D-EAF583C971AF";
name = Regular;
paths = (
{
closed = 1;
nodes = (
"290 1463 LINE",
"542 1463 LINE",
"1184 284 LINE",
"1214 1493 LINE",
"1400 1493 LINE",
"1400 0 LINE",
"1108 0 LINE",
"446 1249 LINE",
"506 0 LINE",
"250 0 LINE"
);
}
);
width = 1674;
}
);
unicode = 004E;
},
{
glyphname = O;
lastChange = "2012-05-24 21:38:30 +0000";
layers = (
{
anchors = (
{
name = top;
position = "{867, 1493}";
}
);
layerId = "6B6936E6-7670-4A82-900D-EAF583C971AF";
name = Regular;
paths = (
{
closed = 1;
nodes = (
"575 1356 OFFCURVE",
"389 1122 OFFCURVE",
"389 745 CURVE SMOOTH",
"389 436 OFFCURVE",
"575 355 OFFCURVE",
"868 355 CURVE SMOOTH",
"1161 355 OFFCURVE",
"1345 436 OFFCURVE",
"1345 745 CURVE SMOOTH",
"1345 1122 OFFCURVE",
"1161 1356 OFFCURVE",
"868 1356 CURVE SMOOTH"
);
},
{
closed = 1;
nodes = (
"1287 1520 OFFCURVE",
"1558 1217 OFFCURVE",
"1558 745 CURVE SMOOTH",
"1558 274 OFFCURVE",
"1287 -29 OFFCURVE",
"868 -29 CURVE SMOOTH",
"448 -29 OFFCURVE",
"176 273 OFFCURVE",
"176 745 CURVE SMOOTH",
"176 1217 OFFCURVE",
"448 1520 OFFCURVE",
"868 1520 CURVE SMOOTH"
);
}
);
width = 1733;
}
);
unicode = 004F;
},
{
glyphname = P;
lastChange = "2012-05-24 21:38:30 +0000";
layers = (
{
layerId = "6B6936E6-7670-4A82-900D-EAF583C971AF";
name = Regular;
paths = (
{
closed = 1;
nodes = (
"511 1407 LINE",
"491 846 LINE",
"764 846 LINE SMOOTH",
"965 846 OFFCURVE",
"1080 947 OFFCURVE",
"1080 1127 CURVE SMOOTH",
"1080 1306 OFFCURVE",
"965 1407 OFFCURVE",
"764 1407 CURVE SMOOTH"
);
},
{
closed = 1;
nodes = (
"299 1493 LINE",
"745 1493 LINE SMOOTH",
"1080 1493 OFFCURVE",
"1253 1339 OFFCURVE",
"1253 1047 CURVE SMOOTH",
"1253 752 OFFCURVE",
"1080 580 OFFCURVE",
"745 580 CURVE SMOOTH",
"501 580 LINE",
"481 0 LINE",
"239 0 LINE"
);
}
);
width = 1275;
}
);
unicode = 0050;
},
{
glyphname = Q;
lastChange = "2012-05-24 21:38:30 +0000";
layers = (
{
layerId = "6B6936E6-7670-4A82-900D-EAF583C971AF";
name = Regular;
paths = (
{
closed = 1;
nodes = (
"517 1356 OFFCURVE",
"331 1122 OFFCURVE",
"331 745 CURVE SMOOTH",
"331 436 OFFCURVE",
"560 368 OFFCURVE",
"680 355 CURVE",
"774 341 LINE",
"857 480 LINE",
"936 444 OFFCURVE",
"1016 420 OFFCURVE",
"1099 409 CURVE",
"1224 478 OFFCURVE",
"1287 590 OFFCURVE",
"1287 745 CURVE SMOOTH",
"1287 1122 OFFCURVE",
"1103 1356 OFFCURVE",
"810 1356 CURVE SMOOTH"
);
},
{
closed = 1;
nodes = (
"1569 -264 LINE",
"1095 -264 LINE",
"884 -25 LINE",
"840 -28 OFFCURVE",
"821 -29 OFFCURVE",
"800 -29 CURVE SMOOTH",
"393 -29 OFFCURVE",
"118 274 OFFCURVE",
"118 745 CURVE SMOOTH",
"118 1217 OFFCURVE",
"390 1520 OFFCURVE",
"810 1520 CURVE SMOOTH",
"1229 1520 OFFCURVE",
"1500 1217 OFFCURVE",
"1500 745 CURVE SMOOTH",
"1500 398 OFFCURVE",
"1370 218 OFFCURVE",
"1253 87 CURVE"
);
}
);
width = 1724;
}
);
unicode = 0051;
},
{
glyphname = R;
lastChange = "2012-05-24 21:38:30 +0000";
layers = (
{
anchors = (
{
name = bottom;
position = "{767, 0}";
},
{
name = top;
position = "{767, 1493}";
}
);
layerId = "6B6936E6-7670-4A82-900D-EAF583C971AF";
name = Regular;
paths = (
{
closed = 1;
nodes = (
"1070 671 OFFCURVE",
"1150 576 OFFCURVE",
"1233 408 CURVE SMOOTH",
"1438 0 LINE",
"1151 0 LINE",
"1000 383 LINE",
"901 583 OFFCURVE",
"827 631 OFFCURVE",
"667 631 CURVE SMOOTH",
"517 631 LINE",
"517 0 LINE",
"275 0 LINE",
"275 1493 LINE",
"731 1493 LINE SMOOTH",
"1032 1493 OFFCURVE",
"1209 1351 OFFCURVE",
"1209 1063 CURVE SMOOTH",
"1209 875 OFFCURVE",
"1123 748 OFFCURVE",
"983 700 CURVE"
);
},
{
closed = 1;
nodes = (
"497 1387 LINE",
"497 837 LINE",
"751 837 LINE SMOOTH",
"906 837 OFFCURVE",
"1066 942 OFFCURVE",
"1066 1063 CURVE SMOOTH",
"1066 1318 OFFCURVE",
"906 1387 OFFCURVE",
"751 1387 CURVE SMOOTH"
);
}
);
width = 1534;
}
);
unicode = 0052;
},
{
glyphname = S;
lastChange = "2012-05-24 21:38:30 +0000";
layers = (
{
anchors = (
{
name = bottom;
position = "{715, 0}";
},
{
name = top;
position = "{715, 1493}";
}
);
layerId = "6B6936E6-7670-4A82-900D-EAF583C971AF";
name = Regular;
paths = (
{
closed = 1;
nodes = (
"1169 1247 LINE",
"1016 1320 OFFCURVE",
"882 1356 OFFCURVE",
"755 1356 CURVE SMOOTH",
"535 1356 OFFCURVE",
"411 1267 OFFCURVE",
"411 1110 CURVE SMOOTH",
"411 978 OFFCURVE",
"475 920 OFFCURVE",
"696 879 CURVE SMOOTH",
"818 854 LINE SMOOTH",
"1119 797 OFFCURVE",
"1259 655 OFFCURVE",
"1259 412 CURVE SMOOTH",
"1259 123 OFFCURVE",
"1062 -29 OFFCURVE",
"687 -29 CURVE SMOOTH",
"546 -29 OFFCURVE",
"385 3 OFFCURVE",
"214 66 CURVE",
"214 384 LINE",
"378 292 OFFCURVE",
"535 245 OFFCURVE",
"687 245 CURVE SMOOTH",
"918 245 OFFCURVE",
"1048 359 OFFCURVE",
"1048 447 CURVE SMOOTH",
"1048 527 OFFCURVE",
"964 621 OFFCURVE",
"759 662 CURVE SMOOTH",
"636 686 LINE SMOOTH",
"335 746 OFFCURVE",
"208 866 OFFCURVE",
"208 1094 CURVE SMOOTH",
"208 1358 OFFCURVE",
"405 1520 OFFCURVE",
"732 1520 CURVE SMOOTH",
"872 1520 OFFCURVE",
"1017 1495 OFFCURVE",
"1169 1444 CURVE"
);
}
);
width = 1429;
}
);
unicode = 0053;
},
{
glyphname = T;
lastChange = "2012-05-25 03:40:29 +0000";
layers = (
{
anchors = (
{
name = bottom;
position = "{678, 0}";
},
{
name = center;
position = "{678, 747}";
},
{
name = top;
position = "{678, 1493}";
}
);
layerId = "6B6936E6-7670-4A82-900D-EAF583C971AF";
name = Regular;
paths = (
{
closed = 1;
nodes = (
"47 1493 LINE",
"1310 1493 LINE",
"1310 1323 LINE",
"780 1343 LINE",
"820 0 LINE",
"537 0 LINE",
"577 1343 LINE",
"47 1323 LINE"
);
}
);
width = 1356;
}
);
unicode = 0054;
},
{
glyphname = U;
lastChange = "2012-06-10 13:49:48 +0000";
layers = (
{
anchors = (
{
name = ogonek;
position = "{1462, 10}";
},
{
name = top;
position = "{813, 1493}";
}
);
layerId = "6B6936E6-7670-4A82-900D-EAF583C971AF";
name = Regular;
paths = (
{
closed = 1;
nodes = (
"242 1493 LINE",
"455 1493 LINE",
"435 726 LINE SMOOTH",
"427 406 OFFCURVE",
"554 275 OFFCURVE",
"814 275 CURVE SMOOTH",
"1073 275 OFFCURVE",
"1199 406 OFFCURVE",
"1191 726 CURVE SMOOTH",
"1172 1493 LINE",
"1385 1493 LINE",
"1385 561 LINE SMOOTH",
"1385 172 OFFCURVE",
"1190 -29 OFFCURVE",
"814 -29 CURVE SMOOTH",
"437 -29 OFFCURVE",
"242 172 OFFCURVE",
"242 561 CURVE SMOOTH"
);
}
);
width = 1625;
}
);
unicode = 0055;
},
{
glyphname = V;
lastChange = "2012-05-25 03:40:45 +0000";
layers = (
{
layerId = "6B6936E6-7670-4A82-900D-EAF583C971AF";
name = Regular;
paths = (
{
closed = 1;
nodes = (
"605 0 LINE",
"85 1493 LINE",
"296 1493 LINE",
"769 376 LINE",
"1243 1493 LINE",
"1453 1493 LINE",
"934 0 LINE"
);
}
);
width = 1538;
}
);
unicode = 0056;
},
{
glyphname = W;
lastChange = "2012-05-24 21:38:30 +0000";
layers = (
{
anchors = (
{
name = top;
position = "{1113, 1493}";
}
);
layerId = "6B6936E6-7670-4A82-900D-EAF583C971AF";
name = Regular;
paths = (
{
closed = 1;
nodes = (
"173 1493 LINE",
"367 1493 LINE",
"671 421 LINE",
"1024 1113 LINE",
"1201 1113 LINE",
"1525 401 LINE",
"1868 1493 LINE",
"2063 1493 LINE",
"1688 0 LINE",
"1394 0 LINE",
"1119 806 LINE",
"821 0 LINE",
"507 0 LINE"
);
}
);
width = 2226;
}
);
unicode = 0057;
},
{
glyphname = X;
lastChange = "2012-05-24 21:38:30 +0000";
layers = (
{
layerId = "6B6936E6-7670-4A82-900D-EAF583C971AF";
name = Regular;
paths = (
{
closed = 1;
nodes = (
"243 1493 LINE",
"460 1493 LINE",
"831 858 LINE",
"1204 1493 LINE",
"1421 1493 LINE",
"961 696 LINE",
"1453 0 LINE",
"1126 0 LINE",
"816 535 LINE",
"503 0 LINE",
"175 0 LINE",
"688 697 LINE"
);
}
);
width = 1644;
}
);
unicode = 0058;
},
{
glyphname = Y;
lastChange = "2012-05-24 21:38:30 +0000";
layers = (
{
anchors = (
{
name = top;
position = "{692, 1493}";
}
);
layerId = "6B6936E6-7670-4A82-900D-EAF583C971AF";
name = Regular;
paths = (
{
closed = 1;
nodes = (
"64 1493 LINE",
"281 1493 LINE",
"695 729 LINE",
"1106 1493 LINE",
"1323 1493 LINE",
"825 511 LINE",
"825 0 LINE",
"552 0 LINE",
"552 511 LINE"
);
}
);
width = 1384;
}
);
unicode = 0059;
},
{
glyphname = Z;
lastChange = "2012-05-24 21:38:30 +0000";
layers = (
{
anchors = (
{
name = top;
position = "{821, 1493}";
}
);
layerId = "6B6936E6-7670-4A82-900D-EAF583C971AF";
name = Regular;
paths = (
{
closed = 1;
nodes = (
"190 1493 LINE",
"1363 1493 LINE",
"1363 1339 LINE",
"419 300 LINE",
"1386 300 LINE",
"1386 0 LINE",
"167 0 LINE",
"167 284 LINE",
"1111 1323 LINE",
"190 1323 LINE"
);
}
);
width = 1642;
}
);
unicode = 005A;
},
{
glyphname = bracketleft;
lastChange = "2012-05-24 21:38:30 +0000";
layers = (
{
layerId = "6B6936E6-7670-4A82-900D-EAF583C971AF";
name = Regular;
paths = (
{
closed = 1;
nodes = (
"275 1556 LINE",
"699 1556 LINE",
"699 1413 LINE",
"459 1413 LINE",
"459 -47 LINE",
"699 -47 LINE",
"699 -270 LINE",
"275 -270 LINE"
);
}
);
width = 786;
}
);
unicode = 005B;
},
{
glyphname = backslash;
lastChange = "2012-05-24 21:38:30 +0000";
layers = (
{
layerId = "6B6936E6-7670-4A82-900D-EAF583C971AF";
name = Regular;
paths = (
{
closed = 1;
nodes = (
"183 1487 LINE",
"644 -214 LINE",
"434 -206 LINE",
"13 1492 LINE"
);
}
);
width = 650;
}
);
unicode = 005C;
},
{
glyphname = bracketright;
lastChange = "2012-05-24 21:38:30 +0000";
layers = (
{
layerId = "6B6936E6-7670-4A82-900D-EAF583C971AF";
name = Regular;
paths = (
{
closed = 1;
nodes = (
"508 1556 LINE",
"508 -270 LINE",
"84 -270 LINE",
"84 -57 LINE",
"323 -57 LINE",
"323 1413 LINE",
"84 1413 LINE",
"84 1556 LINE"
);
}
);
width = 780;
}
);
unicode = 005D;
},
{
glyphname = asciicircum;
lastChange = "2012-05-24 21:38:30 +0000";
layers = (
{
layerId = "6B6936E6-7670-4A82-900D-EAF583C971AF";
name = Regular;
paths = (
{
closed = 1;
nodes = (
"788 1493 LINE",
"1351 936 LINE",
"1040 936 LINE",
"710 1391 LINE",
"380 936 LINE",
"69 936 LINE",
"632 1493 LINE"
);
}
);
width = 1420;
}
);
unicode = 005E;
},
{
glyphname = underscore;
lastChange = "2012-05-24 21:38:30 +0000";
layers = (
{
layerId = "6B6936E6-7670-4A82-900D-EAF583C971AF";
name = Regular;
paths = (
{
closed = 1;
nodes = (
"1339 -304 LINE",
"1339 -483 LINE",
"275 -483 LINE",
"275 -304 LINE"
);
}
);
width = 1613;
}
);
unicode = 005F;
},
{
glyphname = grave;
lastChange = "2012-05-24 21:38:30 +0000";
layers = (
{
anchors = (
{
name = _top;
position = "{308.5, 1120}";
}
);
layerId = "6B6936E6-7670-4A82-900D-EAF583C971AF";
name = Regular;
paths = (
{
closed = 1;
nodes = (
"266 1638 LINE",
"548 1264 LINE",
"275 1264 LINE",
"69 1638 LINE"
);
}
);
width = 578;
}
);
unicode = 0060;
},
{
glyphname = a;
lastChange = "2012-05-25 03:40:52 +0000";
layers = (
{
anchors = (
{
name = ogonek;
position = "{1223, 10}";
},
{
name = top;
position = "{680, 1120}";
}
);
layerId = "6B6936E6-7670-4A82-900D-EAF583C971AF";
name = Regular;
paths = (
{
closed = 1;
nodes = (
"672 572 LINE SMOOTH",
"403 572 OFFCURVE",
"334 515 OFFCURVE",
"333 376 CURVE",
"353 263 OFFCURVE",
"449 251 OFFCURVE",
"582 251 CURVE SMOOTH",
"767 251 OFFCURVE",
"838 291 OFFCURVE",
"838 531 CURVE SMOOTH",
"838 572 LINE"
);
},
{
closed = 1;
nodes = (
"1125 0 LINE",
"941 0 LINE",
"941 160 LINE",
"857 37 OFFCURVE",
"735 -29 OFFCURVE",
"554 -29 CURVE SMOOTH",
"325 -29 OFFCURVE",
"179 110 OFFCURVE",
"179 326 CURVE SMOOTH",
"179 578 OFFCURVE",
"348 707 OFFCURVE",
"683 707 CURVE",
"941 707 LINE",
"941 725 LINE SMOOTH",
"941 894 OFFCURVE",
"838 998 OFFCURVE",
"623 1011 CURVE",
"495 1011 OFFCURVE",
"373 980 OFFCURVE",
"261 919 CURVE",
"261 1069 LINE",
"396 1121 OFFCURVE",
"522 1147 OFFCURVE",
"642 1147 CURVE SMOOTH",
"966 1147 OFFCURVE",
"1125 980 OFFCURVE",
"1125 639 CURVE SMOOTH"
);
}
);
width = 1359;
}
);
unicode = 0061;
},
{
glyphname = b;
lastChange = "2012-05-25 03:35:49 +0000";
layers = (
{
layerId = "6B6936E6-7670-4A82-900D-EAF583C971AF";
name = Regular;
paths = (
{
closed = 1;
nodes = (
"1138 860 OFFCURVE",
"1042 1016 OFFCURVE",
"847 1016 CURVE SMOOTH",
"652 1016 OFFCURVE",
"534 863 OFFCURVE",
"534 592 CURVE",
"561 385 OFFCURVE",
"652 299 OFFCURVE",
"847 299 CURVE",
"1011 311 OFFCURVE",
"1114 369 OFFCURVE",
"1146 601 CURVE"
);
},
{
closed = 1;
nodes = (
"446 950 LINE",
"523 1083 OFFCURVE",
"640 1147 OFFCURVE",
"804 1147 CURVE SMOOTH",
"1076 1147 OFFCURVE",
"1263 911 OFFCURVE",
"1263 559 CURVE SMOOTH",
"1263 207 OFFCURVE",
"1076 -29 OFFCURVE",
"804 -29 CURVE SMOOTH",
"640 -29 OFFCURVE",
"523 35 OFFCURVE",
"446 168 CURVE",
"446 0 LINE",
"261 0 LINE",
"281 1556 LINE",
"466 1556 LINE"
);
}
);
width = 1308;
}
);
unicode = 0062;
},
{
glyphname = c;
lastChange = "2012-05-25 01:41:02 +0000";
layers = (
{
anchors = (
{
name = bottom;
position = "{642, 0}";
},
{
name = top;
position = "{642, 1120}";
}
);
layerId = "6B6936E6-7670-4A82-900D-EAF583C971AF";
name = Regular;
paths = (
{
closed = 1;
nodes = (
"1043 915 LINE",
"939 972 OFFCURVE",
"835 1001 OFFCURVE",
"728 1001 CURVE SMOOTH",
"489 1001 OFFCURVE",
"361 832 OFFCURVE",
"361 559 CURVE",
"380 367 OFFCURVE",
"481 301 OFFCURVE",
"720 288 CURVE",
"827 288 OFFCURVE",
"935 275 OFFCURVE",
"1039 332 CURVE",
"1043 43 LINE",
"940 -5 OFFCURVE",
"832 -29 OFFCURVE",
"708 -29 CURVE SMOOTH",
"371 -29 OFFCURVE",
"157 199 OFFCURVE",
"157 559 CURVE SMOOTH",
"157 924 OFFCURVE",
"371 1147 OFFCURVE",
"720 1147 CURVE SMOOTH",
"833 1147 OFFCURVE",
"942 1124 OFFCURVE",
"1043 1077 CURVE"
);
}
);
width = 1284;
}
);
unicode = 0063;
},
{
glyphname = d;
lastChange = "2012-05-25 04:25:39 +0000";
layers = (
{
anchors = (
{
name = center;
position = "{804, 560}";
}
);
layerId = "6B6936E6-7670-4A82-900D-EAF583C971AF";
name = Regular;
paths = (
{
closed = 1;
nodes = (
"1037 1556 LINE",
"1221 1556 LINE",
"1201 0 LINE",
"1017 0 LINE",
"1017 168 LINE",
"940 35 OFFCURVE",
"823 -29 OFFCURVE",
"658 -29 CURVE SMOOTH",
"387 -29 OFFCURVE",
"200 207 OFFCURVE",
"200 559 CURVE SMOOTH",
"200 911 OFFCURVE",
"387 1147 OFFCURVE",
"658 1147 CURVE SMOOTH",
"823 1147 OFFCURVE",
"940 1083 OFFCURVE",
"1017 950 CURVE"
);
},
{
closed = 1;
nodes = (
"360 384 OFFCURVE",
"442 306 OFFCURVE",
"637 306 CURVE SMOOTH",
"832 306 OFFCURVE",
"925 346 OFFCURVE",
"932 593 CURVE",
"925 864 OFFCURVE",
"837 1013 OFFCURVE",
"642 1013 CURVE SMOOTH",
"447 1013 OFFCURVE",
"329 850 OFFCURVE",
"329 579 CURVE"
);
}
);
width = 1481;
}
);
unicode = 0064;
},
{
glyphname = e;
lastChange = "2012-05-25 03:39:46 +0000";
layers = (
{
anchors = (
{
name = bottom;
position = "{689, 0}";
},
{
name = ogonek;
position = "{1240, 10}";
},
{
name = top;
position = "{689, 1120}";
}
);
layerId = "6B6936E6-7670-4A82-900D-EAF583C971AF";
name = Regular;
paths = (
{
closed = 1;
nodes = (
"1194 606 LINE",
"358 606 LINE",
"362 307 OFFCURVE",
"510 257 OFFCURVE",
"754 244 CURVE",
"895 244 OFFCURVE",
"1027 242 OFFCURVE",
"1158 311 CURVE",
"1162 57 LINE",
"1029 1 OFFCURVE",
"891 -29 OFFCURVE",
"747 -29 CURVE",
"391 -16 OFFCURVE",
"166 194 OFFCURVE",
"166 549 CURVE",
"179 916 OFFCURVE",
"379 1147 OFFCURVE",
"716 1147 CURVE",
"1016 1134 OFFCURVE",
"1169 996 OFFCURVE",
"1194 676 CURVE"
);
},
{
closed = 1;
nodes = (
"1034 767 LINE",
"1013 892 OFFCURVE",
"898 1050 OFFCURVE",
"717 1050 CURVE SMOOTH",
"512 1050 OFFCURVE",
"378 901 OFFCURVE",
"378 766 CURVE"
);
}
);
width = 1378;
}
);
unicode = 0065;
},
{
glyphname = f;
lastChange = "2012-05-25 03:41:22 +0000";
layers = (
{
layerId = "6B6936E6-7670-4A82-900D-EAF583C971AF";
name = Regular;
paths = (
{
closed = 1;
nodes = (
"712 1516 LINE",
"712 1363 LINE",
"546 1383 LINE",
"454 1383 OFFCURVE",
"420 1358 OFFCURVE",
"420 1219 CURVE",
"430 1120 LINE",
"723 1120 LINE",
"723 937 LINE",
"430 937 LINE",
"460 0 LINE",
"195 0 LINE",
"225 937 LINE",
"59 937 LINE",
"59 1120 LINE",
"225 1120 LINE",
"235 1198 LINE",
"235 1447 OFFCURVE",
"376 1536 OFFCURVE",
"548 1536 CURVE"
);
}
);
width = 775;
}
);
unicode = 0066;
},
{
glyphname = g;
lastChange = "2012-06-10 13:42:01 +0000";
layers = (
{
anchors = (
{
name = top;
position = "{707, 1120}";
}
);
layerId = "6B6936E6-7670-4A82-900D-EAF583C971AF";
name = Regular;
paths = (
{
closed = 1;
nodes = (
"912 851 OFFCURVE",
"797 1004 OFFCURVE",
"598 1004 CURVE SMOOTH",
"401 1004 OFFCURVE",
"285 851 OFFCURVE",
"285 584 CURVE",
"312 319 OFFCURVE",
"387 298 OFFCURVE",
"584 298 CURVE SMOOTH",
"783 298 OFFCURVE",
"912 319 OFFCURVE",
"912 584 CURVE SMOOTH"
);
},
{
closed = 1;
nodes = (
"1166 139 LINE SMOOTH",
"1150 -376 OFFCURVE",
"989 -536 OFFCURVE",
"640 -536 CURVE SMOOTH",
"511 -536 OFFCURVE",
"398 -517 OFFCURVE",
"290 -477 CURVE",
"290 -149 LINE",
"398 -208 OFFCURVE",
"502 -235 OFFCURVE",
"611 -235 CURVE SMOOTH",
"852 -235 OFFCURVE",
"955 -26 OFFCURVE",
"982 106 CURVE",
"982 167 LINE",
"919 75 OFFCURVE",
"798 0 OFFCURVE",
"633 0 CURVE SMOOTH",
"358 0 OFFCURVE",
"175 228 OFFCURVE",
"175 573 CURVE SMOOTH",
"175 920 OFFCURVE",
"358 1147 OFFCURVE",
"633 1147 CURVE SMOOTH",
"798 1147 OFFCURVE",
"916 1082 OFFCURVE",
"992 950 CURVE",
"1012 1120 LINE",
"1196 1120 LINE"
);
}
);
width = 1413;
}
);
unicode = 0067;
},
{
glyphname = h;
lastChange = "2012-06-10 13:42:27 +0000";
layers = (
{
anchors = (
{
name = center;
position = "{570, 560}";
},
{
name = top;
position = "{570, 1120}";
}
);
layerId = "6B6936E6-7670-4A82-900D-EAF583C971AF";
name = Regular;
paths = (
{
closed = 1;
nodes = (
"1150 0 LINE",
"916 0 LINE",
"946 670 LINE SMOOTH",
"957 925 OFFCURVE",
"863 1007 OFFCURVE",
"698 1007 CURVE SMOOTH",
"499 1007 OFFCURVE",
"377 852 OFFCURVE",
"377 633 CURVE SMOOTH",
"397 0 LINE",
"172 0 LINE",
"212 1556 LINE",
"397 1556 LINE",
"377 946 LINE",
"465 1081 OFFCURVE",
"583 1147 OFFCURVE",
"739 1147 CURVE SMOOTH",
"996 1147 OFFCURVE",
"1130 985 OFFCURVE",
"1130 676 CURVE SMOOTH"
);
}
);
width = 1218;
}
);
unicode = 0068;
},
{
glyphname = i;
lastChange = "2012-06-10 13:43:54 +0000";
layers = (
{
layerId = "6B6936E6-7670-4A82-900D-EAF583C971AF";
name = Regular;
paths = (
{
closed = 1;
nodes = (
"238 393 OFFCURVE",
"244 767 OFFCURVE",
"241 1120 CURVE",
"405 1120 LINE",
"393 785 OFFCURVE",
"403 408 OFFCURVE",
"445 0 CURVE",
"211 0 LINE"
);
},
{
closed = 1;
nodes = (
"241 1556 LINE",
"405 1556 LINE",
"415 1323 LINE",
"231 1323 LINE"
);
}
);
width = 644;
}
);
unicode = 0069;
},
{
glyphname = j;
lastChange = "2012-06-10 13:44:55 +0000";
layers = (
{
layerId = "6B6936E6-7670-4A82-900D-EAF583C971AF";
name = Regular;
paths = (
{
closed = 1;
nodes = (
"318 1115 LINE",
"492 1112 LINE",
"452 -28 LINE SMOOTH",
"447 -313 OFFCURVE",
"342 -449 OFFCURVE",
"101 -458 CURVE",
"1 -456 LINE",
"6 -180 LINE",
"85 -181 LINE",
"225 -170 OFFCURVE",
"259 -139 OFFCURVE",
"270 95 CURVE SMOOTH"
);
},
{
closed = 1;
nodes = (
"361 1556 LINE",
"525 1556 LINE",
"535 1323 LINE",
"351 1323 LINE"
);
}
);
width = 652;
}
);
unicode = 006A;
},
{
glyphname = k;
lastChange = "2012-05-25 03:41:30 +0000";
layers = (
{
anchors = (
{
name = bottom;
position = "{638, 0}";
}
);
layerId = "6B6936E6-7670-4A82-900D-EAF583C971AF";
name = Regular;
paths = (
{
closed = 1;
nodes = (
"291 1556 LINE",
"476 1556 LINE",
"466 677 LINE",
"845 1120 LINE",
"1080 1120 LINE",
"656 596 LINE",
"1275 0 LINE",
"895 0 LINE",
"466 527 LINE",
"496 0 LINE",
"251 0 LINE"
);
}
);
width = 1275;
}
);
unicode = 006B;
},
{
glyphname = l;
lastChange = "2012-06-10 13:47:42 +0000";
layers = (
{
anchors = (
{
name = bottom;
position = "{313, 0}";
},
{
name = top;
position = "{313, 1120}";
},
{
name = topright;
position = "{605, 1120}";
}
);
layerId = "6B6936E6-7670-4A82-900D-EAF583C971AF";
name = Regular;
paths = (
{
closed = 1;
nodes = (
"235 519 OFFCURVE",
"251 947 OFFCURVE",
"278 1466 CURVE",
"452 1466 LINE",
"429 1023 OFFCURVE",
"415 671 OFFCURVE",
"412 228 CURVE",
"566 227 LINE",
"566 0 LINE",
"228 0 LINE"
);
}
);
width = 656;
}
);
unicode = 006C;
},
{
glyphname = m;
lastChange = "2012-06-10 13:41:25 +0000";
layers = (
{
layerId = "6B6936E6-7670-4A82-900D-EAF583C971AF";
name = Regular;
paths = (
{
closed = 1;
nodes = (
"1269 1070 OFFCURVE",
"1375 1147 OFFCURVE",
"1548 1147 CURVE SMOOTH",
"1781 1147 OFFCURVE",
"1913 977 OFFCURVE",
"1913 676 CURVE SMOOTH",
"1933 0 LINE",
"1658 0 LINE",
"1728 700 LINE",
"1728 915 OFFCURVE",
"1683 1017 OFFCURVE",
"1527 1017 CURVE SMOOTH",
"1336 1017 OFFCURVE",
"1238 852 OFFCURVE",
"1228 633 CURVE SMOOTH",
"1198 0 LINE",
"943 0 LINE",
"1033 710 LINE",
"1033 926 OFFCURVE",
"959 1027 OFFCURVE",
"800 1027 CURVE SMOOTH",
"612 1027 OFFCURVE",
"483 850 OFFCURVE",
"483 633 CURVE SMOOTH",
"503 0 LINE",
"248 0 LINE",
"298 1120 LINE",
"483 1120 LINE",
"463 946 LINE",
"547 1083 OFFCURVE",
"662 1147 OFFCURVE",
"823 1147 CURVE SMOOTH",
"986 1147 OFFCURVE",
"1122 1062 OFFCURVE",
"1177 905 CURVE"
);
}
);
width = 2181;
}
);
unicode = 006D;
},
{
glyphname = n;
lastChange = "2012-05-25 03:40:05 +0000";
layers = (
{
anchors = (
{
name = bottom;
position = "{740, 0}";
},
{
name = top;
position = "{740, 1120}";
}
);
layerId = "6B6936E6-7670-4A82-900D-EAF583C971AF";
name = Regular;
paths = (
{
closed = 1;
nodes = (
"1263 0 LINE",
"999 0 LINE",
"1039 680 LINE",
"1039 892 OFFCURVE",
"976 997 OFFCURVE",
"811 997 CURVE SMOOTH",
"586 997 OFFCURVE",
"480 862 OFFCURVE",
"480 643 CURVE",
"510 0 LINE",
"255 0 LINE",
"285 1130 LINE",
"470 1130 LINE",
"470 996 LINE",
"558 1064 OFFCURVE",
"676 1147 OFFCURVE",
"832 1147 CURVE SMOOTH",
"1089 1147 OFFCURVE",
"1220 985 OFFCURVE",
"1233 676 CURVE SMOOTH"
);
}
);
width = 1480;
}
);
unicode = 006E;
},
{
glyphname = o;
lastChange = "2012-05-31 22:36:54 +0000";
layers = (
{
anchors = (
{
name = top;
position = "{694, 1120}";
}
);
layerId = "6B6936E6-7670-4A82-900D-EAF583C971AF";
name = Regular;
paths = (
{
closed = 1;
nodes = (
"497 1011 OFFCURVE",
"374 851 OFFCURVE",
"374 591 CURVE SMOOTH",
"374 330 OFFCURVE",
"495 289 OFFCURVE",
"694 289 CURVE SMOOTH",
"890 289 OFFCURVE",
"1013 331 OFFCURVE",
"1013 591 CURVE SMOOTH",
"1013 848 OFFCURVE",
"890 1011 OFFCURVE",
"694 1011 CURVE SMOOTH"
);
},
{
closed = 1;
nodes = (
"1014 1147 OFFCURVE",
"1208 927 OFFCURVE",
"1208 559 CURVE SMOOTH",
"1208 192 OFFCURVE",
"1014 -29 OFFCURVE",
"694 -29 CURVE SMOOTH",
"373 -29 OFFCURVE",
"180 192 OFFCURVE",
"180 559 CURVE SMOOTH",
"180 927 OFFCURVE",
"373 1147 OFFCURVE",
"694 1147 CURVE SMOOTH"
);
}
);
width = 1387;
}
);
unicode = 006F;
},
{
glyphname = p;
lastChange = "2012-05-31 22:35:44 +0000";
layers = (
{
layerId = "6B6936E6-7670-4A82-900D-EAF583C971AF";
name = Regular;
paths = (
{
closed = 1;
nodes = (
"433 -426 LINE",
"248 -426 LINE",
"288 1120 LINE",
"473 1120 LINE",
"453 950 LINE",
"530 1083 OFFCURVE",
"647 1147 OFFCURVE",
"811 1147 CURVE SMOOTH",
"1083 1147 OFFCURVE",
"1270 911 OFFCURVE",
"1270 559 CURVE SMOOTH",
"1270 207 OFFCURVE",
"1083 -29 OFFCURVE",
"811 -29 CURVE SMOOTH",
"647 -29 OFFCURVE",
"530 35 OFFCURVE",
"453 168 CURVE"
);
},
{
closed = 1;
nodes = (
"1152 862 OFFCURVE",
"1034 1025 OFFCURVE",
"839 1025 CURVE SMOOTH",
"644 1025 OFFCURVE",
"526 862 OFFCURVE",
"526 591 CURVE SMOOTH",
"526 320 OFFCURVE",
"654 274 OFFCURVE",
"849 274 CURVE SMOOTH",
"1044 274 OFFCURVE",
"1152 320 OFFCURVE",
"1152 591 CURVE SMOOTH"
);
}
);
width = 1470;
}
);
unicode = 0070;
},
{
glyphname = q;
lastChange = "2012-05-31 20:28:39 +0000";
layers = (
{
associatedMasterId = "6B6936E6-7670-4A82-900D-EAF583C971AF";
layerId = "550EFC85-22CC-4D43-B167-1DAEAAA2FB65";
name = "Regular May 31 12, 16:28";
paths = (
{
closed = 1;
nodes = (
"322 314 OFFCURVE",
"435 278 OFFCURVE",
"630 278 CURVE SMOOTH",
"825 278 OFFCURVE",
"949 314 OFFCURVE",
"949 585 CURVE SMOOTH",
"949 856 OFFCURVE",
"830 1019 OFFCURVE",
"635 1019 CURVE SMOOTH",
"440 1019 OFFCURVE",
"322 856 OFFCURVE",
"322 585 CURVE SMOOTH"
);
},
{
closed = 1;
nodes = (
"1017 168 LINE",
"940 35 OFFCURVE",
"823 -29 OFFCURVE",
"658 -29 CURVE SMOOTH",
"387 -29 OFFCURVE",
"200 207 OFFCURVE",
"200 559 CURVE SMOOTH",
"200 911 OFFCURVE",
"387 1147 OFFCURVE",
"658 1147 CURVE SMOOTH",
"823 1147 OFFCURVE",
"940 1083 OFFCURVE",
"1017 950 CURVE",
"1047 1120 LINE",
"1225 1120 LINE",
"1148 -242 LINE SMOOTH",
"1141 -426 LINE",
"971 -426 LINE"
);
}
);
width = 1470;
},
{
layerId = "6B6936E6-7670-4A82-900D-EAF583C971AF";
name = Regular;
paths = (
{
closed = 1;
nodes = (
"201 314 OFFCURVE",
"314 278 OFFCURVE",
"509 278 CURVE SMOOTH",
"704 278 OFFCURVE",
"828 314 OFFCURVE",
"828 585 CURVE SMOOTH",
"828 856 OFFCURVE",
"709 1019 OFFCURVE",
"514 1019 CURVE SMOOTH",
"319 1019 OFFCURVE",
"201 856 OFFCURVE",
"201 585 CURVE SMOOTH"
);
},
{
closed = 1;
nodes = (
"896 168 LINE",
"819 35 OFFCURVE",
"702 -29 OFFCURVE",
"537 -29 CURVE SMOOTH",
"266 -29 OFFCURVE",
"79 207 OFFCURVE",
"79 559 CURVE SMOOTH",
"79 911 OFFCURVE",
"266 1147 OFFCURVE",
"537 1147 CURVE SMOOTH",
"702 1147 OFFCURVE",
"819 1083 OFFCURVE",
"896 950 CURVE",
"926 1120 LINE",
"1104 1120 LINE",
"1041 -66 LINE",
"1267 -282 LINE SMOOTH",
"1100 -423 LINE",
"840 -426 LINE"
);
}
);
width = 1319;
}
);
unicode = 0071;
},
{
glyphname = r;
lastChange = "2012-06-10 13:40:21 +0000";
layers = (
{
anchors = (
{
name = bottom;
position = "{443, 0}";
},
{
name = top;
position = "{443, 1120}";
}
);
layerId = "6B6936E6-7670-4A82-900D-EAF583C971AF";
name = Regular;
paths = (
{
closed = 1;
nodes = (
"870 928 LINE",
"829 952 OFFCURVE",
"791 953 OFFCURVE",
"732 953 CURVE SMOOTH",
"524 953 OFFCURVE",
"439 800 OFFCURVE",
"439 560 CURVE",
"479 0 LINE",
"191 0 LINE",
"275 463 OFFCURVE",
"284 631 OFFCURVE",
"269 1110 CURVE",
"439 1110 LINE",
"439 996 LINE",
"476 1025 OFFCURVE",
"609 1127 OFFCURVE",
"786 1127 CURVE SMOOTH",
"811 1127 OFFCURVE",
"832 1124 OFFCURVE",
"869 1117 CURVE"
);
}
);
width = 886;
}
);
unicode = 0072;
},
{
glyphname = s;
lastChange = "2012-05-25 04:22:48 +0000";
layers = (
{
anchors = (
{
name = bottom;
position = "{619, 0}";
},
{
name = top;
position = "{619, 1120}";
}
);
layerId = "6B6936E6-7670-4A82-900D-EAF583C971AF";
name = Regular;
paths = (
{
closed = 1;
nodes = (
"1004 933 LINE",
"900 986 OFFCURVE",
"788 1013 OFFCURVE",
"668 1013 CURVE SMOOTH",
"485 1013 OFFCURVE",
"384 947 OFFCURVE",
"384 835 CURVE SMOOTH",
"384 736 OFFCURVE",
"443 689 OFFCURVE",
"640 645 CURVE SMOOTH",
"703 631 LINE SMOOTH",
"964 575 OFFCURVE",
"1064 492 OFFCURVE",
"1064 309 CURVE SMOOTH",
"1064 101 OFFCURVE",
"889 -29 OFFCURVE",
"601 -29 CURVE SMOOTH",
"481 -29 OFFCURVE",
"352 -6 OFFCURVE",
"208 41 CURVE",
"208 311 LINE",
"344 240 OFFCURVE",
"476 205 OFFCURVE",
"605 205 CURVE SMOOTH",
"778 205 OFFCURVE",
"855 259 OFFCURVE",
"855 355 CURVE",
"833 395 OFFCURVE",
"814 424 OFFCURVE",
"798 443 CURVE SMOOTH",
"782 461 OFFCURVE",
"717 482 OFFCURVE",
"603 507 CURVE SMOOTH",
"539 522 LINE SMOOTH",
"311 570 OFFCURVE",
"216 644 OFFCURVE",
"216 817 CURVE SMOOTH",
"216 1028 OFFCURVE",
"371 1147 OFFCURVE",
"646 1147 CURVE SMOOTH",
"782 1147 OFFCURVE",
"903 1127 OFFCURVE",
"1004 1087 CURVE"
);
}
);
width = 1238;
}
);
unicode = 0073;
},
{
glyphname = t;
lastChange = "2012-05-31 22:37:00 +0000";
layers = (
{
anchors = (
{
name = bottom;
position = "{421, 0}";
},
{
name = center;
position = "{421, 560}";
}
);
layerId = "6B6936E6-7670-4A82-900D-EAF583C971AF";
name = Regular;
paths = (
{
closed = 1;
nodes = (
"426 1398 LINE",
"416 1120 LINE",
"675 1120 LINE",
"675 977 LINE",
"416 977 LINE",
"406 489 LINE SMOOTH",
"406 306 OFFCURVE",
"443 274 OFFCURVE",
"596 274 CURVE SMOOTH",
"785 274 LINE",
"785 0 LINE",
"596 0 LINE SMOOTH",
"312 0 OFFCURVE",
"211 89 OFFCURVE",
"211 369 CURVE SMOOTH",
"221 977 LINE",
"86 977 LINE",
"86 1120 LINE",
"221 1120 LINE SMOOTH",
"231 1398 LINE"
);
}
);
width = 842;
}
);
unicode = 0074;
},
{
glyphname = u;
lastChange = "2012-06-10 13:50:11 +0000";
layers = (
{
anchors = (
{
name = ogonek;
position = "{1306, 10}";
},
{
name = top;
position = "{726, 1120}";
}
);
layerId = "6B6936E6-7670-4A82-900D-EAF583C971AF";
name = Regular;
paths = (
{
closed = 1;
nodes = (
"245 1120 LINE",
"399 1120 LINE",
"399 609 LINE",
"412 397 OFFCURVE",
"482 291 OFFCURVE",
"647 291 CURVE SMOOTH",
"846 291 OFFCURVE",
"956 426 OFFCURVE",
"969 645 CURVE",
"989 1120 LINE",
"1193 1120 LINE",
"1173 0 LINE",
"989 0 LINE",
"999 172 LINE",
"910 36 OFFCURVE",
"794 -29 OFFCURVE",
"638 -29 CURVE SMOOTH",
"381 -29 OFFCURVE",
"245 134 OFFCURVE",
"245 442 CURVE SMOOTH"
);
}
);
width = 1451;
}
);
unicode = 0075;
},
{
glyphname = v;
lastChange = "2012-05-25 01:40:42 +0000";
layers = (
{
layerId = "6B6936E6-7670-4A82-900D-EAF583C971AF";
name = Regular;
paths = (
{
closed = 1;
nodes = (
"87 1120 LINE",
"282 1120 LINE",
"632 300 LINE",
"982 1120 LINE",
"1177 1120 LINE",
"767 0 LINE",
"497 0 LINE"
);
}
);
width = 1264;
}
);
unicode = 0076;
},
{
glyphname = w;
lastChange = "2012-05-24 21:38:30 +0000";
layers = (
{
anchors = (
{
name = top;
position = "{916, 1120}";
}
);
layerId = "6B6936E6-7670-4A82-900D-EAF583C971AF";
name = Regular;
paths = (
{
closed = 1;
nodes = (
"164 1120 LINE",
"348 1120 LINE",
"578 336 LINE",
"787 750 LINE",
"1044 750 LINE",
"1254 336 LINE",
"1483 1120 LINE",
"1667 1120 LINE",
"1374 0 LINE",
"1117 0 LINE",
"916 508 LINE",
"704 0 LINE",
"457 0 LINE"
);
}
);
width = 1831;
}
);
unicode = 0077;
},
{
glyphname = x;
lastChange = "2012-05-24 21:38:30 +0000";
layers = (
{
layerId = "6B6936E6-7670-4A82-900D-EAF583C971AF";
name = Regular;
paths = (
{
closed = 1;
nodes = (
"1264 1120 LINE",
"869 525 LINE",
"1305 0 LINE",
"1008 0 LINE",
"752 390 LINE",
"476 0 LINE",
"179 0 LINE",
"624 536 LINE",
"236 1120 LINE",
"433 1120 LINE",
"740 661 LINE",
"1077 1120 LINE"
);
}
);
width = 1491;
}
);
unicode = 0078;
},
{
glyphname = y;
lastChange = "2012-05-24 21:38:30 +0000";
layers = (
{
anchors = (
{
name = top;
position = "{663, 1120}";
}
);
layerId = "6B6936E6-7670-4A82-900D-EAF583C971AF";
name = Regular;
paths = (
{
closed = 1;
nodes = (
"824 -104 LINE",
"693 -397 OFFCURVE",
"599 -446 OFFCURVE",
"434 -446 CURVE SMOOTH",
"267 -446 LINE",
"267 -202 LINE",
"395 -202 LINE SMOOTH",
"496 -202 OFFCURVE",
"538 -151 OFFCURVE",
"606 -66 CURVE",
"685 93 LINE",
"206 1120 LINE",
"401 1120 LINE",
"797 469 LINE",
"1101 1120 LINE",
"1296 1120 LINE"
);
}
);
width = 1325;
}
);
unicode = 0079;
},
{
glyphname = z;
lastChange = "2012-05-24 21:38:30 +0000";
layers = (
{
anchors = (
{
name = top;
position = "{675, 1120}";
}
);
layerId = "6B6936E6-7670-4A82-900D-EAF583C971AF";
name = Regular;
paths = (
{
closed = 1;
nodes = (
"219 1120 LINE",
"1083 1120 LINE",
"1083 952 LINE",
"451 247 LINE",
"1073 247 LINE",
"1073 0 LINE",
"174 0 LINE",
"174 268 LINE",
"886 983 LINE",
"219 983 LINE"
);
}
);
width = 1349;
}
);
unicode = 007A;
},
{
glyphname = braceleft;
lastChange = "2012-05-24 21:38:30 +0000";
layers = (
{
layerId = "6B6936E6-7670-4A82-900D-EAF583C971AF";
name = Regular;
paths = (
{
closed = 1;
nodes = (
"783 -144 LINE",
"781 -348 LINE",
"719 -347 LINE SMOOTH",
"387 -340 OFFCURVE",
"315 -265 OFFCURVE",
"307 30 CURVE",
"311 268 LINE",
"302 469 OFFCURVE",
"255 536 OFFCURVE",
"66 540 CURVE SMOOTH",
"5 541 LINE",
"7 684 LINE",
"68 683 LINE",
"259 692 OFFCURVE",
"319 743 OFFCURVE",
"323 942 CURVE SMOOTH",
"327 1182 LINE SMOOTH",
"332 1477 OFFCURVE",
"420 1535 OFFCURVE",
"752 1543 CURVE",
"814 1542 LINE",
"811 1399 LINE",
"743 1400 LINE",
"542 1391 OFFCURVE",
"516 1363 OFFCURVE",
"512 1175 CURVE SMOOTH",
"508 927 LINE SMOOTH",
"504 718 OFFCURVE",
"449 638 OFFCURVE",
"301 607 CURVE",
"449 568 OFFCURVE",
"487 479 OFFCURVE",
"496 298 CURVE",
"492 50 LINE",
"503 -85 OFFCURVE",
"527 -139 OFFCURVE",
"715 -143 CURVE SMOOTH"
);
}
);
width = 939;
}
);
unicode = 007B;
},
{
glyphname = bar;
lastChange = "2012-05-24 21:38:30 +0000";
layers = (
{
layerId = "6B6936E6-7670-4A82-900D-EAF583C971AF";
name = Regular;
paths = (
{
closed = 1;
nodes = (
"286 -483 LINE",
"96 -483 LINE",
"146 526 LINE",
"316 526 LINE"
);
},
{
closed = 1;
nodes = (
"147 633 LINE",
"186 1565 LINE",
"356 1565 LINE",
"317 633 LINE"
);
}
);
width = 482;
}
);
unicode = 007C;
},
{
glyphname = braceright;
lastChange = "2012-05-24 21:38:30 +0000";
layers = (
{
layerId = "6B6936E6-7670-4A82-900D-EAF583C971AF";
name = Regular;
paths = (
{
closed = 1;
nodes = (
"117 -180 LINE",
"187 -180 LINE SMOOTH",
"374 -180 OFFCURVE",
"412 -142 OFFCURVE",
"412 49 CURVE SMOOTH",
"412 297 LINE SMOOTH",
"412 492 OFFCURVE",
"465 576 OFFCURVE",
"613 612 CURVE",
"465 645 OFFCURVE",
"412 727 OFFCURVE",
"412 936 CURVE SMOOTH",
"412 1184 LINE SMOOTH",
"412 1373 OFFCURVE",
"374 1413 OFFCURVE",
"187 1413 CURVE SMOOTH",
"117 1413 LINE",
"117 1556 LINE",
"180 1556 LINE SMOOTH",
"512 1556 OFFCURVE",
"596 1483 OFFCURVE",
"596 1188 CURVE SMOOTH",
"596 948 LINE SMOOTH",
"596 749 OFFCURVE",
"657 684 OFFCURVE",
"846 684 CURVE SMOOTH",
"908 684 LINE",
"908 541 LINE",
"846 541 LINE SMOOTH",
"657 541 OFFCURVE",
"596 475 OFFCURVE",
"596 274 CURVE SMOOTH",
"596 35 LINE SMOOTH",
"596 -260 OFFCURVE",
"512 -334 OFFCURVE",
"180 -334 CURVE SMOOTH",
"117 -334 LINE"
);
}
);
width = 911;
}
);
unicode = 007D;
},
{
glyphname = asciitilde;
lastChange = "2012-05-24 21:38:30 +0000";
layers = (
{
layerId = "6B6936E6-7670-4A82-900D-EAF583C971AF";
name = Regular;
paths = (
{
closed = 1;
nodes = (
"1478 659 LINE",
"1338 554 OFFCURVE",
"1226 462 OFFCURVE",
"1097 462 CURVE SMOOTH",
"1024 462 OFFCURVE",
"938 492 OFFCURVE",
"841 551 CURVE",
"834 554 OFFCURVE",
"828 556 OFFCURVE",
"825 557 CURVE",
"820 559 OFFCURVE",
"813 562 OFFCURVE",
"803 565 CURVE",
"700 620 OFFCURVE",
"617 647 OFFCURVE",
"554 647 CURVE SMOOTH",
"437 647 OFFCURVE",
"327 548 OFFCURVE",
"196 437 CURVE",
"196 645 LINE",
"336 750 OFFCURVE",
"448 793 OFFCURVE",
"577 793 CURVE SMOOTH",
"650 793 OFFCURVE",
"736 773 OFFCURVE",
"834 733 CURVE SMOOTH",
"847 728 OFFCURVE",
"852 726 OFFCURVE",
"871 719 CURVE SMOOTH",
"974 678 OFFCURVE",
"1057 657 OFFCURVE",
"1120 657 CURVE SMOOTH",
"1235 657 OFFCURVE",
"1341 705 OFFCURVE",
"1478 817 CURVE"
);
}
);
width = 1641;
}
);
unicode = 007E;
},
{
glyphname = exclamdown;
lastChange = "2012-06-10 13:51:30 +0000";
layers = (
{
layerId = "6B6936E6-7670-4A82-900D-EAF583C971AF";
name = Regular;
paths = (
{
closed = 1;
nodes = (
"508 1259 LINE",
"265 1259 LINE",
"295 1533 LINE",
"478 1533 LINE"
);
},
{
closed = 1;
nodes = (
"566 4 LINE",
"303 -4 LINE",
"289 651 LINE",
"298 1008 LINE",
"500 1015 LINE",
"532 659 LINE"
);
}
);
width = 768;
}
);
unicode = 00A1;
},
{
glyphname = cent;
lastChange = "2012-05-24 21:38:30 +0000";
layers = (
{
layerId = "6B6936E6-7670-4A82-900D-EAF583C971AF";
name = Regular;
paths = (
{
closed = 1;
nodes = (
"553 1008 LINE",
"357 988 OFFCURVE",
"239 827 OFFCURVE",
"234 555 CURVE SMOOTH",
"231 362 OFFCURVE",
"344 229 OFFCURVE",
"539 202 CURVE"
);
},
{
closed = 1;
nodes = (
"933 919 LINE",
"836 976 OFFCURVE",
"747 1005 OFFCURVE",
"656 1010 CURVE",
"641 196 LINE",
"734 201 OFFCURVE",
"825 228 OFFCURVE",
"922 277 CURVE",
"917 27 LINE",
"830 -10 OFFCURVE",
"740 -32 OFFCURVE",
"637 -40 CURVE",
"632 -324 LINE",
"530 -322 LINE",
"535 -34 LINE",
"215 -2 OFFCURVE",
"34 216 OFFCURVE",
"39 559 CURVE SMOOTH",
"46 903 OFFCURVE",
"233 1112 OFFCURVE",
"556 1136 CURVE",
"561 1423 LINE",
"663 1421 LINE",
"659 1134 LINE",
"756 1127 OFFCURVE",
"846 1104 OFFCURVE",
"935 1061 CURVE"
);
}
);
width = 987;
}
);
unicode = 00A2;
},
{
glyphname = sterling;
lastChange = "2012-05-24 21:38:30 +0000";
layers = (
{
layerId = "6B6936E6-7670-4A82-900D-EAF583C971AF";
name = Regular;
paths = (
{
closed = 1;
nodes = (
"1088 1261 LINE",
"988 1317 OFFCURVE",
"898 1347 OFFCURVE",
"817 1348 CURVE",
"620 1337 OFFCURVE",
"551 1268 OFFCURVE",
"543 985 CURVE SMOOTH",
"537 770 LINE",
"928 763 LINE",
"925 640 LINE",
"534 647 LINE",
"522 212 LINE",
"1079 203 LINE",
"1073 -17 LINE",
"80 0 LINE",
"86 220 LINE",
"322 216 LINE",
"334 651 LINE",
"135 654 LINE",
"138 777 LINE",
"337 774 LINE",
"344 1012 LINE SMOOTH",
"353 1360 OFFCURVE",
"493 1500 OFFCURVE",
"804 1508 CURVE",
"884 1507 OFFCURVE",
"989 1483 OFFCURVE",
"1093 1443 CURVE"
);
}
);
width = 1316;
}
);
unicode = 00A3;
},
{
glyphname = currency;
lastChange = "2012-05-24 21:38:30 +0000";
layers = (
{
layerId = "6B6936E6-7670-4A82-900D-EAF583C971AF";
name = Regular;
paths = (
{
closed = 1;
nodes = (
"1223 1202 LINE",
"1337 1087 LINE",
"1131 881 LINE",
"1180 802 OFFCURVE",
"1204 724 OFFCURVE",
"1204 641 CURVE SMOOTH",
"1204 557 OFFCURVE",
"1179 482 OFFCURVE",
"1126 406 CURVE",
"1335 199 LINE",
"1221 86 LINE",
"1014 293 LINE",
"935 240 OFFCURVE",
"859 215 OFFCURVE",
"778 215 CURVE SMOOTH",
"701 215 OFFCURVE",
"620 240 OFFCURVE",
"539 289 CURVE",
"332 82 LINE",
"219 197 LINE",
"426 403 LINE",
"377 486 OFFCURVE",
"352 564 OFFCURVE",
"352 641 CURVE SMOOTH",
"352 726 OFFCURVE",
"377 802 OFFCURVE",
"428 877 CURVE",
"221 1083 LINE",
"336 1198 LINE",
"543 991 LINE",
"616 1043 OFFCURVE",
"693 1067 OFFCURVE",
"778 1067 CURVE SMOOTH",
"858 1067 OFFCURVE",
"935 1044 OFFCURVE",
"1016 993 CURVE"
);
},
{
closed = 1;
nodes = (
"1047 792 OFFCURVE",
"930 909 OFFCURVE",
"778 909 CURVE SMOOTH",
"629 909 OFFCURVE",
"508 792 OFFCURVE",
"508 643 CURVE SMOOTH",
"508 491 OFFCURVE",
"627 373 OFFCURVE",
"778 373 CURVE SMOOTH",
"929 373 OFFCURVE",
"1047 492 OFFCURVE",
"1047 643 CURVE SMOOTH"
);
}
);
width = 1552;
}
);
unicode = 00A4;
},
{
glyphname = yen;
lastChange = "2012-05-24 21:38:30 +0000";
layers = (
{
layerId = "6B6936E6-7670-4A82-900D-EAF583C971AF";
name = Regular;
paths = (
{
closed = 1;
nodes = (
"1189 415 LINE",
"776 415 LINE",
"796 0 LINE",
"535 0 LINE",
"565 415 LINE",
"149 415 LINE",
"149 578 LINE",
"565 578 LINE",
"565 629 LINE",
"461 784 LINE",
"129 784 LINE",
"129 907 LINE",
"393 907 LINE",
"86 1493 LINE",
"296 1493 LINE",
"665 793 LINE",
"1032 1493 LINE",
"1243 1493 LINE",
"925 907 LINE",
"1189 907 LINE",
"1189 784 LINE",
"858 784 LINE",
"774 629 LINE",
"774 578 LINE",
"1189 578 LINE"
);
}
);
width = 1329;
}
);
unicode = 00A5;
},
{
glyphname = brokenbar;
lastChange = "2012-05-24 21:38:30 +0000";
layers = (
{
layerId = "6B6936E6-7670-4A82-900D-EAF583C971AF";
name = Regular;
paths = (
{
closed = 1;
nodes = (
"445 408 LINE",
"445 -350 LINE",
"275 -350 LINE",
"275 408 LINE"
);
},
{
closed = 1;
nodes = (
"445 1432 LINE",
"445 674 LINE",
"275 674 LINE",
"275 1432 LINE"
);
}
);
width = 712;
}
);
unicode = 00A6;
},
{
glyphname = section;
lastChange = "2012-05-24 21:38:30 +0000";
layers = (
{
layerId = "6B6936E6-7670-4A82-900D-EAF583C971AF";
name = Regular;
paths = (
{
closed = 1;
nodes = (
"357 899 OFFCURVE",
"316 839 OFFCURVE",
"316 778 CURVE SMOOTH",
"316 727 OFFCURVE",
"339 680 OFFCURVE",
"386 636 CURVE SMOOTH",
"432 591 OFFCURVE",
"538 524 OFFCURVE",
"705 434 CURVE",
"789 494 OFFCURVE",
"830 555 OFFCURVE",
"830 616 CURVE SMOOTH",
"830 666 OFFCURVE",
"806 714 OFFCURVE",
"759 759 CURVE SMOOTH",
"711 804 OFFCURVE",
"605 871 OFFCURVE",
"441 960 CURVE"
);
},
{
closed = 1;
nodes = (
"891 1298 LINE",
"780 1350 OFFCURVE",
"684 1376 OFFCURVE",
"609 1376 CURVE SMOOTH",
"480 1376 OFFCURVE",
"404 1320 OFFCURVE",
"404 1225 CURVE SMOOTH",
"404 1165 OFFCURVE",
"473 1097 OFFCURVE",
"610 1020 CURVE SMOOTH",
"627 1010 OFFCURVE",
"641 1002 OFFCURVE",
"650 997 CURVE SMOOTH",
"791 918 OFFCURVE",
"883 852 OFFCURVE",
"927 801 CURVE SMOOTH",
"970 750 OFFCURVE",
"992 690 OFFCURVE",
"992 623 CURVE SMOOTH",
"992 503 OFFCURVE",
"931 411 OFFCURVE",
"807 340 CURVE",
"890 271 OFFCURVE",
"926 200 OFFCURVE",
"926 115 CURVE SMOOTH",
"926 -74 OFFCURVE",
"780 -195 OFFCURVE",
"549 -195 CURVE SMOOTH",
"452 -195 OFFCURVE",
"351 -176 OFFCURVE",
"234 -137 CURVE",
"234 77 LINE",
"350 25 OFFCURVE",
"450 -1 OFFCURVE",
"527 -1 CURVE SMOOTH",
"663 -1 OFFCURVE",
"742 28 OFFCURVE",
"742 129 CURVE SMOOTH",
"742 184 OFFCURVE",
"668 252 OFFCURVE",
"521 334 CURVE SMOOTH",
"496 348 LINE SMOOTH",
"353 428 OFFCURVE",
"261 494 OFFCURVE",
"218 545 CURVE SMOOTH",
"175 596 OFFCURVE",
"154 655 OFFCURVE",
"154 723 CURVE SMOOTH",
"154 844 OFFCURVE",
"217 941 OFFCURVE",
"338 1006 CURVE",
"259 1065 OFFCURVE",
"220 1139 OFFCURVE",
"220 1231 CURVE SMOOTH",
"220 1404 OFFCURVE",
"365 1520 OFFCURVE",
"586 1520 CURVE SMOOTH",
"683 1520 OFFCURVE",
"786 1501 OFFCURVE",
"891 1462 CURVE"
);
}
);
width = 1116;
}
);
unicode = 00A7;
},
{
glyphname = dieresis;
lastChange = "2012-05-24 21:38:30 +0000";
layers = (
{
anchors = (
{
name = _top;
position = "{593.5, 1120}";
}
);
layerId = "6B6936E6-7670-4A82-900D-EAF583C971AF";
name = Regular;
paths = (
{
closed = 1;
nodes = (
"694 1567 LINE",
"912 1567 LINE",
"912 1350 LINE",
"694 1350 LINE"
);
},
{
closed = 1;
nodes = (
"275 1567 LINE",
"493 1567 LINE",
"493 1350 LINE",
"275 1350 LINE"
);
}
);
width = 1185;
}
);
unicode = 00A8;
},
{
glyphname = copyright;
lastChange = "2012-05-24 21:38:30 +0000";
layers = (
{
layerId = "6B6936E6-7670-4A82-900D-EAF583C971AF";
name = Regular;
paths = (
{
closed = 1;
nodes = (
"1107 1485 OFFCURVE",
"1283 1411 OFFCURVE",
"1428 1266 CURVE SMOOTH",
"1573 1121 OFFCURVE",
"1645 946 OFFCURVE",
"1645 741 CURVE SMOOTH",
"1645 538 OFFCURVE",
"1573 364 OFFCURVE",
"1428 219 CURVE SMOOTH",
"1283 74 OFFCURVE",
"1107 0 OFFCURVE",
"904 0 CURVE SMOOTH",
"701 0 OFFCURVE",
"525 74 OFFCURVE",
"380 219 CURVE SMOOTH",
"235 364 OFFCURVE",
"163 538 OFFCURVE",
"163 741 CURVE SMOOTH",
"163 946 OFFCURVE",
"235 1121 OFFCURVE",
"380 1266 CURVE SMOOTH",
"525 1411 OFFCURVE",
"701 1485 OFFCURVE",
"904 1485 CURVE SMOOTH"
);
},
{
closed = 1;
nodes = (
"729 1382 OFFCURVE",
"578 1319 OFFCURVE",
"453 1194 CURVE SMOOTH",
"328 1069 OFFCURVE",
"263 914 OFFCURVE",
"263 741 CURVE SMOOTH",
"263 569 OFFCURVE",
"328 433 OFFCURVE",
"453 321 CURVE",
"578 236 OFFCURVE",
"729 182 OFFCURVE",
"904 182 CURVE SMOOTH",
"1080 182 OFFCURVE",
"1232 236 OFFCURVE",
"1357 321 CURVE",
"1481 418 OFFCURVE",
"1543 566 OFFCURVE",
"1543 741 CURVE SMOOTH",
"1543 918 OFFCURVE",
"1480 1070 OFFCURVE",
"1357 1194 CURVE SMOOTH",
"1232 1319 OFFCURVE",
"1080 1382 OFFCURVE",
"904 1382 CURVE SMOOTH"
);
},
{
closed = 1;
nodes = (
"1203 1038 LINE",
"1115 1082 OFFCURVE",
"1029 1103 OFFCURVE",
"941 1103 CURVE SMOOTH",
"742 1103 OFFCURVE",
"625 950 OFFCURVE",
"625 741 CURVE SMOOTH",
"625 609 OFFCURVE",
"744 468 OFFCURVE",
"951 468 CURVE SMOOTH",
"1036 468 OFFCURVE",
"1115 488 OFFCURVE",
"1203 533 CURVE",
"1203 346 LINE",
"1114 307 OFFCURVE",
"1022 289 OFFCURVE",
"929 289 CURVE SMOOTH",
"641 289 OFFCURVE",
"462 464 OFFCURVE",
"462 741 CURVE SMOOTH",
"462 1020 OFFCURVE",
"641 1192 OFFCURVE",
"929 1192 CURVE SMOOTH",
"1026 1192 OFFCURVE",
"1116 1173 OFFCURVE",
"1203 1137 CURVE"
);
}
);
width = 1808;
}
);
unicode = 00A9;
},
{
glyphname = ordfeminine;
lastChange = "2012-05-24 21:38:30 +0000";
layers = (
{
layerId = "6B6936E6-7670-4A82-900D-EAF583C971AF";
name = Regular;
paths = (
{
closed = 1;
nodes = (
"181 592 LINE",
"869 592 LINE",
"869 469 LINE",
"181 469 LINE"
);
},
{
closed = 1;
nodes = (
"867 717 LINE",
"718 717 LINE",
"718 829 LINE",
"659 745 OFFCURVE",
"561 698 OFFCURVE",
"437 698 CURVE SMOOTH",
"266 698 OFFCURVE",
"157 795 OFFCURVE",
"157 946 CURVE SMOOTH",
"157 1126 OFFCURVE",
"285 1219 OFFCURVE",
"536 1219 CURVE SMOOTH",
"718 1219 LINE",
"718 1223 LINE SMOOTH",
"718 1344 OFFCURVE",
"640 1405 OFFCURVE",
"484 1405 CURVE SMOOTH",
"401 1405 OFFCURVE",
"309 1382 OFFCURVE",
"218 1337 CURVE",
"218 1464 LINE",
"315 1501 OFFCURVE",
"413 1520 OFFCURVE",
"505 1520 CURVE SMOOTH",
"749 1520 OFFCURVE",
"867 1404 OFFCURVE",
"867 1165 CURVE SMOOTH"
);
},
{
closed = 1;
nodes = (
"581 1169 LINE SMOOTH",
"474 1169 OFFCURVE",
"399 1158 OFFCURVE",
"357 1136 CURVE SMOOTH",
"315 1113 OFFCURVE",
"294 1076 OFFCURVE",
"294 1023 CURVE SMOOTH",
"294 938 OFFCURVE",
"365 882 OFFCURVE",
"474 882 CURVE SMOOTH",
"613 882 OFFCURVE",
"708 988 OFFCURVE",
"708 1140 CURVE SMOOTH",
"708 1169 LINE"
);
}
);
width = 1077;
}
);
unicode = 00AA;
},
{
glyphname = guillemotleft;
lastChange = "2012-05-24 21:38:30 +0000";
layers = (
{
layerId = "6B6936E6-7670-4A82-900D-EAF583C971AF";
name = Regular;
paths = (
{
closed = 1;
nodes = (
"1013 1026 LINE",
"1007 835 LINE",
"696 577 LINE",
"988 299 LINE",
"940 70 LINE",
"486 504 LINE",
"530 624 LINE"
);
},
{
closed = 1;
nodes = (
"580 1041 LINE",
"573 850 LINE",
"263 593 LINE",
"554 314 LINE",
"506 85 LINE",
"52 519 LINE",
"96 639 LINE"
);
}
);
width = 1240;
}
);
unicode = 00AB;
},
{
glyphname = logicalnot;
lastChange = "2012-05-24 21:38:30 +0000";
layers = (
{
layerId = "6B6936E6-7670-4A82-900D-EAF583C971AF";
name = Regular;
paths = (
{
closed = 1;
nodes = (
"4 862 LINE",
"1286 862 LINE",
"1316 287 LINE",
"1068 287 LINE",
"1118 692 LINE",
"4 672 LINE"
);
}
);
width = 1577;
}
);
unicode = 00AC;
},
{
glyphname = sfthyphen;
lastChange = "2012-05-24 21:38:30 +0000";
layers = (
{
layerId = "6B6936E6-7670-4A82-900D-EAF583C971AF";
name = Regular;
paths = (
{
closed = 1;
nodes = (
"275 643 LINE",
"814 643 LINE",
"814 479 LINE",
"275 479 LINE"
);
}
);
width = 1087;
}
);
unicode = 00AD;
},
{
glyphname = registered;
lastChange = "2012-05-24 21:38:30 +0000";
layers = (
{
layerId = "6B6936E6-7670-4A82-900D-EAF583C971AF";
name = Regular;
paths = (
{
closed = 1;
nodes = (
"729 1382 OFFCURVE",
"578 1324 OFFCURVE",
"453 1208 CURVE SMOOTH",
"328 1092 OFFCURVE",
"263 950 OFFCURVE",
"263 790 CURVE SMOOTH",
"263 630 OFFCURVE",
"328 490 OFFCURVE",
"453 374 CURVE SMOOTH",
"578 258 OFFCURVE",
"729 199 OFFCURVE",
"904 199 CURVE SMOOTH",
"1080 199 OFFCURVE",
"1232 258 OFFCURVE",
"1357 374 CURVE SMOOTH",
"1481 489 OFFCURVE",
"1543 629 OFFCURVE",
"1543 790 CURVE SMOOTH",
"1543 953 OFFCURVE",
"1480 1093 OFFCURVE",
"1357 1208 CURVE SMOOTH",
"1232 1324 OFFCURVE",
"1080 1382 OFFCURVE",
"904 1382 CURVE SMOOTH"
);
},
{
closed = 1;
nodes = (
"1107 1485 OFFCURVE",
"1283 1411 OFFCURVE",
"1428 1266 CURVE SMOOTH",
"1573 1121 OFFCURVE",
"1645 946 OFFCURVE",
"1645 741 CURVE SMOOTH",
"1645 538 OFFCURVE",
"1573 364 OFFCURVE",
"1428 219 CURVE SMOOTH",
"1283 74 OFFCURVE",
"1107 0 OFFCURVE",
"904 0 CURVE SMOOTH",
"701 0 OFFCURVE",
"525 74 OFFCURVE",
"380 219 CURVE SMOOTH",
"235 364 OFFCURVE",
"163 538 OFFCURVE",
"163 741 CURVE SMOOTH",
"163 946 OFFCURVE",
"235 1121 OFFCURVE",
"380 1266 CURVE SMOOTH",
"525 1411 OFFCURVE",
"701 1485 OFFCURVE",
"904 1485 CURVE SMOOTH"
);
},
{
closed = 1;
nodes = (
"804 1121 LINE",
"804 845 LINE",
"927 845 LINE SMOOTH",
"1074 845 OFFCURVE",
"1124 882 OFFCURVE",
"1124 982 CURVE SMOOTH",
"1124 1083 OFFCURVE",
"1072 1121 OFFCURVE",
"927 1121 CURVE SMOOTH"
);
},
{
closed = 1;
nodes = (
"884 1174 LINE SMOOTH",
"1119 1174 OFFCURVE",
"1234 1095 OFFCURVE",
"1234 934 CURVE SMOOTH",
"1234 819 OFFCURVE",
"1161 742 OFFCURVE",
"1033 719 CURVE",
"1049 714 OFFCURVE",
"1068 698 OFFCURVE",
"1091 673 CURVE",
"1113 647 OFFCURVE",
"1139 610 OFFCURVE",
"1170 561 CURVE SMOOTH",
"1307 338 LINE",
"1135 338 LINE",
"1006 547 LINE SMOOTH",
"967 611 OFFCURVE",
"935 652 OFFCURVE",
"911 669 CURVE SMOOTH",
"886 686 OFFCURVE",
"869 694 OFFCURVE",
"860 694 CURVE SMOOTH",
"804 694 LINE",
"804 338 LINE",
"599 338 LINE",
"599 1174 LINE"
);
}
);
width = 1808;
}
);
unicode = 00AE;
},
{
glyphname = macron;
lastChange = "2012-05-24 21:38:30 +0000";
layers = (
{
anchors = (
{
name = _top;
position = "{574, 1120}";
}
);
layerId = "6B6936E6-7670-4A82-900D-EAF583C971AF";
name = Regular;
paths = (
{
closed = 1;
nodes = (
"275 1526 LINE",
"873 1526 LINE",
"873 1378 LINE",
"275 1378 LINE"
);
}
);
width = 1146;
}
);
unicode = 00AF;
},
{
glyphname = degree;
lastChange = "2012-05-24 21:38:30 +0000";
layers = (
{
layerId = "6B6936E6-7670-4A82-900D-EAF583C971AF";
name = Regular;
paths = (
{
closed = 1;
nodes = (
"378 1441 OFFCURVE",
"295 1364 OFFCURVE",
"295 1267 CURVE SMOOTH",
"295 1171 OFFCURVE",
"378 1096 OFFCURVE",
"485 1096 CURVE SMOOTH",
"592 1096 OFFCURVE",
"675 1171 OFFCURVE",
"675 1267 CURVE SMOOTH",
"675 1363 OFFCURVE",
"590 1441 OFFCURVE",
"485 1441 CURVE SMOOTH"
);
},
{
closed = 1;
nodes = (
"570 1520 OFFCURVE",
"653 1486 OFFCURVE",
"710 1425 CURVE",
"771 1365 OFFCURVE",
"802 1288 OFFCURVE",
"802 1200 CURVE SMOOTH",
"802 1024 OFFCURVE",
"662 885 OFFCURVE",
"483 885 CURVE SMOOTH",
"303 885 OFFCURVE",
"168 1020 OFFCURVE",
"168 1200 CURVE SMOOTH",
"168 1379 OFFCURVE",
"308 1520 OFFCURVE",
"485 1520 CURVE SMOOTH"
);
}
);
width = 965;
}
);
unicode = 00B0;
},
{
glyphname = plusminus;
lastChange = "2012-05-24 21:38:30 +0000";
layers = (
{
layerId = "6B6936E6-7670-4A82-900D-EAF583C971AF";
name = Regular;
paths = (
{
closed = 1;
nodes = (
"793 1284 LINE",
"793 897 LINE",
"1350 897 LINE",
"1350 727 LINE",
"793 727 LINE",
"793 340 LINE",
"625 340 LINE",
"625 727 LINE",
"68 727 LINE",
"68 897 LINE",
"625 897 LINE",
"625 1284 LINE"
);
},
{
closed = 1;
nodes = (
"68 190 LINE",
"1350 190 LINE",
"1350 0 LINE",
"68 0 LINE"
);
}
);
width = 1419;
}
);
unicode = 00B1;
},
{
glyphname = twosuperior;
lastChange = "2012-05-24 21:38:30 +0000";
layers = (
{
layerId = "6B6936E6-7670-4A82-900D-EAF583C971AF";
name = Regular;
paths = (
{
closed = 1;
nodes = (
"840 833 LINE",
"840 668 LINE",
"242 668 LINE",
"242 829 LINE",
"265 850 OFFCURVE",
"297 879 OFFCURVE",
"339 916 CURVE SMOOTH",
"568 1119 OFFCURVE",
"683 1201 OFFCURVE",
"683 1264 CURVE SMOOTH",
"683 1352 OFFCURVE",
"607 1411 OFFCURVE",
"494 1411 CURVE SMOOTH",
"425 1411 OFFCURVE",
"344 1388 OFFCURVE",
"248 1341 CURVE",
"248 1464 LINE",
"351 1501 OFFCURVE",
"439 1520 OFFCURVE",
"515 1520 CURVE SMOOTH",
"708 1520 OFFCURVE",
"834 1424 OFFCURVE",
"834 1280 CURVE SMOOTH",
"834 1187 OFFCURVE",
"724 1097 OFFCURVE",
"503 908 CURVE SMOOTH",
"466 876 OFFCURVE",
"437 851 OFFCURVE",
"416 833 CURVE"
);
}
);
width = 1009;
}
);
unicode = 00B2;
},
{
glyphname = threesuperior;
lastChange = "2012-05-24 21:38:30 +0000";
layers = (
{
layerId = "6B6936E6-7670-4A82-900D-EAF583C971AF";
name = Regular;
paths = (
{
closed = 1;
nodes = (
"763 1096 OFFCURVE",
"833 1020 OFFCURVE",
"833 911 CURVE SMOOTH",
"833 746 OFFCURVE",
"702 653 OFFCURVE",
"466 653 CURVE SMOOTH",
"390 653 OFFCURVE",
"307 667 OFFCURVE",
"214 694 CURVE",
"223 859 LINE",
"292 823 OFFCURVE",
"372 806 OFFCURVE",
"461 806 CURVE SMOOTH",
"606 806 OFFCURVE",
"681 818 OFFCURVE",
"681 911 CURVE SMOOTH",
"681 1010 OFFCURVE",
"606 1061 OFFCURVE",
"462 1061 CURVE SMOOTH",
"376 1061 LINE",
"376 1169 LINE",
"470 1169 LINE SMOOTH",
"595 1169 OFFCURVE",
"661 1212 OFFCURVE",
"661 1292 CURVE SMOOTH",
"661 1369 OFFCURVE",
"593 1411 OFFCURVE",
"466 1411 CURVE SMOOTH",
"413 1411 OFFCURVE",
"351 1401 OFFCURVE",
"243 1370 CURVE",
"243 1485 LINE",
"340 1508 OFFCURVE",
"426 1520 OFFCURVE",
"499 1520 CURVE SMOOTH",
"691 1520 OFFCURVE",
"812 1435 OFFCURVE",
"812 1303 CURVE SMOOTH",
"812 1211 OFFCURVE",
"749 1144 OFFCURVE",
"640 1120 CURVE"
);
}
);
width = 1008;
}
);
unicode = 00B3;
},
{
glyphname = acute;
lastChange = "2012-05-24 21:38:30 +0000";
layers = (
{
anchors = (
{
name = _top;
position = "{297.5, 1120}";
}
);
layerId = "6B6936E6-7670-4A82-900D-EAF583C971AF";
name = Regular;
paths = (
{
closed = 1;
nodes = (
"343 1638 LINE",
"564 1638 LINE",
"201 1220 LINE",
"31 1220 LINE"
);
}
);
width = 576;
}
);
unicode = 00B4;
},
{
glyphname = mu;
lastChange = "2012-05-24 21:38:30 +0000";
layers = (
{
layerId = "6B6936E6-7670-4A82-900D-EAF583C971AF";
name = Regular;
paths = (
{
closed = 1;
nodes = (
"284 -426 LINE",
"264 1120 LINE",
"448 1130 LINE",
"458 634 LINE SMOOTH",
"458 441 OFFCURVE",
"551 341 OFFCURVE",
"731 341 CURVE SMOOTH",
"928 341 OFFCURVE",
"1028 453 OFFCURVE",
"1028 677 CURVE SMOOTH",
"1038 1120 LINE",
"1222 1120 LINE",
"1212 258 LINE SMOOTH",
"1212 218 OFFCURVE",
"1249 196 OFFCURVE",
"1324 191 CURVE",
"1330 191 OFFCURVE",
"1338 193 OFFCURVE",
"1349 197 CURVE",
"1360 200 OFFCURVE",
"1374 206 OFFCURVE",
"1393 214 CURVE",
"1393 66 LINE",
"1366 51 OFFCURVE",
"1333 31 OFFCURVE",
"1296 7 CURVE SMOOTH",
"1258 -17 OFFCURVE",
"1227 -29 OFFCURVE",
"1204 -29 CURVE SMOOTH",
"1112 -29 OFFCURVE",
"1058 22 OFFCURVE",
"1038 129 CURVE",
"971 24 OFFCURVE",
"876 -29 OFFCURVE",
"745 -29 CURVE SMOOTH",
"609 -29 OFFCURVE",
"514 23 OFFCURVE",
"458 127 CURVE",
"468 -426 LINE"
);
}
);
width = 1419;
}
);
unicode = 03BC;
},
{
glyphname = paragraph;
lastChange = "2012-05-24 21:38:30 +0000";
layers = (
{
layerId = "6B6936E6-7670-4A82-900D-EAF583C971AF";
name = Regular;
paths = (
{
closed = 1;
nodes = (
"1034 1493 LINE",
"1254 -197 LINE",
"893 -197 LINE",
"903 1370 LINE",
"713 1370 LINE",
"713 -197 LINE",
"391 -197 LINE",
"461 649 LINE",
"321 672 OFFCURVE",
"121 826 OFFCURVE",
"121 1071 CURVE SMOOTH",
"121 1324 OFFCURVE",
"309 1493 OFFCURVE",
"596 1493 CURVE SMOOTH"
);
}
);
width = 1419;
}
);
unicode = 00B6;
},
{
glyphname = periodcentered;
lastChange = "2012-05-24 21:38:30 +0000";
layers = (
{
layerId = "6B6936E6-7670-4A82-900D-EAF583C971AF";
name = Regular;
paths = (
{
closed = 1;
nodes = (
"275 838 LINE",
"486 838 LINE",
"486 584 LINE",
"275 584 LINE"
);
}
);
width = 755;
}
);
unicode = 00B7;
},
{
glyphname = cedilla;
lastChange = "2012-05-24 21:38:30 +0000";
layers = (
{
anchors = (
{
name = _bottom;
position = "{269, 0}";
}
);
layerId = "6B6936E6-7670-4A82-900D-EAF583C971AF";
name = Regular;
paths = (
{
closed = 1;
nodes = (
"367 0 LINE",
"440 -83 OFFCURVE",
"476 -151 OFFCURVE",
"476 -215 CURVE SMOOTH",
"476 -334 OFFCURVE",
"395 -395 OFFCURVE",
"238 -395 CURVE SMOOTH",
"177 -395 OFFCURVE",
"119 -387 OFFCURVE",
"62 -371 CURVE",
"62 -240 LINE",
"107 -263 OFFCURVE",
"154 -272 OFFCURVE",
"217 -272 CURVE SMOOTH",
"296 -272 OFFCURVE",
"336 -239 OFFCURVE",
"336 -178 CURVE SMOOTH",
"336 -138 OFFCURVE",
"308 -81 OFFCURVE",
"248 0 CURVE"
);
}
);
width = 648;
}
);
unicode = 00B8;
},
{
glyphname = onesuperior;
lastChange = "2012-05-24 21:38:30 +0000";
layers = (
{
layerId = "6B6936E6-7670-4A82-900D-EAF583C971AF";
name = Regular;
paths = (
{
closed = 1;
nodes = (
"221 852 LINE",
"425 852 LINE",
"425 1389 LINE",
"202 1348 LINE",
"202 1464 LINE",
"432 1503 LINE",
"569 1503 LINE",
"569 852 LINE",
"774 852 LINE",
"774 668 LINE",
"221 668 LINE"
);
}
);
width = 848;
}
);
unicode = 00B9;
},
{
glyphname = ordmasculine;
lastChange = "2012-05-24 21:38:30 +0000";
layers = (
{
layerId = "6B6936E6-7670-4A82-900D-EAF583C971AF";
name = Regular;
paths = (
{
closed = 1;
nodes = (
"200 592 LINE",
"888 592 LINE",
"888 469 LINE",
"200 469 LINE"
);
},
{
closed = 1;
nodes = (
"783 1520 OFFCURVE",
"929 1363 OFFCURVE",
"929 1108 CURVE SMOOTH",
"929 853 OFFCURVE",
"783 698 OFFCURVE",
"544 698 CURVE SMOOTH",
"305 698 OFFCURVE",
"157 855 OFFCURVE",
"157 1108 CURVE SMOOTH",
"157 1363 OFFCURVE",
"305 1520 OFFCURVE",
"544 1520 CURVE SMOOTH"
);
},
{
closed = 1;
nodes = (
"404 1442 OFFCURVE",
"313 1344 OFFCURVE",
"313 1191 CURVE SMOOTH",
"313 1040 OFFCURVE",
"405 943 OFFCURVE",
"544 943 CURVE SMOOTH",
"684 943 OFFCURVE",
"774 1040 OFFCURVE",
"774 1191 CURVE SMOOTH",
"774 1346 OFFCURVE",
"685 1442 OFFCURVE",
"544 1442 CURVE SMOOTH"
);
}
);
width = 1088;
}
);
unicode = 00BA;
},
{
glyphname = guillemotright;
lastChange = "2012-05-24 21:38:30 +0000";
layers = (
{
layerId = "6B6936E6-7670-4A82-900D-EAF583C971AF";
name = Regular;
paths = (
{
closed = 1;
nodes = (
"259 1083 LINE",
"706 641 LINE",
"739 517 LINE",
"249 124 LINE",
"221 357 LINE",
"536 609 LINE",
"249 892 LINE"
);
},
{
closed = 1;
nodes = (
"692 1060 LINE",
"1139 618 LINE",
"1172 494 LINE",
"682 101 LINE",
"654 334 LINE",
"969 586 LINE",
"682 869 LINE"
);
}
);
width = 1223;
}
);
unicode = 00BB;
},
{
glyphname = onequarter;
lastChange = "2012-05-28 20:01:41 +0000";
layers = (
{
layerId = "6B6936E6-7670-4A82-900D-EAF583C971AF";
name = Regular;
paths = (
{
closed = 1;
nodes = (
"221 778 LINE",
"425 778 LINE",
"425 1389 LINE",
"202 1348 LINE",
"202 1464 LINE",
"432 1503 LINE",
"569 1503 LINE",
"569 778 LINE",
"774 778 LINE",
"774 668 LINE",
"221 668 LINE"
);
},
{
closed = 1;
nodes = (
"1483 1520 LINE",
"1643 1520 LINE",
"711 -29 LINE",
"551 -29 LINE"
);
},
{
closed = 1;
nodes = (
"1595 716 LINE",
"1286 297 LINE",
"1595 297 LINE"
);
},
{
closed = 1;
nodes = (
"1573 837 LINE",
"1739 837 LINE",
"1739 297 LINE",
"1874 297 LINE",
"1874 188 LINE",
"1739 188 LINE",
"1739 2 LINE",
"1595 2 LINE",
"1595 188 LINE",
"1181 188 LINE",
"1181 309 LINE"
);
}
);
width = 1985;
}
);
unicode = 00BC;
},
{
glyphname = onehalf;
lastChange = "2012-05-28 20:01:29 +0000";
layers = (
{
layerId = "6B6936E6-7670-4A82-900D-EAF583C971AF";
name = Regular;
paths = (
{
closed = 1;
nodes = (
"221 778 LINE",
"425 778 LINE",
"425 1389 LINE",
"202 1348 LINE",
"202 1464 LINE",
"432 1503 LINE",
"569 1503 LINE",
"569 778 LINE",
"774 778 LINE",
"774 668 LINE",
"221 668 LINE"
);
},
{
closed = 1;
nodes = (
"1433 1520 LINE",
"1593 1520 LINE",
"661 -29 LINE",
"501 -29 LINE"
);
},
{
closed = 1;
nodes = (
"1883 116 LINE",
"1883 2 LINE",
"1285 2 LINE",
"1285 112 LINE",
"1308 133 OFFCURVE",
"1340 162 OFFCURVE",
"1382 199 CURVE SMOOTH",
"1611 402 OFFCURVE",
"1726 535 OFFCURVE",
"1726 598 CURVE SMOOTH",
"1726 686 OFFCURVE",
"1650 745 OFFCURVE",
"1537 745 CURVE SMOOTH",
"1468 745 OFFCURVE",
"1387 722 OFFCURVE",
"1291 675 CURVE",
"1291 798 LINE",
"1394 835 OFFCURVE",
"1482 854 OFFCURVE",
"1558 854 CURVE SMOOTH",
"1751 854 OFFCURVE",
"1877 758 OFFCURVE",
"1877 614 CURVE SMOOTH",
"1877 521 OFFCURVE",
"1767 380 OFFCURVE",
"1546 191 CURVE SMOOTH",
"1509 159 OFFCURVE",
"1480 134 OFFCURVE",
"1459 116 CURVE"
);
}
);
width = 1985;
}
);
unicode = 00BD;
},
{
glyphname = threequarters;
lastChange = "2012-05-28 20:01:54 +0000";
layers = (
{
layerId = "6B6936E6-7670-4A82-900D-EAF583C971AF";
name = Regular;
paths = (
{
closed = 1;
nodes = (
"763 1096 OFFCURVE",
"833 1020 OFFCURVE",
"833 911 CURVE SMOOTH",
"833 746 OFFCURVE",
"702 653 OFFCURVE",
"466 653 CURVE SMOOTH",
"390 653 OFFCURVE",
"307 667 OFFCURVE",
"214 694 CURVE",
"214 815 LINE",
"283 779 OFFCURVE",
"363 762 OFFCURVE",
"452 762 CURVE SMOOTH",
"597 762 OFFCURVE",
"681 818 OFFCURVE",
"681 911 CURVE SMOOTH",
"681 1010 OFFCURVE",
"606 1061 OFFCURVE",
"462 1061 CURVE SMOOTH",
"376 1061 LINE",
"376 1169 LINE",
"470 1169 LINE SMOOTH",
"595 1169 OFFCURVE",
"661 1212 OFFCURVE",
"661 1292 CURVE SMOOTH",
"661 1369 OFFCURVE",
"593 1411 OFFCURVE",
"466 1411 CURVE SMOOTH",
"413 1411 OFFCURVE",
"351 1401 OFFCURVE",
"243 1370 CURVE",
"243 1485 LINE",
"340 1508 OFFCURVE",
"426 1520 OFFCURVE",
"499 1520 CURVE SMOOTH",
"691 1520 OFFCURVE",
"812 1435 OFFCURVE",
"812 1303 CURVE SMOOTH",
"812 1211 OFFCURVE",
"749 1144 OFFCURVE",
"640 1120 CURVE"
);
},
{
closed = 1;
nodes = (
"1523 1520 LINE",
"1683 1520 LINE",
"751 -29 LINE",
"591 -29 LINE"
);
},
{
closed = 1;
nodes = (
"1595 716 LINE",
"1286 297 LINE",
"1595 297 LINE"
);
},
{
closed = 1;
nodes = (
"1573 837 LINE",
"1739 837 LINE",
"1739 297 LINE",
"1874 297 LINE",
"1874 188 LINE",
"1739 188 LINE",
"1739 2 LINE",
"1595 2 LINE",
"1595 188 LINE",
"1181 188 LINE",
"1181 309 LINE"
);
}
);
width = 1985;
}
);
unicode = 00BE;
},
{
glyphname = questiondown;
lastChange = "2012-05-24 21:38:30 +0000";
layers = (
{
layerId = "6B6936E6-7670-4A82-900D-EAF583C971AF";
name = Regular;
paths = (
{
closed = 1;
nodes = (
"412 1092 LINE",
"572 1092 LINE",
"572 936 LINE SMOOTH",
"572 801 OFFCURVE",
"550 781 OFFCURVE",
"457 678 CURVE",
"367 590 LINE SMOOTH",
"290 519 OFFCURVE",
"258 459 OFFCURVE",
"258 394 CURVE SMOOTH",
"258 275 OFFCURVE",
"353 195 OFFCURVE",
"498 195 CURVE SMOOTH",
"602 195 OFFCURVE",
"724 243 OFFCURVE",
"852 332 CURVE",
"852 84 LINE",
"727 8 OFFCURVE",
"600 -29 OFFCURVE",
"463 -29 CURVE SMOOTH",
"218 -29 OFFCURVE",
"55 112 OFFCURVE",
"55 324 CURVE SMOOTH",
"55 425 OFFCURVE",
"98 508 OFFCURVE",
"217 623 CURVE SMOOTH",
"305 709 LINE SMOOTH",
"369 772 OFFCURVE",
"388 801 OFFCURVE",
"399 834 CURVE SMOOTH",
"408 862 OFFCURVE",
"412 897 OFFCURVE",
"412 969 CURVE SMOOTH"
);
},
{
closed = 1;
nodes = (
"608 1239 LINE",
"406 1239 LINE",
"406 1493 LINE",
"608 1493 LINE"
);
}
);
width = 948;
}
);
unicode = 00BF;
},
{
glyphname = Agrave;
lastChange = "2012-05-28 21:11:24 +0000";
layers = (
{
layerId = "6B6936E6-7670-4A82-900D-EAF583C971AF";
name = Regular;
paths = (
{
closed = 1;
nodes = (
"753 1309 LINE",
"479 481 LINE",
"1028 481 LINE"
);
},
{
closed = 1;
nodes = (
"659 1493 LINE",
"848 1493 LINE",
"1437 0 LINE",
"1147 0 LINE",
"1091 243 LINE",
"418 243 LINE",
"342 0 LINE",
"69 0 LINE"
);
},
{
closed = 1;
nodes = (
"610 1899 LINE",
"806 1635 LINE",
"653 1635 LINE",
"423 1899 LINE"
);
}
);
width = 1401;
}
);
unicode = 00C0;
},
{
glyphname = Aacute;
lastChange = "2012-05-28 21:11:36 +0000";
layers = (
{
layerId = "6B6936E6-7670-4A82-900D-EAF583C971AF";
name = Regular;
paths = (
{
closed = 1;
nodes = (
"753 1309 LINE",
"479 481 LINE",
"1028 481 LINE"
);
},
{
closed = 1;
nodes = (
"659 1493 LINE",
"848 1493 LINE",
"1437 0 LINE",
"1147 0 LINE",
"1091 243 LINE",
"418 243 LINE",
"342 0 LINE",
"69 0 LINE"
);
},
{
closed = 1;
nodes = (
"833 1899 LINE",
"1018 1899 LINE",
"790 1635 LINE",
"637 1635 LINE"
);
}
);
width = 1401;
}
);
unicode = 00C1;
},
{
glyphname = Acircumflex;
lastChange = "2012-05-28 22:27:12 +0000";
layers = (
{
layerId = "6B6936E6-7670-4A82-900D-EAF583C971AF";
name = Regular;
paths = (
{
closed = 1;
nodes = (
"753 1309 LINE",
"479 481 LINE",
"1028 481 LINE"
);
},
{
closed = 1;
nodes = (
"659 1493 LINE",
"848 1493 LINE",
"1437 0 LINE",
"1147 0 LINE",
"1091 243 LINE",
"418 243 LINE",
"342 0 LINE",
"69 0 LINE"
);
},
{
closed = 1;
nodes = (
"652 1901 LINE",
"840 1901 LINE",
"1051 1635 LINE",
"912 1635 LINE",
"746 1813 LINE",
"580 1635 LINE",
"441 1635 LINE"
);
}
);
width = 1401;
}
);
unicode = 00C2;
},
{
glyphname = Atilde;
lastChange = "2012-05-24 21:38:30 +0000";
layers = (
{
layerId = "6B6936E6-7670-4A82-900D-EAF583C971AF";
name = Regular;
paths = (
{
closed = 1;
nodes = (
"753 1309 LINE",
"479 481 LINE",
"1028 481 LINE"
);
},
{
closed = 1;
nodes = (
"659 1493 LINE",
"848 1493 LINE",
"1437 0 LINE",
"1147 0 LINE",
"1091 243 LINE",
"418 243 LINE",
"342 0 LINE",
"69 0 LINE"
);
},
{
closed = 1;
nodes = (
"671 1743 LINE SMOOTH",
"638 1762 OFFCURVE",
"619 1768 OFFCURVE",
"603 1768 CURVE SMOOTH",
"555 1768 OFFCURVE",
"527 1733 OFFCURVE",
"527 1673 CURVE SMOOTH",
"527 1667 LINE",
"402 1667 LINE",
"402 1802 OFFCURVE",
"476 1886 OFFCURVE",
"591 1886 CURVE SMOOTH",
"639 1886 OFFCURVE",
"672 1879 OFFCURVE",
"736 1843 CURVE SMOOTH",
"793 1813 LINE SMOOTH",
"824 1796 OFFCURVE",
"845 1788 OFFCURVE",
"865 1788 CURVE SMOOTH",
"908 1788 OFFCURVE",
"937 1825 OFFCURVE",
"937 1880 CURVE SMOOTH",
"937 1886 LINE",
"1062 1886 LINE",
"1059 1753 OFFCURVE",
"985 1667 OFFCURVE",
"873 1667 CURVE SMOOTH",
"828 1667 OFFCURVE",
"797 1674 OFFCURVE",
"728 1710 CURVE"
);
}
);
width = 1401;
}
);
unicode = 00C3;
},
{
glyphname = Adieresis;
lastChange = "2012-05-24 21:38:30 +0000";
layers = (
{
layerId = "6B6936E6-7670-4A82-900D-EAF583C971AF";
name = Regular;
paths = (
{
closed = 1;
nodes = (
"753 1309 LINE",
"479 481 LINE",
"1028 481 LINE"
);
},
{
closed = 1;
nodes = (
"659 1493 LINE",
"848 1493 LINE",
"1437 0 LINE",
"1147 0 LINE",
"1091 243 LINE",
"418 243 LINE",
"342 0 LINE",
"69 0 LINE"
);
},
{
closed = 1;
nodes = (
"854 1870 LINE",
"1057 1870 LINE",
"1057 1667 LINE",
"854 1667 LINE"
);
},
{
closed = 1;
nodes = (
"463 1870 LINE",
"666 1870 LINE",
"666 1667 LINE",
"463 1667 LINE"
);
}
);
width = 1401;
}
);
unicode = 00C4;
},
{
glyphname = Aring;
lastChange = "2012-05-24 21:38:30 +0000";
layers = (
{
layerId = "6B6936E6-7670-4A82-900D-EAF583C971AF";
name = Regular;
paths = (
{
closed = 1;
nodes = (
"920 1710 OFFCURVE",
"852 1778 OFFCURVE",
"768 1778 CURVE SMOOTH",
"683 1778 OFFCURVE",
"617 1713 OFFCURVE",
"617 1626 CURVE SMOOTH",
"617 1542 OFFCURVE",
"684 1475 OFFCURVE",
"768 1475 CURVE SMOOTH",
"852 1475 OFFCURVE",
"920 1542 OFFCURVE",
"920 1626 CURVE SMOOTH"
);
},
{
closed = 1;
nodes = (
"768 1294 LINE",
"496 551 LINE",
"1041 551 LINE"
);
},
{
closed = 1;
nodes = (
"617 1397 LINE",
"536 1452 OFFCURVE",
"494 1529 OFFCURVE",
"494 1626 CURVE SMOOTH",
"494 1779 OFFCURVE",
"615 1901 OFFCURVE",
"768 1901 CURVE SMOOTH",
"920 1901 OFFCURVE",
"1043 1778 OFFCURVE",
"1043 1626 CURVE SMOOTH",
"1043 1533 OFFCURVE",
"1000 1452 OFFCURVE",
"920 1397 CURVE",
"1452 0 LINE",
"1242 0 LINE",
"1106 383 LINE",
"433 383 LINE",
"297 0 LINE",
"84 0 LINE"
);
}
);
width = 1536;
}
);
unicode = 00C5;
},
{
glyphname = AE;
lastChange = "2012-05-24 21:38:30 +0000";
layers = (
{
anchors = (
{
name = top;
position = "{1087, 1493}";
}
);
layerId = "6B6936E6-7670-4A82-900D-EAF583C971AF";
name = Regular;
paths = (
{
closed = 1;
nodes = (
"1940 1493 LINE",
"1940 1323 LINE",
"1199 1323 LINE",
"1199 711 LINE",
"1910 711 LINE",
"1910 541 LINE",
"1199 541 LINE",
"1199 260 LINE",
"1959 260 LINE",
"1959 0 LINE",
"996 0 LINE",
"996 263 LINE",
"468 263 LINE",
"478 0 LINE",
"103 0 LINE",
"728 1493 LINE"
);
},
{
closed = 1;
nodes = (
"867 1335 LINE",
"537 431 LINE",
"996 431 LINE",
"996 1335 LINE"
);
}
);
width = 2173;
}
);
unicode = 00C6;
},
{
glyphname = Ccedilla;
lastChange = "2012-05-24 21:38:30 +0000";
layers = (
{
layerId = "6B6936E6-7670-4A82-900D-EAF583C971AF";
name = Regular;
paths = (
{
closed = 1;
nodes = (
"1365 1165 LINE",
"1229 1292 OFFCURVE",
"1075 1354 OFFCURVE",
"902 1354 CURVE SMOOTH",
"561 1354 OFFCURVE",
"374 1140 OFFCURVE",
"374 745 CURVE SMOOTH",
"379 396 OFFCURVE",
"561 277 OFFCURVE",
"902 277 CURVE SMOOTH",
"1075 277 OFFCURVE",
"1229 339 OFFCURVE",
"1365 466 CURVE",
"1365 115 LINE",
"1224 19 OFFCURVE",
"1066 -29 OFFCURVE",
"890 -29 CURVE SMOOTH",
"438 -29 OFFCURVE",
"161 266 OFFCURVE",
"161 745 CURVE SMOOTH",
"161 1225 OFFCURVE",
"438 1520 OFFCURVE",
"890 1520 CURVE SMOOTH",
"1069 1520 OFFCURVE",
"1226 1473 OFFCURVE",
"1365 1378 CURVE"
);
},
{
closed = 1;
nodes = (
"668 0 LINE",
"741 -83 OFFCURVE",
"777 -151 OFFCURVE",
"777 -215 CURVE SMOOTH",
"777 -334 OFFCURVE",
"696 -395 OFFCURVE",
"539 -395 CURVE SMOOTH",
"478 -395 OFFCURVE",
"420 -387 OFFCURVE",
"363 -371 CURVE",
"363 -240 LINE",
"408 -263 OFFCURVE",
"455 -272 OFFCURVE",
"518 -272 CURVE SMOOTH",
"597 -272 OFFCURVE",
"637 -239 OFFCURVE",
"637 -178 CURVE SMOOTH",
"637 -138 OFFCURVE",
"609 -81 OFFCURVE",
"549 0 CURVE"
);
}
);
width = 1430;
}
);
unicode = 00C7;
},
{
glyphname = Egrave;
lastChange = "2012-05-28 22:27:00 +0000";
layers = (
{
layerId = "6B6936E6-7670-4A82-900D-EAF583C971AF";
name = Regular;
paths = (
{
closed = 1;
nodes = (
"275 1493 LINE",
"1219 1493 LINE",
"1219 1323 LINE",
"477 1323 LINE",
"477 881 LINE",
"1188 881 LINE",
"1188 711 LINE",
"477 711 LINE",
"477 310 LINE",
"1237 310 LINE",
"1237 0 LINE",
"275 0 LINE"
);
},
{
closed = 1;
nodes = (
"650 1899 LINE",
"846 1635 LINE",
"693 1635 LINE",
"463 1899 LINE"
);
}
);
width = 1294;
}
);
unicode = 00C8;
},
{
glyphname = Eacute;
lastChange = "2012-05-28 20:05:52 +0000";
layers = (
{
layerId = "6B6936E6-7670-4A82-900D-EAF583C971AF";
name = Regular;
paths = (
{
closed = 1;
nodes = (
"275 1493 LINE",
"1219 1493 LINE",
"1219 1323 LINE",
"477 1323 LINE",
"477 881 LINE",
"1188 881 LINE",
"1188 711 LINE",
"477 711 LINE",
"477 310 LINE",
"1237 310 LINE",
"1237 0 LINE",
"275 0 LINE"
);
},
{
closed = 1;
nodes = (
"763 1899 LINE",
"948 1899 LINE",
"720 1635 LINE",
"567 1635 LINE"
);
}
);
width = 1294;
}
);
unicode = 00C9;
},
{
glyphname = Ecircumflex;
lastChange = "2012-05-24 21:38:30 +0000";
layers = (
{
layerId = "6B6936E6-7670-4A82-900D-EAF583C971AF";
name = Regular;
paths = (
{
closed = 1;
nodes = (
"275 1493 LINE",
"1219 1493 LINE",
"1219 1323 LINE",
"477 1323 LINE",
"477 881 LINE",
"1188 881 LINE",
"1188 711 LINE",
"477 711 LINE",
"477 310 LINE",
"1237 310 LINE",
"1237 0 LINE",
"275 0 LINE"
);
},
{
closed = 1;
nodes = (
"472 1901 LINE",
"660 1901 LINE",
"871 1635 LINE",
"732 1635 LINE",
"566 1813 LINE",
"400 1635 LINE",
"261 1635 LINE"
);
}
);
width = 1294;
}
);
unicode = 00CA;
},
{
glyphname = Edieresis;
lastChange = "2012-05-24 21:38:30 +0000";
layers = (
{
layerId = "6B6936E6-7670-4A82-900D-EAF583C971AF";
name = Regular;
paths = (
{
closed = 1;
nodes = (
"275 1493 LINE",
"1219 1493 LINE",
"1219 1323 LINE",
"477 1323 LINE",
"477 881 LINE",
"1188 881 LINE",
"1188 711 LINE",
"477 711 LINE",
"477 310 LINE",
"1237 310 LINE",
"1237 0 LINE",
"275 0 LINE"
);
},
{
closed = 1;
nodes = (
"824 1870 LINE",
"1027 1870 LINE",
"1027 1667 LINE",
"824 1667 LINE"
);
},
{
closed = 1;
nodes = (
"433 1870 LINE",
"636 1870 LINE",
"636 1667 LINE",
"433 1667 LINE"
);
}
);
width = 1294;
}
);
unicode = 00CB;
},
{
glyphname = Igrave;
lastChange = "2012-05-28 21:12:08 +0000";
layers = (
{
layerId = "6B6936E6-7670-4A82-900D-EAF583C971AF";
name = Regular;
paths = (
{
closed = 1;
nodes = (
"235 1493 LINE",
"427 1493 LINE",
"447 0 LINE",
"205 0 LINE"
);
},
{
closed = 1;
nodes = (
"165 1899 LINE",
"361 1635 LINE",
"208 1635 LINE",
"-22 1899 LINE"
);
}
);
width = 604;
}
);
unicode = 00CC;
},
{
glyphname = Iacute;
lastChange = "2012-05-28 21:11:54 +0000";
layers = (
{
layerId = "6B6936E6-7670-4A82-900D-EAF583C971AF";
name = Regular;
paths = (
{
closed = 1;
nodes = (
"235 1493 LINE",
"427 1493 LINE",
"447 0 LINE",
"205 0 LINE"
);
},
{
closed = 1;
nodes = (
"428 1899 LINE",
"613 1899 LINE",
"385 1635 LINE",
"232 1635 LINE"
);
}
);
width = 604;
}
);
unicode = 00CD;
},
{
glyphname = Icircumflex;
lastChange = "2012-05-28 21:12:01 +0000";
layers = (
{
layerId = "6B6936E6-7670-4A82-900D-EAF583C971AF";
name = Regular;
paths = (
{
closed = 1;
nodes = (
"235 1493 LINE",
"427 1493 LINE",
"447 0 LINE",
"205 0 LINE"
);
},
{
closed = 1;
nodes = (
"227 1901 LINE",
"415 1901 LINE",
"626 1635 LINE",
"487 1635 LINE",
"321 1813 LINE",
"155 1635 LINE",
"16 1635 LINE"
);
}
);
width = 604;
}
);
unicode = 00CE;
},
{
glyphname = Idieresis;
lastChange = "2012-05-24 21:38:30 +0000";
layers = (
{
layerId = "6B6936E6-7670-4A82-900D-EAF583C971AF";
name = Regular;
paths = (
{
closed = 1;
nodes = (
"235 1493 LINE",
"427 1493 LINE",
"447 0 LINE",
"205 0 LINE"
);
},
{
closed = 1;
nodes = (
"459 1870 LINE",
"662 1870 LINE",
"662 1667 LINE",
"459 1667 LINE"
);
},
{
closed = 1;
nodes = (
"68 1870 LINE",
"271 1870 LINE",
"271 1667 LINE",
"68 1667 LINE"
);
}
);
width = 604;
}
);
unicode = 00CF;
},
{
glyphname = Eth;
lastChange = "2012-05-28 22:35:25 +0000";
layers = (
{
layerId = "6B6936E6-7670-4A82-900D-EAF583C971AF";
name = Regular;
paths = (
{
closed = 1;
nodes = (
"335 1493 LINE",
"751 1493 LINE SMOOTH",
"1328 1493 OFFCURVE",
"1590 1260 OFFCURVE",
"1590 748 CURVE SMOOTH",
"1590 233 OFFCURVE",
"1327 0 OFFCURVE",
"751 0 CURVE SMOOTH",
"335 0 LINE",
"335 700 LINE",
"134 700 LINE",
"134 844 LINE",
"335 844 LINE"
);
},
{
closed = 1;
nodes = (
"538 1327 LINE",
"538 844 LINE",
"874 844 LINE",
"874 700 LINE",
"538 700 LINE",
"538 306 LINE",
"781 306 LINE SMOOTH",
"1193 306 OFFCURVE",
"1377 345 OFFCURVE",
"1377 748 CURVE SMOOTH",
"1377 1148 OFFCURVE",
"1193 1327 OFFCURVE",
"781 1327 CURVE SMOOTH"
);
}
);
width = 1771;
}
);
unicode = 00D0;
},
{
glyphname = Ntilde;
lastChange = "2012-05-24 21:38:30 +0000";
layers = (
{
layerId = "6B6936E6-7670-4A82-900D-EAF583C971AF";
name = Regular;
paths = (
{
closed = 1;
nodes = (
"310 1463 LINE",
"562 1463 LINE",
"1204 284 LINE",
"1234 1493 LINE",
"1420 1493 LINE",
"1420 0 LINE",
"1128 0 LINE",
"466 1249 LINE",
"526 0 LINE",
"270 0 LINE"
);
},
{
closed = 1;
nodes = (
"757 1743 LINE SMOOTH",
"724 1762 OFFCURVE",
"705 1768 OFFCURVE",
"689 1768 CURVE SMOOTH",
"641 1768 OFFCURVE",
"613 1733 OFFCURVE",
"613 1673 CURVE SMOOTH",
"613 1667 LINE",
"488 1667 LINE",
"488 1802 OFFCURVE",
"562 1886 OFFCURVE",
"677 1886 CURVE SMOOTH",
"725 1886 OFFCURVE",
"758 1879 OFFCURVE",
"822 1843 CURVE SMOOTH",
"879 1813 LINE SMOOTH",
"910 1796 OFFCURVE",
"931 1788 OFFCURVE",
"951 1788 CURVE SMOOTH",
"994 1788 OFFCURVE",
"1023 1825 OFFCURVE",
"1023 1880 CURVE SMOOTH",
"1023 1886 LINE",
"1148 1886 LINE",
"1145 1753 OFFCURVE",
"1071 1667 OFFCURVE",
"959 1667 CURVE SMOOTH",
"914 1667 OFFCURVE",
"883 1674 OFFCURVE",
"814 1710 CURVE"
);
}
);
width = 1532;
}
);
unicode = 00D1;
},
{
glyphname = Ograve;
lastChange = "2012-05-28 21:12:28 +0000";
layers = (
{
layerId = "6B6936E6-7670-4A82-900D-EAF583C971AF";
name = Regular;
paths = (
{
closed = 1;
nodes = (
"575 1356 OFFCURVE",
"389 1122 OFFCURVE",
"389 745 CURVE SMOOTH",
"389 436 OFFCURVE",
"575 355 OFFCURVE",
"868 355 CURVE SMOOTH",
"1161 355 OFFCURVE",
"1345 436 OFFCURVE",
"1345 745 CURVE SMOOTH",
"1345 1122 OFFCURVE",
"1161 1356 OFFCURVE",
"868 1356 CURVE SMOOTH"
);
},
{
closed = 1;
nodes = (
"1287 1520 OFFCURVE",
"1558 1217 OFFCURVE",
"1558 745 CURVE SMOOTH",
"1558 274 OFFCURVE",
"1287 -29 OFFCURVE",
"868 -29 CURVE SMOOTH",
"448 -29 OFFCURVE",
"176 273 OFFCURVE",
"176 745 CURVE SMOOTH",
"176 1217 OFFCURVE",
"448 1520 OFFCURVE",
"868 1520 CURVE SMOOTH"
);
},
{
closed = 1;
nodes = (
"697 1899 LINE",
"893 1635 LINE",
"740 1635 LINE",
"510 1899 LINE"
);
}
);
width = 1612;
}
);
unicode = 00D2;
},
{
glyphname = Oacute;
lastChange = "2012-05-28 21:12:17 +0000";
layers = (
{
layerId = "6B6936E6-7670-4A82-900D-EAF583C971AF";
name = Regular;
paths = (
{
closed = 1;
nodes = (
"575 1356 OFFCURVE",
"389 1122 OFFCURVE",
"389 745 CURVE SMOOTH",
"389 436 OFFCURVE",
"575 355 OFFCURVE",
"868 355 CURVE SMOOTH",
"1161 355 OFFCURVE",
"1345 436 OFFCURVE",
"1345 745 CURVE SMOOTH",
"1345 1122 OFFCURVE",
"1161 1356 OFFCURVE",
"868 1356 CURVE SMOOTH"
);
},
{
closed = 1;
nodes = (
"1287 1520 OFFCURVE",
"1558 1217 OFFCURVE",
"1558 745 CURVE SMOOTH",
"1558 274 OFFCURVE",
"1287 -29 OFFCURVE",
"868 -29 CURVE SMOOTH",
"448 -29 OFFCURVE",
"176 273 OFFCURVE",
"176 745 CURVE SMOOTH",
"176 1217 OFFCURVE",
"448 1520 OFFCURVE",
"868 1520 CURVE SMOOTH"
);
},
{
closed = 1;
nodes = (
"870 1899 LINE",
"1055 1899 LINE",
"827 1635 LINE",
"674 1635 LINE"
);
}
);
width = 1612;
}
);
unicode = 00D3;
},
{
glyphname = Ocircumflex;
lastChange = "2012-05-28 21:12:22 +0000";
layers = (
{
layerId = "6B6936E6-7670-4A82-900D-EAF583C971AF";
name = Regular;
paths = (
{
closed = 1;
nodes = (
"575 1356 OFFCURVE",
"389 1122 OFFCURVE",
"389 745 CURVE SMOOTH",
"389 436 OFFCURVE",
"575 355 OFFCURVE",
"868 355 CURVE SMOOTH",
"1161 355 OFFCURVE",
"1345 436 OFFCURVE",
"1345 745 CURVE SMOOTH",
"1345 1122 OFFCURVE",
"1161 1356 OFFCURVE",
"868 1356 CURVE SMOOTH"
);
},
{
closed = 1;
nodes = (
"1287 1520 OFFCURVE",
"1558 1217 OFFCURVE",
"1558 745 CURVE SMOOTH",
"1558 274 OFFCURVE",
"1287 -29 OFFCURVE",
"868 -29 CURVE SMOOTH",
"448 -29 OFFCURVE",
"176 273 OFFCURVE",
"176 745 CURVE SMOOTH",
"176 1217 OFFCURVE",
"448 1520 OFFCURVE",
"868 1520 CURVE SMOOTH"
);
},
{
closed = 1;
nodes = (
"719 1901 LINE",
"907 1901 LINE",
"1118 1635 LINE",
"979 1635 LINE",
"813 1813 LINE",
"647 1635 LINE",
"508 1635 LINE"
);
}
);
width = 1612;
}
);
unicode = 00D4;
},
{
glyphname = Otilde;
lastChange = "2012-05-24 21:38:30 +0000";
layers = (
{
layerId = "6B6936E6-7670-4A82-900D-EAF583C971AF";
name = Regular;
paths = (
{
closed = 1;
nodes = (
"575 1356 OFFCURVE",
"389 1122 OFFCURVE",
"389 745 CURVE SMOOTH",
"389 436 OFFCURVE",
"575 355 OFFCURVE",
"868 355 CURVE SMOOTH",
"1161 355 OFFCURVE",
"1345 436 OFFCURVE",
"1345 745 CURVE SMOOTH",
"1345 1122 OFFCURVE",
"1161 1356 OFFCURVE",
"868 1356 CURVE SMOOTH"
);
},
{
closed = 1;
nodes = (
"1287 1520 OFFCURVE",
"1558 1217 OFFCURVE",
"1558 745 CURVE SMOOTH",
"1558 274 OFFCURVE",
"1287 -29 OFFCURVE",
"868 -29 CURVE SMOOTH",
"448 -29 OFFCURVE",
"176 273 OFFCURVE",
"176 745 CURVE SMOOTH",
"176 1217 OFFCURVE",
"448 1520 OFFCURVE",
"868 1520 CURVE SMOOTH"
);
},
{
closed = 1;
nodes = (
"778 1743 LINE SMOOTH",
"745 1762 OFFCURVE",
"726 1768 OFFCURVE",
"710 1768 CURVE SMOOTH",
"662 1768 OFFCURVE",
"634 1733 OFFCURVE",
"634 1673 CURVE SMOOTH",
"634 1667 LINE",
"509 1667 LINE",
"509 1802 OFFCURVE",
"583 1886 OFFCURVE",
"698 1886 CURVE SMOOTH",
"746 1886 OFFCURVE",
"779 1879 OFFCURVE",
"843 1843 CURVE SMOOTH",
"900 1813 LINE SMOOTH",
"931 1796 OFFCURVE",
"952 1788 OFFCURVE",
"972 1788 CURVE SMOOTH",
"1015 1788 OFFCURVE",
"1044 1825 OFFCURVE",
"1044 1880 CURVE SMOOTH",
"1044 1886 LINE",
"1169 1886 LINE",
"1166 1753 OFFCURVE",
"1092 1667 OFFCURVE",
"980 1667 CURVE SMOOTH",
"935 1667 OFFCURVE",
"904 1674 OFFCURVE",
"835 1710 CURVE"
);
}
);
width = 1612;
}
);
unicode = 00D5;
},
{
glyphname = Odieresis;
lastChange = "2012-05-24 21:38:30 +0000";
layers = (
{
layerId = "6B6936E6-7670-4A82-900D-EAF583C971AF";
name = Regular;
paths = (
{
closed = 1;
nodes = (
"575 1356 OFFCURVE",
"389 1122 OFFCURVE",
"389 745 CURVE SMOOTH",
"389 436 OFFCURVE",
"575 355 OFFCURVE",
"868 355 CURVE SMOOTH",
"1161 355 OFFCURVE",
"1345 436 OFFCURVE",
"1345 745 CURVE SMOOTH",
"1345 1122 OFFCURVE",
"1161 1356 OFFCURVE",
"868 1356 CURVE SMOOTH"
);
},
{
closed = 1;
nodes = (
"1287 1520 OFFCURVE",
"1558 1217 OFFCURVE",
"1558 745 CURVE SMOOTH",
"1558 274 OFFCURVE",
"1287 -29 OFFCURVE",
"868 -29 CURVE SMOOTH",
"448 -29 OFFCURVE",
"176 273 OFFCURVE",
"176 745 CURVE SMOOTH",
"176 1217 OFFCURVE",
"448 1520 OFFCURVE",
"868 1520 CURVE SMOOTH"
);
},
{
closed = 1;
nodes = (
"961 1870 LINE",
"1164 1870 LINE",
"1164 1667 LINE",
"961 1667 LINE"
);
},
{
closed = 1;
nodes = (
"570 1870 LINE",
"773 1870 LINE",
"773 1667 LINE",
"570 1667 LINE"
);
}
);
width = 1612;
}
);
unicode = 00D6;
},
{
glyphname = multiply;
lastChange = "2012-05-24 21:38:30 +0000";
layers = (
{
layerId = "6B6936E6-7670-4A82-900D-EAF583C971AF";
name = Regular;
paths = (
{
closed = 1;
nodes = (
"1259 1050 LINE",
"872 661 LINE",
"1249 284 LINE",
"1080 113 LINE",
"701 492 LINE",
"322 113 LINE",
"154 284 LINE",
"530 661 LINE",
"174 1020 LINE",
"342 1191 LINE",
"701 832 LINE",
"1090 1221 LINE"
);
}
);
width = 1455;
}
);
unicode = 00D7;
},
{
glyphname = Oslash;
lastChange = "2012-05-24 21:38:30 +0000";
layers = (
{
anchors = (
{
name = top;
position = "{885, 1493}";
}
);
layerId = "6B6936E6-7670-4A82-900D-EAF583C971AF";
name = Regular;
paths = (
{
closed = 1;
nodes = (
"619 333 LINE",
"702 274 OFFCURVE",
"770 282 OFFCURVE",
"897 282 CURVE",
"1190 322 OFFCURVE",
"1311 427 OFFCURVE",
"1364 804 CURVE",
"1364 953 OFFCURVE",
"1338 1017 OFFCURVE",
"1286 1112 CURVE"
);
},
{
closed = 1;
nodes = (
"1204 1225 LINE",
"1123 1350 OFFCURVE",
"1024 1383 OFFCURVE",
"857 1396 CURVE",
"564 1396 OFFCURVE",
"378 1162 OFFCURVE",
"378 785 CURVE SMOOTH",
"378 636 OFFCURVE",
"447 528 OFFCURVE",
"526 437 CURVE"
);
},
{
closed = 1;
nodes = (
"352 219 LINE",
"248 355 OFFCURVE",
"195 532 OFFCURVE",
"195 745 CURVE SMOOTH",
"195 1217 OFFCURVE",
"467 1520 OFFCURVE",
"887 1520 CURVE SMOOTH",
"1060 1520 OFFCURVE",
"1209 1468 OFFCURVE",
"1325 1368 CURVE",
"1487 1559 LINE",
"1589 1470 LINE",
"1419 1272 LINE",
"1523 1135 OFFCURVE",
"1577 956 OFFCURVE",
"1577 745 CURVE SMOOTH",
"1577 274 OFFCURVE",
"1306 -29 OFFCURVE",
"887 -29 CURVE SMOOTH",
"716 -29 OFFCURVE",
"568 21 OFFCURVE",
"447 121 CURVE",
"285 -70 LINE",
"182 18 LINE"
);
}
);
width = 1770;
}
);
unicode = 00D8;
},
{
glyphname = Ugrave;
lastChange = "2012-05-28 21:12:48 +0000";
layers = (
{
layerId = "6B6936E6-7670-4A82-900D-EAF583C971AF";
name = Regular;
paths = (
{
closed = 1;
nodes = (
"242 1493 LINE",
"445 1493 LINE",
"445 726 LINE SMOOTH",
"445 406 OFFCURVE",
"554 275 OFFCURVE",
"814 275 CURVE SMOOTH",
"1073 275 OFFCURVE",
"1182 406 OFFCURVE",
"1182 726 CURVE SMOOTH",
"1182 1493 LINE",
"1385 1493 LINE",
"1385 561 LINE SMOOTH",
"1385 172 OFFCURVE",
"1190 -29 OFFCURVE",
"814 -29 CURVE SMOOTH",
"437 -29 OFFCURVE",
"242 172 OFFCURVE",
"242 561 CURVE SMOOTH"
);
},
{
closed = 1;
nodes = (
"660 1899 LINE",
"856 1635 LINE",
"703 1635 LINE",
"473 1899 LINE"
);
}
);
width = 1499;
}
);
unicode = 00D9;
},
{
glyphname = Uacute;
lastChange = "2012-05-28 21:12:35 +0000";
layers = (
{
layerId = "6B6936E6-7670-4A82-900D-EAF583C971AF";
name = Regular;
paths = (
{
closed = 1;
nodes = (
"242 1493 LINE",
"445 1493 LINE",
"445 726 LINE SMOOTH",
"445 406 OFFCURVE",
"554 275 OFFCURVE",
"814 275 CURVE SMOOTH",
"1073 275 OFFCURVE",
"1182 406 OFFCURVE",
"1182 726 CURVE SMOOTH",
"1182 1493 LINE",
"1385 1493 LINE",
"1385 561 LINE SMOOTH",
"1385 172 OFFCURVE",
"1190 -29 OFFCURVE",
"814 -29 CURVE SMOOTH",
"437 -29 OFFCURVE",
"242 172 OFFCURVE",
"242 561 CURVE SMOOTH"
);
},
{
closed = 1;
nodes = (
"793 1899 LINE",
"978 1899 LINE",
"750 1635 LINE",
"597 1635 LINE"
);
}
);
width = 1499;
}
);
unicode = 00DA;
},
{
glyphname = Ucircumflex;
lastChange = "2012-05-28 21:12:41 +0000";
layers = (
{
layerId = "6B6936E6-7670-4A82-900D-EAF583C971AF";
name = Regular;
paths = (
{
closed = 1;
nodes = (
"242 1493 LINE",
"445 1493 LINE",
"445 726 LINE SMOOTH",
"445 406 OFFCURVE",
"554 275 OFFCURVE",
"814 275 CURVE SMOOTH",
"1073 275 OFFCURVE",
"1182 406 OFFCURVE",
"1182 726 CURVE SMOOTH",
"1182 1493 LINE",
"1385 1493 LINE",
"1385 561 LINE SMOOTH",
"1385 172 OFFCURVE",
"1190 -29 OFFCURVE",
"814 -29 CURVE SMOOTH",
"437 -29 OFFCURVE",
"242 172 OFFCURVE",
"242 561 CURVE SMOOTH"
);
},
{
closed = 1;
nodes = (
"652 1901 LINE",
"840 1901 LINE",
"1051 1635 LINE",
"912 1635 LINE",
"746 1813 LINE",
"580 1635 LINE",
"441 1635 LINE"
);
}
);
width = 1499;
}
);
unicode = 00DB;
},
{
glyphname = Udieresis;
lastChange = "2012-05-24 21:38:30 +0000";
layers = (
{
layerId = "6B6936E6-7670-4A82-900D-EAF583C971AF";
name = Regular;
paths = (
{
closed = 1;
nodes = (
"242 1493 LINE",
"445 1493 LINE",
"445 726 LINE SMOOTH",
"445 406 OFFCURVE",
"554 275 OFFCURVE",
"814 275 CURVE SMOOTH",
"1073 275 OFFCURVE",
"1182 406 OFFCURVE",
"1182 726 CURVE SMOOTH",
"1182 1493 LINE",
"1385 1493 LINE",
"1385 561 LINE SMOOTH",
"1385 172 OFFCURVE",
"1190 -29 OFFCURVE",
"814 -29 CURVE SMOOTH",
"437 -29 OFFCURVE",
"242 172 OFFCURVE",
"242 561 CURVE SMOOTH"
);
},
{
closed = 1;
nodes = (
"904 1870 LINE",
"1107 1870 LINE",
"1107 1667 LINE",
"904 1667 LINE"
);
},
{
closed = 1;
nodes = (
"513 1870 LINE",
"716 1870 LINE",
"716 1667 LINE",
"513 1667 LINE"
);
}
);
width = 1499;
}
);
unicode = 00DC;
},
{
glyphname = Yacute;
lastChange = "2012-05-24 21:38:30 +0000";
layers = (
{
layerId = "6B6936E6-7670-4A82-900D-EAF583C971AF";
name = Regular;
paths = (
{
closed = 1;
nodes = (
"64 1493 LINE",
"281 1493 LINE",
"695 729 LINE",
"1106 1493 LINE",
"1323 1493 LINE",
"825 511 LINE",
"825 0 LINE",
"552 0 LINE",
"552 511 LINE"
);
},
{
closed = 1;
nodes = (
"360 1899 LINE",
"545 1899 LINE",
"317 1635 LINE",
"164 1635 LINE"
);
}
);
width = 1251;
}
);
unicode = 00DD;
},
{
glyphname = Thorn;
lastChange = "2012-05-24 21:38:30 +0000";
layers = (
{
layerId = "6B6936E6-7670-4A82-900D-EAF583C971AF";
name = Regular;
paths = (
{
closed = 1;
nodes = (
"275 1493 LINE",
"477 1493 LINE",
"477 1229 LINE",
"731 1229 LINE SMOOTH",
"1066 1229 OFFCURVE",
"1239 1077 OFFCURVE",
"1239 784 CURVE SMOOTH",
"1239 491 OFFCURVE",
"1066 338 OFFCURVE",
"731 338 CURVE SMOOTH",
"477 338 LINE",
"477 0 LINE",
"275 0 LINE"
);
},
{
closed = 1;
nodes = (
"477 1063 LINE",
"477 504 LINE",
"731 504 LINE SMOOTH",
"919 504 OFFCURVE",
"1026 605 OFFCURVE",
"1026 784 CURVE SMOOTH",
"1026 963 OFFCURVE",
"920 1063 OFFCURVE",
"731 1063 CURVE SMOOTH"
);
}
);
width = 1242;
}
);
unicode = 00DE;
},
{
glyphname = germandbls;
lastChange = "2012-05-24 21:38:30 +0000";
layers = (
{
layerId = "6B6936E6-7670-4A82-900D-EAF583C971AF";
name = Regular;
paths = (
{
closed = 1;
nodes = (
"273 1137 LINE",
"273 1404 OFFCURVE",
"439 1556 OFFCURVE",
"730 1556 CURVE SMOOTH",
"1007 1556 OFFCURVE",
"1156 1399 OFFCURVE",
"1160 1100 CURVE",
"959 1089 OFFCURVE",
"841 1009 OFFCURVE",
"841 881 CURVE SMOOTH",
"841 818 OFFCURVE",
"877 767 OFFCURVE",
"964 711 CURVE SMOOTH",
"1021 674 LINE SMOOTH",
"1242 533 OFFCURVE",
"1283 459 OFFCURVE",
"1283 326 CURVE SMOOTH",
"1283 97 OFFCURVE",
"1128 -29 OFFCURVE",
"847 -29 CURVE SMOOTH",
"762 -29 OFFCURVE",
"671 -12 OFFCURVE",
"574 20 CURVE",
"574 264 LINE",
"681 224 OFFCURVE",
"772 205 OFFCURVE",
"859 205 CURVE SMOOTH",
"1014 205 OFFCURVE",
"1095 250 OFFCURVE",
"1095 331 CURVE SMOOTH",
"1095 360 OFFCURVE",
"1085 388 OFFCURVE",
"1066 416 CURVE SMOOTH",
"1046 444 OFFCURVE",
"1002 479 OFFCURVE",
"935 520 CURVE",
"853 575 LINE",
"792 654 OFFCURVE",
"720 739 OFFCURVE",
"720 860 CURVE SMOOTH",
"720 1029 OFFCURVE",
"780 1149 OFFCURVE",
"1048 1188 CURVE",
"944 1432 OFFCURVE",
"877 1443 OFFCURVE",
"726 1443 CURVE SMOOTH",
"553 1443 OFFCURVE",
"467 1361 OFFCURVE",
"440 1133 CURVE",
"490 0 LINE",
"213 0 LINE"
);
}
);
width = 1422;
}
);
unicode = 00DF;
},
{
glyphname = agrave;
lastChange = "2012-05-28 20:06:12 +0000";
layers = (
{
layerId = "6B6936E6-7670-4A82-900D-EAF583C971AF";
name = Regular;
paths = (
{
closed = 1;
nodes = (
"672 572 LINE SMOOTH",
"403 572 OFFCURVE",
"334 515 OFFCURVE",
"333 376 CURVE",
"353 263 OFFCURVE",
"449 251 OFFCURVE",
"582 251 CURVE SMOOTH",
"767 251 OFFCURVE",
"838 291 OFFCURVE",
"838 531 CURVE SMOOTH",
"838 572 LINE"
);
},
{
closed = 1;
nodes = (
"1125 0 LINE",
"941 0 LINE",
"941 160 LINE",
"857 37 OFFCURVE",
"735 -29 OFFCURVE",
"554 -29 CURVE SMOOTH",
"325 -29 OFFCURVE",
"179 110 OFFCURVE",
"179 326 CURVE SMOOTH",
"179 578 OFFCURVE",
"348 707 OFFCURVE",
"683 707 CURVE SMOOTH",
"941 707 LINE",
"941 725 LINE SMOOTH",
"941 894 OFFCURVE",
"838 998 OFFCURVE",
"623 1011 CURVE",
"495 1011 OFFCURVE",
"373 980 OFFCURVE",
"261 919 CURVE",
"261 1069 LINE",
"396 1121 OFFCURVE",
"522 1147 OFFCURVE",
"642 1147 CURVE SMOOTH",
"966 1147 OFFCURVE",
"1125 980 OFFCURVE",
"1125 639 CURVE SMOOTH"
);
},
{
closed = 1;
nodes = (
"538 1638 LINE",
"820 1264 LINE",
"547 1264 LINE",
"341 1638 LINE"
);
}
);
width = 1255;
}
);
unicode = 00E0;
},
{
glyphname = aacute;
lastChange = "2012-05-28 20:06:03 +0000";
layers = (
{
layerId = "6B6936E6-7670-4A82-900D-EAF583C971AF";
name = Regular;
paths = (
{
closed = 1;
nodes = (
"672 572 LINE SMOOTH",
"403 572 OFFCURVE",
"334 515 OFFCURVE",
"333 376 CURVE",
"353 263 OFFCURVE",
"449 251 OFFCURVE",
"582 251 CURVE SMOOTH",
"767 251 OFFCURVE",
"838 291 OFFCURVE",
"838 531 CURVE SMOOTH",
"838 572 LINE"
);
},
{
closed = 1;
nodes = (
"1125 0 LINE",
"941 0 LINE",
"941 160 LINE",
"857 37 OFFCURVE",
"735 -29 OFFCURVE",
"554 -29 CURVE SMOOTH",
"325 -29 OFFCURVE",
"179 110 OFFCURVE",
"179 326 CURVE SMOOTH",
"179 578 OFFCURVE",
"348 707 OFFCURVE",
"683 707 CURVE SMOOTH",
"941 707 LINE",
"941 725 LINE SMOOTH",
"941 894 OFFCURVE",
"838 998 OFFCURVE",
"623 1011 CURVE",
"495 1011 OFFCURVE",
"373 980 OFFCURVE",
"261 919 CURVE",
"261 1069 LINE",
"396 1121 OFFCURVE",
"522 1147 OFFCURVE",
"642 1147 CURVE SMOOTH",
"966 1147 OFFCURVE",
"1125 980 OFFCURVE",
"1125 639 CURVE SMOOTH"
);
},
{
closed = 1;
nodes = (
"705 1638 LINE",
"926 1638 LINE",
"563 1220 LINE",
"393 1220 LINE"
);
}
);
width = 1255;
}
);
unicode = 00E1;
},
{
glyphname = acircumflex;
lastChange = "2012-05-28 20:06:25 +0000";
layers = (
{
layerId = "6B6936E6-7670-4A82-900D-EAF583C971AF";
name = Regular;
paths = (
{
closed = 1;
nodes = (
"672 572 LINE SMOOTH",
"403 572 OFFCURVE",
"334 515 OFFCURVE",
"333 376 CURVE",
"353 263 OFFCURVE",
"449 251 OFFCURVE",
"582 251 CURVE SMOOTH",
"767 251 OFFCURVE",
"838 291 OFFCURVE",
"838 531 CURVE SMOOTH",
"838 572 LINE"
);
},
{
closed = 1;
nodes = (
"1125 0 LINE",
"941 0 LINE",
"941 160 LINE",
"857 37 OFFCURVE",
"735 -29 OFFCURVE",
"554 -29 CURVE SMOOTH",
"325 -29 OFFCURVE",
"179 110 OFFCURVE",
"179 326 CURVE SMOOTH",
"179 578 OFFCURVE",
"348 707 OFFCURVE",
"683 707 CURVE SMOOTH",
"941 707 LINE",
"941 725 LINE SMOOTH",
"941 894 OFFCURVE",
"838 998 OFFCURVE",
"623 1011 CURVE",
"495 1011 OFFCURVE",
"373 980 OFFCURVE",
"261 919 CURVE",
"261 1069 LINE",
"396 1121 OFFCURVE",
"522 1147 OFFCURVE",
"642 1147 CURVE SMOOTH",
"966 1147 OFFCURVE",
"1125 980 OFFCURVE",
"1125 639 CURVE SMOOTH"
);
},
{
closed = 1;
nodes = (
"535 1638 LINE",
"683 1638 LINE",
"928 1262 LINE",
"789 1262 LINE",
"609 1507 LINE",
"429 1262 LINE",
"290 1262 LINE"
);
}
);
width = 1255;
}
);
unicode = 00E2;
},
{
glyphname = atilde;
lastChange = "2012-05-24 21:38:30 +0000";
layers = (
{
layerId = "6B6936E6-7670-4A82-900D-EAF583C971AF";
name = Regular;
paths = (
{
closed = 1;
nodes = (
"672 572 LINE SMOOTH",
"403 572 OFFCURVE",
"334 515 OFFCURVE",
"333 376 CURVE",
"353 263 OFFCURVE",
"449 251 OFFCURVE",
"582 251 CURVE SMOOTH",
"767 251 OFFCURVE",
"838 291 OFFCURVE",
"838 531 CURVE SMOOTH",
"838 572 LINE"
);
},
{
closed = 1;
nodes = (
"1125 0 LINE",
"941 0 LINE",
"941 160 LINE",
"857 37 OFFCURVE",
"735 -29 OFFCURVE",
"554 -29 CURVE SMOOTH",
"325 -29 OFFCURVE",
"179 110 OFFCURVE",
"179 326 CURVE SMOOTH",
"179 578 OFFCURVE",
"348 707 OFFCURVE",
"683 707 CURVE SMOOTH",
"941 707 LINE",
"941 725 LINE SMOOTH",
"941 894 OFFCURVE",
"838 998 OFFCURVE",
"623 1011 CURVE",
"495 1011 OFFCURVE",
"373 980 OFFCURVE",
"261 919 CURVE",
"261 1069 LINE",
"396 1121 OFFCURVE",
"522 1147 OFFCURVE",
"642 1147 CURVE SMOOTH",
"966 1147 OFFCURVE",
"1125 980 OFFCURVE",
"1125 639 CURVE SMOOTH"
);
},
{
closed = 1;
nodes = (
"565 1425 LINE SMOOTH",
"536 1452 OFFCURVE",
"514 1464 OFFCURVE",
"497 1464 CURVE SMOOTH",
"472 1464 OFFCURVE",
"453 1452 OFFCURVE",
"441 1428 CURVE SMOOTH",
"429 1403 OFFCURVE",
"422 1364 OFFCURVE",
"421 1309 CURVE",
"296 1309 LINE",
"299 1489 OFFCURVE",
"370 1591 OFFCURVE",
"491 1591 CURVE SMOOTH",
"542 1591 OFFCURVE",
"581 1574 OFFCURVE",
"630 1530 CURVE",
"687 1475 LINE SMOOTH",
"716 1448 OFFCURVE",
"738 1436 OFFCURVE",
"755 1436 CURVE SMOOTH",
"780 1436 OFFCURVE",
"799 1448 OFFCURVE",
"811 1473 CURVE SMOOTH",
"823 1497 OFFCURVE",
"830 1536 OFFCURVE",
"831 1591 CURVE",
"956 1591 LINE",
"953 1411 OFFCURVE",
"882 1309 OFFCURVE",
"761 1309 CURVE SMOOTH",
"710 1309 OFFCURVE",
"671 1326 OFFCURVE",
"622 1370 CURVE"
);
}
);
width = 1255;
}
);
unicode = 00E3;
},
{
glyphname = adieresis;
lastChange = "2012-05-24 21:38:30 +0000";
layers = (
{
layerId = "6B6936E6-7670-4A82-900D-EAF583C971AF";
name = Regular;
paths = (
{
closed = 1;
nodes = (
"672 572 LINE SMOOTH",
"403 572 OFFCURVE",
"334 515 OFFCURVE",
"333 376 CURVE",
"353 263 OFFCURVE",
"449 251 OFFCURVE",
"582 251 CURVE SMOOTH",
"767 251 OFFCURVE",
"838 291 OFFCURVE",
"838 531 CURVE SMOOTH",
"838 572 LINE"
);
},
{
closed = 1;
nodes = (
"1125 0 LINE",
"941 0 LINE",
"941 160 LINE",
"857 37 OFFCURVE",
"735 -29 OFFCURVE",
"554 -29 CURVE SMOOTH",
"325 -29 OFFCURVE",
"179 110 OFFCURVE",
"179 326 CURVE SMOOTH",
"179 578 OFFCURVE",
"348 707 OFFCURVE",
"683 707 CURVE SMOOTH",
"941 707 LINE",
"941 725 LINE SMOOTH",
"941 894 OFFCURVE",
"838 998 OFFCURVE",
"623 1011 CURVE",
"495 1011 OFFCURVE",
"373 980 OFFCURVE",
"261 919 CURVE",
"261 1069 LINE",
"396 1121 OFFCURVE",
"522 1147 OFFCURVE",
"642 1147 CURVE SMOOTH",
"966 1147 OFFCURVE",
"1125 980 OFFCURVE",
"1125 639 CURVE SMOOTH"
);
},
{
closed = 1;
nodes = (
"776 1567 LINE",
"994 1567 LINE",
"994 1350 LINE",
"776 1350 LINE"
);
},
{
closed = 1;
nodes = (
"357 1567 LINE",
"575 1567 LINE",
"575 1350 LINE",
"357 1350 LINE"
);
}
);
width = 1255;
}
);
unicode = 00E4;
},
{
glyphname = aring;
lastChange = "2012-05-28 20:06:40 +0000";
layers = (
{
layerId = "6B6936E6-7670-4A82-900D-EAF583C971AF";
name = Regular;
paths = (
{
closed = 1;
nodes = (
"672 572 LINE SMOOTH",
"403 572 OFFCURVE",
"334 515 OFFCURVE",
"333 376 CURVE",
"353 263 OFFCURVE",
"449 251 OFFCURVE",
"582 251 CURVE SMOOTH",
"767 251 OFFCURVE",
"838 291 OFFCURVE",
"838 531 CURVE SMOOTH",
"838 572 LINE"
);
},
{
closed = 1;
nodes = (
"1125 0 LINE",
"941 0 LINE",
"941 160 LINE",
"857 37 OFFCURVE",
"735 -29 OFFCURVE",
"554 -29 CURVE SMOOTH",
"325 -29 OFFCURVE",
"179 110 OFFCURVE",
"179 326 CURVE SMOOTH",
"179 578 OFFCURVE",
"348 707 OFFCURVE",
"683 707 CURVE SMOOTH",
"941 707 LINE",
"941 725 LINE SMOOTH",
"941 894 OFFCURVE",
"838 998 OFFCURVE",
"623 1011 CURVE",
"495 1011 OFFCURVE",
"373 980 OFFCURVE",
"261 919 CURVE",
"261 1069 LINE",
"396 1121 OFFCURVE",
"522 1147 OFFCURVE",
"642 1147 CURVE SMOOTH",
"966 1147 OFFCURVE",
"1125 980 OFFCURVE",
"1125 639 CURVE SMOOTH"
);
},
{
closed = 1;
nodes = (
"774 1608 OFFCURVE",
"707 1675 OFFCURVE",
"622 1675 CURVE SMOOTH",
"535 1675 OFFCURVE",
"470 1609 OFFCURVE",
"470 1524 CURVE SMOOTH",
"470 1437 OFFCURVE",
"535 1372 OFFCURVE",
"622 1372 CURVE SMOOTH",
"707 1372 OFFCURVE",
"774 1439 OFFCURVE",
"774 1524 CURVE SMOOTH"
);
},
{
closed = 1;
nodes = (
"896 1371 OFFCURVE",
"775 1249 OFFCURVE",
"622 1249 CURVE SMOOTH",
"469 1249 OFFCURVE",
"348 1371 OFFCURVE",
"348 1524 CURVE SMOOTH",
"348 1677 OFFCURVE",
"469 1798 OFFCURVE",
"622 1798 CURVE SMOOTH",
"775 1798 OFFCURVE",
"896 1677 OFFCURVE",
"896 1524 CURVE SMOOTH"
);
}
);
width = 1255;
}
);
unicode = 00E5;
},
{
glyphname = ae;
lastChange = "2012-05-24 21:38:30 +0000";
layers = (
{
anchors = (
{
name = top;
position = "{1109, 1120}";
}
);
layerId = "6B6936E6-7670-4A82-900D-EAF583C971AF";
name = Regular;
paths = (
{
closed = 1;
nodes = (
"1819 720 LINE",
"1818 865 OFFCURVE",
"1699 1045 OFFCURVE",
"1516 1045 CURVE SMOOTH",
"1312 1045 OFFCURVE",
"1183 875 OFFCURVE",
"1164 719 CURVE"
);
},
{
closed = 1;
nodes = (
"1195 1083 OFFCURVE",
"1338 1147 OFFCURVE",
"1514 1147 CURVE SMOOTH",
"1815 1147 OFFCURVE",
"2004 919 OFFCURVE",
"2004 666 CURVE SMOOTH",
"2004 576 LINE",
"1158 576 LINE",
"1174 401 OFFCURVE",
"1313 245 OFFCURVE",
"1557 245 CURVE SMOOTH",
"1696 245 OFFCURVE",
"1828 280 OFFCURVE",
"1961 351 CURVE",
"1961 87 LINE",
"1828 31 OFFCURVE",
"1688 -29 OFFCURVE",
"1547 -29 CURVE SMOOTH",
"1324 -29 OFFCURVE",
"1158 52 OFFCURVE",
"1055 211 CURVE",
"958 51 OFFCURVE",
"814 -29 OFFCURVE",
"623 -29 CURVE SMOOTH",
"371 -29 OFFCURVE",
"224 102 OFFCURVE",
"224 326 CURVE SMOOTH",
"224 658 OFFCURVE",
"393 767 OFFCURVE",
"728 767 CURVE SMOOTH",
"986 767 LINE",
"986 785 LINE SMOOTH",
"986 874 OFFCURVE",
"869 1031 OFFCURVE",
"668 1031 CURVE SMOOTH",
"540 1031 OFFCURVE",
"418 1000 OFFCURVE",
"306 939 CURVE",
"306 1069 LINE",
"441 1121 OFFCURVE",
"567 1147 OFFCURVE",
"687 1147 CURVE SMOOTH",
"876 1147 OFFCURVE",
"1024 1080 OFFCURVE",
"1096 963 CURVE"
);
},
{
closed = 1;
nodes = (
"803 623 LINE SMOOTH",
"506 623 OFFCURVE",
"408 590 OFFCURVE",
"408 395 CURVE SMOOTH",
"408 291 OFFCURVE",
"500 225 OFFCURVE",
"648 225 CURVE SMOOTH",
"852 225 OFFCURVE",
"986 334 OFFCURVE",
"986 590 CURVE SMOOTH",
"986 623 LINE"
);
}
);
width = 2218;
}
);
unicode = 00E6;
},
{
glyphname = ccedilla;
lastChange = "2012-05-24 21:38:30 +0000";
layers = (
{
layerId = "6B6936E6-7670-4A82-900D-EAF583C971AF";
name = Regular;
paths = (
{
closed = 1;
nodes = (
"1043 915 LINE",
"939 972 OFFCURVE",
"835 1001 OFFCURVE",
"728 1001 CURVE SMOOTH",
"489 1001 OFFCURVE",
"361 832 OFFCURVE",
"361 559 CURVE",
"380 367 OFFCURVE",
"481 301 OFFCURVE",
"720 288 CURVE",
"827 288 OFFCURVE",
"935 275 OFFCURVE",
"1039 332 CURVE",
"1043 43 LINE",
"940 -5 OFFCURVE",
"832 -29 OFFCURVE",
"708 -29 CURVE SMOOTH",
"371 -29 OFFCURVE",
"157 199 OFFCURVE",
"157 559 CURVE SMOOTH",
"157 924 OFFCURVE",
"371 1147 OFFCURVE",
"720 1147 CURVE SMOOTH",
"833 1147 OFFCURVE",
"942 1124 OFFCURVE",
"1043 1077 CURVE"
);
},
{
closed = 1;
nodes = (
"510 0 LINE",
"583 -83 OFFCURVE",
"619 -151 OFFCURVE",
"619 -215 CURVE SMOOTH",
"619 -334 OFFCURVE",
"538 -395 OFFCURVE",
"381 -395 CURVE SMOOTH",
"320 -395 OFFCURVE",
"262 -387 OFFCURVE",
"205 -371 CURVE",
"205 -240 LINE",
"250 -263 OFFCURVE",
"297 -272 OFFCURVE",
"360 -272 CURVE SMOOTH",
"439 -272 OFFCURVE",
"479 -239 OFFCURVE",
"479 -178 CURVE SMOOTH",
"479 -138 OFFCURVE",
"451 -81 OFFCURVE",
"391 0 CURVE"
);
}
);
width = 1126;
}
);
unicode = 00E7;
},
{
glyphname = egrave;
lastChange = "2012-05-28 20:06:58 +0000";
layers = (
{
layerId = "6B6936E6-7670-4A82-900D-EAF583C971AF";
name = Regular;
paths = (
{
closed = 1;
nodes = (
"1194 606 LINE",
"358 606 LINE",
"362 307 OFFCURVE",
"510 257 OFFCURVE",
"754 244 CURVE",
"895 244 OFFCURVE",
"1027 242 OFFCURVE",
"1158 311 CURVE",
"1162 57 LINE",
"1029 1 OFFCURVE",
"891 -29 OFFCURVE",
"747 -29 CURVE",
"391 -16 OFFCURVE",
"166 194 OFFCURVE",
"166 549 CURVE",
"179 916 OFFCURVE",
"379 1147 OFFCURVE",
"716 1147 CURVE",
"1016 1134 OFFCURVE",
"1169 996 OFFCURVE",
"1194 676 CURVE"
);
},
{
closed = 1;
nodes = (
"1034 767 LINE",
"1013 892 OFFCURVE",
"898 1050 OFFCURVE",
"717 1050 CURVE SMOOTH",
"512 1050 OFFCURVE",
"378 901 OFFCURVE",
"378 766 CURVE"
);
},
{
closed = 1;
nodes = (
"595 1638 LINE",
"877 1264 LINE",
"604 1264 LINE",
"398 1638 LINE"
);
}
);
width = 1260;
}
);
unicode = 00E8;
},
{
glyphname = eacute;
lastChange = "2012-05-28 20:06:49 +0000";
layers = (
{
layerId = "6B6936E6-7670-4A82-900D-EAF583C971AF";
name = Regular;
paths = (
{
closed = 1;
nodes = (
"1194 606 LINE",
"358 606 LINE",
"362 307 OFFCURVE",
"510 257 OFFCURVE",
"754 244 CURVE",
"895 244 OFFCURVE",
"1027 242 OFFCURVE",
"1158 311 CURVE",
"1162 57 LINE",
"1029 1 OFFCURVE",
"891 -29 OFFCURVE",
"747 -29 CURVE",
"391 -16 OFFCURVE",
"166 194 OFFCURVE",
"166 549 CURVE",
"179 916 OFFCURVE",
"379 1147 OFFCURVE",
"716 1147 CURVE",
"1016 1134 OFFCURVE",
"1169 996 OFFCURVE",
"1194 676 CURVE"
);
},
{
closed = 1;
nodes = (
"1034 767 LINE",
"1013 892 OFFCURVE",
"898 1050 OFFCURVE",
"717 1050 CURVE SMOOTH",
"512 1050 OFFCURVE",
"378 901 OFFCURVE",
"378 766 CURVE"
);
},
{
closed = 1;
nodes = (
"722 1638 LINE",
"943 1638 LINE",
"580 1220 LINE",
"410 1220 LINE"
);
}
);
width = 1260;
}
);
unicode = 00E9;
},
{
glyphname = ecircumflex;
lastChange = "2012-05-28 20:07:06 +0000";
layers = (
{
layerId = "6B6936E6-7670-4A82-900D-EAF583C971AF";
name = Regular;
paths = (
{
closed = 1;
nodes = (
"1194 606 LINE",
"358 606 LINE",
"362 307 OFFCURVE",
"510 257 OFFCURVE",
"754 244 CURVE",
"895 244 OFFCURVE",
"1027 242 OFFCURVE",
"1158 311 CURVE",
"1162 57 LINE",
"1029 1 OFFCURVE",
"891 -29 OFFCURVE",
"747 -29 CURVE",
"391 -16 OFFCURVE",
"166 194 OFFCURVE",
"166 549 CURVE",
"179 916 OFFCURVE",
"379 1147 OFFCURVE",
"716 1147 CURVE",
"1016 1134 OFFCURVE",
"1169 996 OFFCURVE",
"1194 676 CURVE"
);
},
{
closed = 1;
nodes = (
"1034 767 LINE",
"1013 892 OFFCURVE",
"898 1050 OFFCURVE",
"717 1050 CURVE SMOOTH",
"512 1050 OFFCURVE",
"378 901 OFFCURVE",
"378 766 CURVE"
);
},
{
closed = 1;
nodes = (
"582 1638 LINE",
"730 1638 LINE",
"975 1262 LINE",
"836 1262 LINE",
"656 1507 LINE",
"476 1262 LINE",
"337 1262 LINE"
);
}
);
width = 1260;
}
);
unicode = 00EA;
},
{
glyphname = edieresis;
lastChange = "2012-05-28 20:07:14 +0000";
layers = (
{
layerId = "6B6936E6-7670-4A82-900D-EAF583C971AF";
name = Regular;
paths = (
{
closed = 1;
nodes = (
"1194 606 LINE",
"358 606 LINE",
"362 307 OFFCURVE",
"510 257 OFFCURVE",
"754 244 CURVE",
"895 244 OFFCURVE",
"1027 242 OFFCURVE",
"1158 311 CURVE",
"1162 57 LINE",
"1029 1 OFFCURVE",
"891 -29 OFFCURVE",
"747 -29 CURVE",
"391 -16 OFFCURVE",
"166 194 OFFCURVE",
"166 549 CURVE",
"179 916 OFFCURVE",
"379 1147 OFFCURVE",
"716 1147 CURVE",
"1016 1134 OFFCURVE",
"1169 996 OFFCURVE",
"1194 676 CURVE"
);
},
{
closed = 1;
nodes = (
"1034 767 LINE",
"1013 892 OFFCURVE",
"898 1050 OFFCURVE",
"717 1050 CURVE SMOOTH",
"512 1050 OFFCURVE",
"378 901 OFFCURVE",
"378 766 CURVE"
);
},
{
closed = 1;
nodes = (
"793 1567 LINE",
"1011 1567 LINE",
"1011 1350 LINE",
"793 1350 LINE"
);
},
{
closed = 1;
nodes = (
"374 1567 LINE",
"592 1567 LINE",
"592 1350 LINE",
"374 1350 LINE"
);
}
);
width = 1260;
}
);
unicode = 00EB;
},
{
glyphname = igrave;
lastChange = "2012-05-28 20:07:45 +0000";
layers = (
{
layerId = "6B6936E6-7670-4A82-900D-EAF583C971AF";
name = Regular;
paths = (
{
closed = 1;
nodes = (
"215 1120 LINE",
"399 1120 LINE",
"399 0 LINE",
"215 0 LINE"
);
},
{
closed = 1;
nodes = (
"111 1638 LINE",
"393 1264 LINE",
"120 1264 LINE",
"-86 1638 LINE"
);
}
);
width = 569;
}
);
unicode = 00EC;
},
{
glyphname = iacute;
lastChange = "2012-05-28 20:07:34 +0000";
layers = (
{
layerId = "6B6936E6-7670-4A82-900D-EAF583C971AF";
name = Regular;
paths = (
{
closed = 1;
nodes = (
"195 1120 LINE",
"379 1120 LINE",
"379 0 LINE",
"195 0 LINE"
);
},
{
closed = 1;
nodes = (
"398 1638 LINE",
"619 1638 LINE",
"256 1220 LINE",
"86 1220 LINE"
);
}
);
width = 569;
}
);
unicode = 00ED;
},
{
glyphname = icircumflex;
lastChange = "2012-05-28 20:07:58 +0000";
layers = (
{
layerId = "6B6936E6-7670-4A82-900D-EAF583C971AF";
name = Regular;
paths = (
{
closed = 1;
nodes = (
"205 1120 LINE",
"389 1120 LINE",
"389 0 LINE",
"205 0 LINE"
);
},
{
closed = 1;
nodes = (
"168 1638 LINE",
"316 1638 LINE",
"561 1262 LINE",
"422 1262 LINE",
"242 1507 LINE",
"62 1262 LINE",
"-77 1262 LINE"
);
}
);
width = 569;
}
);
unicode = 00EE;
},
{
glyphname = idieresis;
lastChange = "2012-05-24 21:38:30 +0000";
layers = (
{
layerId = "6B6936E6-7670-4A82-900D-EAF583C971AF";
name = Regular;
paths = (
{
closed = 1;
nodes = (
"318 1120 LINE",
"502 1120 LINE",
"502 0 LINE",
"318 0 LINE"
);
},
{
closed = 1;
nodes = (
"512 1567 LINE",
"730 1567 LINE",
"730 1350 LINE",
"512 1350 LINE"
);
},
{
closed = 1;
nodes = (
"93 1567 LINE",
"311 1567 LINE",
"311 1350 LINE",
"93 1350 LINE"
);
}
);
width = 569;
}
);
unicode = 00EF;
},
{
glyphname = eth;
lastChange = "2012-05-24 21:38:30 +0000";
layers = (
{
layerId = "6B6936E6-7670-4A82-900D-EAF583C971AF";
name = Regular;
paths = (
{
closed = 1;
nodes = (
"796 938 OFFCURVE",
"739 948 OFFCURVE",
"684 948 CURVE SMOOTH",
"461 948 OFFCURVE",
"332 797 OFFCURVE",
"332 537 CURVE SMOOTH",
"332 286 OFFCURVE",
"457 127 OFFCURVE",
"652 127 CURVE SMOOTH",
"845 127 OFFCURVE",
"971 286 OFFCURVE",
"971 537 CURVE SMOOTH",
"971 700 OFFCURVE",
"935 824 OFFCURVE",
"863 915 CURVE"
);
},
{
closed = 1;
nodes = (
"926 1141 LINE SMOOTH",
"1094 950 OFFCURVE",
"1166 768 OFFCURVE",
"1166 537 CURVE SMOOTH",
"1166 197 OFFCURVE",
"959 -29 OFFCURVE",
"652 -29 CURVE SMOOTH",
"344 -29 OFFCURVE",
"138 197 OFFCURVE",
"138 537 CURVE SMOOTH",
"138 870 OFFCURVE",
"340 1098 OFFCURVE",
"635 1098 CURVE SMOOTH",
"659 1098 OFFCURVE",
"691 1095 OFFCURVE",
"747 1088 CURVE",
"588 1268 LINE",
"269 1161 LINE",
"236 1260 LINE",
"517 1352 LINE",
"336 1556 LINE",
"564 1556 LINE",
"691 1411 LINE",
"1024 1522 LINE",
"1057 1425 LINE",
"762 1327 LINE"
);
}
);
width = 1314;
}
);
unicode = 00F0;
},
{
glyphname = ntilde;
lastChange = "2012-05-24 21:38:30 +0000";
layers = (
{
layerId = "6B6936E6-7670-4A82-900D-EAF583C971AF";
name = Regular;
paths = (
{
closed = 1;
nodes = (
"1293 0 LINE",
"1029 0 LINE",
"1069 680 LINE",
"1069 892 OFFCURVE",
"1006 997 OFFCURVE",
"841 997 CURVE SMOOTH",
"616 997 OFFCURVE",
"510 862 OFFCURVE",
"510 643 CURVE",
"540 0 LINE",
"285 0 LINE",
"315 1130 LINE",
"500 1130 LINE",
"500 996 LINE",
"588 1064 OFFCURVE",
"706 1147 OFFCURVE",
"862 1147 CURVE SMOOTH",
"1119 1147 OFFCURVE",
"1250 985 OFFCURVE",
"1263 676 CURVE SMOOTH"
);
},
{
closed = 1;
nodes = (
"665 1425 LINE SMOOTH",
"636 1452 OFFCURVE",
"614 1464 OFFCURVE",
"597 1464 CURVE SMOOTH",
"572 1464 OFFCURVE",
"553 1452 OFFCURVE",
"541 1428 CURVE SMOOTH",
"529 1403 OFFCURVE",
"522 1364 OFFCURVE",
"521 1309 CURVE",
"396 1309 LINE",
"399 1489 OFFCURVE",
"470 1591 OFFCURVE",
"591 1591 CURVE SMOOTH",
"642 1591 OFFCURVE",
"681 1574 OFFCURVE",
"730 1530 CURVE",
"787 1475 LINE SMOOTH",
"816 1448 OFFCURVE",
"838 1436 OFFCURVE",
"855 1436 CURVE SMOOTH",
"880 1436 OFFCURVE",
"899 1448 OFFCURVE",
"911 1473 CURVE SMOOTH",
"923 1497 OFFCURVE",
"930 1536 OFFCURVE",
"931 1591 CURVE",
"1056 1591 LINE",
"1053 1411 OFFCURVE",
"982 1309 OFFCURVE",
"861 1309 CURVE SMOOTH",
"810 1309 OFFCURVE",
"771 1326 OFFCURVE",
"722 1370 CURVE"
);
}
);
width = 1298;
}
);
unicode = 00F1;
},
{
glyphname = ograve;
lastChange = "2012-05-28 20:08:23 +0000";
layers = (
{
layerId = "6B6936E6-7670-4A82-900D-EAF583C971AF";
name = Regular;
paths = (
{
closed = 1;
nodes = (
"447 1011 OFFCURVE",
"324 851 OFFCURVE",
"324 591 CURVE SMOOTH",
"324 330 OFFCURVE",
"445 289 OFFCURVE",
"644 289 CURVE SMOOTH",
"840 289 OFFCURVE",
"963 331 OFFCURVE",
"963 591 CURVE SMOOTH",
"963 848 OFFCURVE",
"840 1011 OFFCURVE",
"644 1011 CURVE SMOOTH"
);
},
{
closed = 1;
nodes = (
"964 1147 OFFCURVE",
"1158 927 OFFCURVE",
"1158 559 CURVE SMOOTH",
"1158 192 OFFCURVE",
"964 -29 OFFCURVE",
"644 -29 CURVE SMOOTH",
"323 -29 OFFCURVE",
"130 192 OFFCURVE",
"130 559 CURVE SMOOTH",
"130 927 OFFCURVE",
"323 1147 OFFCURVE",
"644 1147 CURVE SMOOTH"
);
},
{
closed = 1;
nodes = (
"501 1638 LINE",
"783 1264 LINE",
"510 1264 LINE",
"304 1638 LINE"
);
}
);
width = 1253;
}
);
unicode = 00F2;
},
{
glyphname = oacute;
lastChange = "2012-05-28 20:08:11 +0000";
layers = (
{
layerId = "6B6936E6-7670-4A82-900D-EAF583C971AF";
name = Regular;
paths = (
{
closed = 1;
nodes = (
"427 1011 OFFCURVE",
"304 851 OFFCURVE",
"304 591 CURVE SMOOTH",
"304 330 OFFCURVE",
"425 289 OFFCURVE",
"624 289 CURVE SMOOTH",
"820 289 OFFCURVE",
"943 331 OFFCURVE",
"943 591 CURVE SMOOTH",
"943 848 OFFCURVE",
"820 1011 OFFCURVE",
"624 1011 CURVE SMOOTH"
);
},
{
closed = 1;
nodes = (
"944 1147 OFFCURVE",
"1138 927 OFFCURVE",
"1138 559 CURVE SMOOTH",
"1138 192 OFFCURVE",
"944 -29 OFFCURVE",
"624 -29 CURVE SMOOTH",
"303 -29 OFFCURVE",
"110 192 OFFCURVE",
"110 559 CURVE SMOOTH",
"110 927 OFFCURVE",
"303 1147 OFFCURVE",
"624 1147 CURVE SMOOTH"
);
},
{
closed = 1;
nodes = (
"718 1638 LINE",
"939 1638 LINE",
"576 1220 LINE",
"406 1220 LINE"
);
}
);
width = 1253;
}
);
unicode = 00F3;
},
{
glyphname = ocircumflex;
lastChange = "2012-05-28 20:59:53 +0000";
layers = (
{
layerId = "6B6936E6-7670-4A82-900D-EAF583C971AF";
name = Regular;
paths = (
{
closed = 1;
nodes = (
"447 1011 OFFCURVE",
"324 851 OFFCURVE",
"324 591 CURVE SMOOTH",
"324 330 OFFCURVE",
"445 289 OFFCURVE",
"644 289 CURVE SMOOTH",
"840 289 OFFCURVE",
"963 331 OFFCURVE",
"963 591 CURVE SMOOTH",
"963 848 OFFCURVE",
"840 1011 OFFCURVE",
"644 1011 CURVE SMOOTH"
);
},
{
closed = 1;
nodes = (
"964 1147 OFFCURVE",
"1158 927 OFFCURVE",
"1158 559 CURVE SMOOTH",
"1158 192 OFFCURVE",
"964 -29 OFFCURVE",
"644 -29 CURVE SMOOTH",
"323 -29 OFFCURVE",
"130 192 OFFCURVE",
"130 559 CURVE SMOOTH",
"130 927 OFFCURVE",
"323 1147 OFFCURVE",
"644 1147 CURVE SMOOTH"
);
},
{
closed = 1;
nodes = (
"548 1638 LINE",
"696 1638 LINE",
"941 1262 LINE",
"802 1262 LINE",
"622 1507 LINE",
"442 1262 LINE",
"303 1262 LINE"
);
}
);
width = 1253;
}
);
unicode = 00F4;
},
{
glyphname = otilde;
lastChange = "2012-05-28 21:00:11 +0000";
layers = (
{
layerId = "6B6936E6-7670-4A82-900D-EAF583C971AF";
name = Regular;
paths = (
{
closed = 1;
nodes = (
"447 1011 OFFCURVE",
"324 851 OFFCURVE",
"324 591 CURVE SMOOTH",
"324 330 OFFCURVE",
"445 289 OFFCURVE",
"644 289 CURVE SMOOTH",
"840 289 OFFCURVE",
"963 331 OFFCURVE",
"963 591 CURVE SMOOTH",
"963 848 OFFCURVE",
"840 1011 OFFCURVE",
"644 1011 CURVE SMOOTH"
);
},
{
closed = 1;
nodes = (
"964 1147 OFFCURVE",
"1158 927 OFFCURVE",
"1158 559 CURVE SMOOTH",
"1158 192 OFFCURVE",
"964 -29 OFFCURVE",
"644 -29 CURVE SMOOTH",
"323 -29 OFFCURVE",
"130 192 OFFCURVE",
"130 559 CURVE SMOOTH",
"130 927 OFFCURVE",
"323 1147 OFFCURVE",
"644 1147 CURVE SMOOTH"
);
},
{
closed = 1;
nodes = (
"548 1425 LINE SMOOTH",
"519 1452 OFFCURVE",
"497 1464 OFFCURVE",
"480 1464 CURVE SMOOTH",
"455 1464 OFFCURVE",
"436 1452 OFFCURVE",
"424 1428 CURVE SMOOTH",
"412 1403 OFFCURVE",
"405 1364 OFFCURVE",
"404 1309 CURVE",
"279 1309 LINE",
"282 1489 OFFCURVE",
"353 1591 OFFCURVE",
"474 1591 CURVE SMOOTH",
"525 1591 OFFCURVE",
"564 1574 OFFCURVE",
"613 1530 CURVE",
"670 1475 LINE SMOOTH",
"699 1448 OFFCURVE",
"721 1436 OFFCURVE",
"738 1436 CURVE SMOOTH",
"763 1436 OFFCURVE",
"782 1448 OFFCURVE",
"794 1473 CURVE SMOOTH",
"806 1497 OFFCURVE",
"813 1536 OFFCURVE",
"814 1591 CURVE",
"939 1591 LINE",
"936 1411 OFFCURVE",
"865 1309 OFFCURVE",
"744 1309 CURVE SMOOTH",
"693 1309 OFFCURVE",
"654 1326 OFFCURVE",
"605 1370 CURVE"
);
}
);
width = 1253;
}
);
unicode = 00F5;
},
{
glyphname = odieresis;
lastChange = "2012-05-28 21:00:03 +0000";
layers = (
{
layerId = "6B6936E6-7670-4A82-900D-EAF583C971AF";
name = Regular;
paths = (
{
closed = 1;
nodes = (
"447 1011 OFFCURVE",
"324 851 OFFCURVE",
"324 591 CURVE SMOOTH",
"324 330 OFFCURVE",
"445 289 OFFCURVE",
"644 289 CURVE SMOOTH",
"840 289 OFFCURVE",
"963 331 OFFCURVE",
"963 591 CURVE SMOOTH",
"963 848 OFFCURVE",
"840 1011 OFFCURVE",
"644 1011 CURVE SMOOTH"
);
},
{
closed = 1;
nodes = (
"964 1147 OFFCURVE",
"1158 927 OFFCURVE",
"1158 559 CURVE SMOOTH",
"1158 192 OFFCURVE",
"964 -29 OFFCURVE",
"644 -29 CURVE SMOOTH",
"323 -29 OFFCURVE",
"130 192 OFFCURVE",
"130 559 CURVE SMOOTH",
"130 927 OFFCURVE",
"323 1147 OFFCURVE",
"644 1147 CURVE SMOOTH"
);
},
{
closed = 1;
nodes = (
"759 1567 LINE",
"977 1567 LINE",
"977 1350 LINE",
"759 1350 LINE"
);
},
{
closed = 1;
nodes = (
"340 1567 LINE",
"558 1567 LINE",
"558 1350 LINE",
"340 1350 LINE"
);
}
);
width = 1253;
}
);
unicode = 00F6;
},
{
glyphname = divide;
lastChange = "2012-05-24 21:38:30 +0000";
layers = (
{
layerId = "6B6936E6-7670-4A82-900D-EAF583C971AF";
name = Regular;
paths = (
{
closed = 1;
nodes = (
"534 1185 LINE",
"830 1185 LINE",
"830 889 LINE",
"534 889 LINE"
);
},
{
closed = 1;
nodes = (
"534 345 LINE",
"830 345 LINE",
"830 50 LINE",
"534 50 LINE"
);
},
{
closed = 1;
nodes = (
"16 727 LINE",
"1348 727 LINE",
"1348 507 LINE",
"16 507 LINE"
);
}
);
width = 1364;
}
);
unicode = 00F7;
},
{
glyphname = oslash;
lastChange = "2012-05-24 21:38:30 +0000";
layers = (
{
anchors = (
{
name = top;
position = "{705, 1120}";
}
);
layerId = "6B6936E6-7670-4A82-900D-EAF583C971AF";
name = Regular;
paths = (
{
closed = 1;
nodes = (
"496 209 LINE",
"551 153 OFFCURVE",
"618 127 OFFCURVE",
"705 127 CURVE SMOOTH",
"901 127 OFFCURVE",
"1024 292 OFFCURVE",
"1024 559 CURVE SMOOTH",
"1024 664 OFFCURVE",
"1011 740 OFFCURVE",
"983 801 CURVE"
);
},
{
closed = 1;
nodes = (
"912 909 LINE",
"856 964 OFFCURVE",
"788 991 OFFCURVE",
"705 991 CURVE SMOOTH",
"504 991 OFFCURVE",
"385 826 OFFCURVE",
"385 545 CURVE SMOOTH",
"385 449 OFFCURVE",
"397 378 OFFCURVE",
"424 317 CURVE"
);
},
{
closed = 1;
nodes = (
"299 166 LINE",
"227 269 OFFCURVE",
"191 400 OFFCURVE",
"191 559 CURVE SMOOTH",
"191 927 OFFCURVE",
"384 1147 OFFCURVE",
"705 1147 CURVE SMOOTH",
"829 1147 OFFCURVE",
"935 1113 OFFCURVE",
"1024 1044 CURVE",
"1163 1212 LINE",
"1258 1133 LINE",
"1112 954 LINE",
"1183 851 OFFCURVE",
"1219 719 OFFCURVE",
"1219 559 CURVE SMOOTH",
"1219 192 OFFCURVE",
"1025 -29 OFFCURVE",
"705 -29 CURVE SMOOTH",
"577 -29 OFFCURVE",
"469 6 OFFCURVE",
"385 74 CURVE",
"246 -94 LINE",
"150 -16 LINE"
);
}
);
width = 1410;
}
);
unicode = 00F8;
},
{
glyphname = ugrave;
lastChange = "2012-05-28 21:08:09 +0000";
layers = (
{
layerId = "6B6936E6-7670-4A82-900D-EAF583C971AF";
name = Regular;
paths = (
{
closed = 1;
nodes = (
"258 1120 LINE",
"412 1120 LINE",
"412 609 LINE",
"425 397 OFFCURVE",
"495 291 OFFCURVE",
"660 291 CURVE SMOOTH",
"859 291 OFFCURVE",
"969 426 OFFCURVE",
"982 645 CURVE",
"992 1120 LINE",
"1206 1120 LINE",
"1186 0 LINE",
"1002 0 LINE",
"1012 172 LINE",
"923 36 OFFCURVE",
"807 -29 OFFCURVE",
"651 -29 CURVE SMOOTH",
"394 -29 OFFCURVE",
"258 134 OFFCURVE",
"258 442 CURVE SMOOTH"
);
},
{
closed = 1;
nodes = (
"542 1638 LINE",
"824 1264 LINE",
"551 1264 LINE",
"345 1638 LINE"
);
}
);
width = 1351;
}
);
unicode = 00F9;
},
{
glyphname = uacute;
lastChange = "2012-05-28 21:03:10 +0000";
layers = (
{
layerId = "6B6936E6-7670-4A82-900D-EAF583C971AF";
name = Regular;
paths = (
{
closed = 1;
nodes = (
"205 1120 LINE",
"359 1120 LINE",
"359 609 LINE",
"372 397 OFFCURVE",
"442 291 OFFCURVE",
"607 291 CURVE SMOOTH",
"806 291 OFFCURVE",
"916 426 OFFCURVE",
"929 645 CURVE",
"939 1120 LINE",
"1153 1120 LINE",
"1133 0 LINE",
"949 0 LINE",
"959 172 LINE",
"870 36 OFFCURVE",
"754 -29 OFFCURVE",
"598 -29 CURVE SMOOTH",
"341 -29 OFFCURVE",
"205 134 OFFCURVE",
"205 442 CURVE SMOOTH"
);
},
{
closed = 1;
nodes = (
"766 1638 LINE",
"987 1638 LINE",
"624 1220 LINE",
"454 1220 LINE"
);
}
);
width = 1298;
}
);
unicode = 00FA;
},
{
glyphname = ucircumflex;
lastChange = "2012-05-28 21:07:25 +0000";
layers = (
{
layerId = "6B6936E6-7670-4A82-900D-EAF583C971AF";
name = Regular;
paths = (
{
closed = 1;
nodes = (
"205 1120 LINE",
"359 1120 LINE",
"359 609 LINE",
"372 397 OFFCURVE",
"442 291 OFFCURVE",
"607 291 CURVE SMOOTH",
"806 291 OFFCURVE",
"916 426 OFFCURVE",
"929 645 CURVE",
"939 1120 LINE",
"1153 1120 LINE",
"1133 0 LINE",
"949 0 LINE",
"959 172 LINE",
"870 36 OFFCURVE",
"754 -29 OFFCURVE",
"598 -29 CURVE SMOOTH",
"341 -29 OFFCURVE",
"205 134 OFFCURVE",
"205 442 CURVE SMOOTH"
);
},
{
closed = 1;
nodes = (
"566 1638 LINE",
"714 1638 LINE",
"959 1262 LINE",
"820 1262 LINE",
"640 1507 LINE",
"460 1262 LINE",
"321 1262 LINE"
);
}
);
width = 1298;
}
);
unicode = 00FB;
},
{
glyphname = udieresis;
lastChange = "2012-05-28 21:07:58 +0000";
layers = (
{
layerId = "6B6936E6-7670-4A82-900D-EAF583C971AF";
name = Regular;
paths = (
{
closed = 1;
nodes = (
"205 1120 LINE",
"359 1120 LINE",
"359 609 LINE",
"372 397 OFFCURVE",
"442 291 OFFCURVE",
"607 291 CURVE SMOOTH",
"806 291 OFFCURVE",
"916 426 OFFCURVE",
"929 645 CURVE",
"939 1120 LINE",
"1153 1120 LINE",
"1133 0 LINE",
"949 0 LINE",
"959 172 LINE",
"870 36 OFFCURVE",
"754 -29 OFFCURVE",
"598 -29 CURVE SMOOTH",
"341 -29 OFFCURVE",
"205 134 OFFCURVE",
"205 442 CURVE SMOOTH"
);
},
{
closed = 1;
nodes = (
"777 1567 LINE",
"995 1567 LINE",
"995 1350 LINE",
"777 1350 LINE"
);
},
{
closed = 1;
nodes = (
"358 1567 LINE",
"576 1567 LINE",
"576 1350 LINE",
"358 1350 LINE"
);
}
);
width = 1298;
}
);
unicode = 00FC;
},
{
glyphname = yacute;
lastChange = "2012-05-24 21:38:30 +0000";
layers = (
{
layerId = "6B6936E6-7670-4A82-900D-EAF583C971AF";
name = Regular;
paths = (
{
closed = 1;
nodes = (
"824 -104 LINE",
"693 -397 OFFCURVE",
"599 -446 OFFCURVE",
"434 -446 CURVE SMOOTH",
"267 -446 LINE",
"267 -202 LINE",
"395 -202 LINE SMOOTH",
"496 -202 OFFCURVE",
"538 -151 OFFCURVE",
"606 -66 CURVE",
"685 93 LINE",
"206 1120 LINE",
"401 1120 LINE",
"797 469 LINE",
"1101 1120 LINE",
"1296 1120 LINE"
);
},
{
closed = 1;
nodes = (
"437 1638 LINE",
"658 1638 LINE",
"295 1220 LINE",
"125 1220 LINE"
);
}
);
width = 1212;
}
);
unicode = 00FD;
},
{
glyphname = thorn;
lastChange = "2012-05-24 21:38:30 +0000";
layers = (
{
layerId = "6B6936E6-7670-4A82-900D-EAF583C971AF";
name = Regular;
paths = (
{
closed = 1;
nodes = (
"460 -426 LINE",
"275 -426 LINE",
"275 1556 LINE",
"460 1556 LINE",
"460 950 LINE",
"537 1083 OFFCURVE",
"654 1147 OFFCURVE",
"818 1147 CURVE SMOOTH",
"1090 1147 OFFCURVE",
"1277 911 OFFCURVE",
"1277 559 CURVE SMOOTH",
"1277 207 OFFCURVE",
"1090 -29 OFFCURVE",
"818 -29 CURVE SMOOTH",
"654 -29 OFFCURVE",
"537 35 OFFCURVE",
"460 168 CURVE"
);
},
{
closed = 1;
nodes = (
"1086 830 OFFCURVE",
"968 993 OFFCURVE",
"773 993 CURVE SMOOTH",
"578 993 OFFCURVE",
"460 830 OFFCURVE",
"460 559 CURVE SMOOTH",
"460 288 OFFCURVE",
"578 125 OFFCURVE",
"773 125 CURVE SMOOTH",
"968 125 OFFCURVE",
"1086 288 OFFCURVE",
"1086 559 CURVE SMOOTH"
);
}
);
width = 1278;
}
);
unicode = 00FE;
},
{
glyphname = ydieresis;
lastChange = "2012-05-24 21:38:30 +0000";
layers = (
{
layerId = "6B6936E6-7670-4A82-900D-EAF583C971AF";
name = Regular;
paths = (
{
closed = 1;
nodes = (
"824 -104 LINE",
"693 -397 OFFCURVE",
"599 -446 OFFCURVE",
"434 -446 CURVE SMOOTH",
"267 -446 LINE",
"267 -202 LINE",
"395 -202 LINE SMOOTH",
"496 -202 OFFCURVE",
"538 -151 OFFCURVE",
"606 -66 CURVE",
"685 93 LINE",
"206 1120 LINE",
"401 1120 LINE",
"797 469 LINE",
"1101 1120 LINE",
"1296 1120 LINE"
);
},
{
closed = 1;
nodes = (
"788 1567 LINE",
"1006 1567 LINE",
"1006 1350 LINE",
"788 1350 LINE"
);
},
{
closed = 1;
nodes = (
"369 1567 LINE",
"587 1567 LINE",
"587 1350 LINE",
"369 1350 LINE"
);
}
);
width = 1212;
}
);
unicode = 00FF;
},
{
glyphname = Cacute;
lastChange = "2012-05-24 21:38:30 +0000";
layers = (
{
layerId = "6B6936E6-7670-4A82-900D-EAF583C971AF";
name = Regular;
paths = (
{
closed = 1;
nodes = (
"1365 1165 LINE",
"1229 1292 OFFCURVE",
"1075 1354 OFFCURVE",
"902 1354 CURVE SMOOTH",
"561 1354 OFFCURVE",
"374 1140 OFFCURVE",
"374 745 CURVE SMOOTH",
"379 396 OFFCURVE",
"561 277 OFFCURVE",
"902 277 CURVE SMOOTH",
"1075 277 OFFCURVE",
"1229 339 OFFCURVE",
"1365 466 CURVE",
"1365 115 LINE",
"1224 19 OFFCURVE",
"1066 -29 OFFCURVE",
"890 -29 CURVE SMOOTH",
"438 -29 OFFCURVE",
"161 266 OFFCURVE",
"161 745 CURVE SMOOTH",
"161 1225 OFFCURVE",
"438 1520 OFFCURVE",
"890 1520 CURVE SMOOTH",
"1069 1520 OFFCURVE",
"1226 1473 OFFCURVE",
"1365 1378 CURVE"
);
},
{
closed = 1;
nodes = (
"546 1899 LINE",
"731 1899 LINE",
"503 1635 LINE",
"350 1635 LINE"
);
}
);
width = 1430;
}
);
unicode = 0106;
},
{
glyphname = cacute;
lastChange = "2012-05-24 21:38:30 +0000";
layers = (
{
layerId = "6B6936E6-7670-4A82-900D-EAF583C971AF";
name = Regular;
paths = (
{
closed = 1;
nodes = (
"1043 915 LINE",
"939 972 OFFCURVE",
"835 1001 OFFCURVE",
"728 1001 CURVE SMOOTH",
"489 1001 OFFCURVE",
"361 832 OFFCURVE",
"361 559 CURVE",
"380 367 OFFCURVE",
"481 301 OFFCURVE",
"720 288 CURVE",
"827 288 OFFCURVE",
"935 275 OFFCURVE",
"1039 332 CURVE",
"1043 43 LINE",
"940 -5 OFFCURVE",
"832 -29 OFFCURVE",
"708 -29 CURVE SMOOTH",
"371 -29 OFFCURVE",
"157 199 OFFCURVE",
"157 559 CURVE SMOOTH",
"157 924 OFFCURVE",
"371 1147 OFFCURVE",
"720 1147 CURVE SMOOTH",
"833 1147 OFFCURVE",
"942 1124 OFFCURVE",
"1043 1077 CURVE"
);
},
{
closed = 1;
nodes = (
"480 1638 LINE",
"701 1638 LINE",
"338 1220 LINE",
"168 1220 LINE"
);
}
);
width = 1126;
}
);
unicode = 0107;
},
{
glyphname = Ccaron;
lastChange = "2012-05-24 21:38:30 +0000";
layers = (
{
layerId = "6B6936E6-7670-4A82-900D-EAF583C971AF";
name = Regular;
paths = (
{
closed = 1;
nodes = (
"1365 1165 LINE",
"1229 1292 OFFCURVE",
"1075 1354 OFFCURVE",
"902 1354 CURVE SMOOTH",
"561 1354 OFFCURVE",
"374 1140 OFFCURVE",
"374 745 CURVE SMOOTH",
"379 396 OFFCURVE",
"561 277 OFFCURVE",
"902 277 CURVE SMOOTH",
"1075 277 OFFCURVE",
"1229 339 OFFCURVE",
"1365 466 CURVE",
"1365 115 LINE",
"1224 19 OFFCURVE",
"1066 -29 OFFCURVE",
"890 -29 CURVE SMOOTH",
"438 -29 OFFCURVE",
"161 266 OFFCURVE",
"161 745 CURVE SMOOTH",
"161 1225 OFFCURVE",
"438 1520 OFFCURVE",
"890 1520 CURVE SMOOTH",
"1069 1520 OFFCURVE",
"1226 1473 OFFCURVE",
"1365 1378 CURVE"
);
},
{
closed = 1;
nodes = (
"609 1635 LINE",
"398 1901 LINE",
"537 1901 LINE",
"703 1723 LINE",
"869 1901 LINE",
"1008 1901 LINE",
"797 1635 LINE"
);
}
);
width = 1430;
}
);
unicode = 010C;
},
{
glyphname = ccaron;
lastChange = "2012-05-24 21:38:30 +0000";
layers = (
{
layerId = "6B6936E6-7670-4A82-900D-EAF583C971AF";
name = Regular;
paths = (
{
closed = 1;
nodes = (
"1043 915 LINE",
"939 972 OFFCURVE",
"835 1001 OFFCURVE",
"728 1001 CURVE SMOOTH",
"489 1001 OFFCURVE",
"361 832 OFFCURVE",
"361 559 CURVE",
"380 367 OFFCURVE",
"481 301 OFFCURVE",
"720 288 CURVE",
"827 288 OFFCURVE",
"935 275 OFFCURVE",
"1039 332 CURVE",
"1043 43 LINE",
"940 -5 OFFCURVE",
"832 -29 OFFCURVE",
"708 -29 CURVE SMOOTH",
"371 -29 OFFCURVE",
"157 199 OFFCURVE",
"157 559 CURVE SMOOTH",
"157 924 OFFCURVE",
"371 1147 OFFCURVE",
"720 1147 CURVE SMOOTH",
"833 1147 OFFCURVE",
"942 1124 OFFCURVE",
"1043 1077 CURVE"
);
},
{
closed = 1;
nodes = (
"466 1262 LINE",
"221 1638 LINE",
"360 1638 LINE",
"540 1393 LINE",
"720 1638 LINE",
"859 1638 LINE",
"614 1262 LINE"
);
}
);
width = 1126;
}
);
unicode = 010D;
},
{
glyphname = dcroat;
lastChange = "2012-05-24 21:38:30 +0000";
layers = (
{
layerId = "6B6936E6-7670-4A82-900D-EAF583C971AF";
name = Regular;
paths = (
{
closed = 1;
nodes = (
"904 1284 LINE",
"578 1284 LINE",
"578 1409 LINE",
"904 1409 LINE",
"904 1556 LINE",
"1088 1556 LINE",
"1088 1409 LINE",
"1242 1409 LINE",
"1242 1284 LINE",
"1088 1284 LINE",
"1088 0 LINE",
"904 0 LINE",
"904 168 LINE",
"827 35 OFFCURVE",
"710 -29 OFFCURVE",
"545 -29 CURVE SMOOTH",
"274 -29 OFFCURVE",
"87 207 OFFCURVE",
"87 559 CURVE SMOOTH",
"87 911 OFFCURVE",
"274 1147 OFFCURVE",
"545 1147 CURVE SMOOTH",
"710 1147 OFFCURVE",
"827 1083 OFFCURVE",
"904 950 CURVE"
);
},
{
closed = 1;
nodes = (
"277 358 OFFCURVE",
"395 211 OFFCURVE",
"590 211 CURVE SMOOTH",
"785 211 OFFCURVE",
"904 358 OFFCURVE",
"904 602 CURVE SMOOTH",
"904 846 OFFCURVE",
"785 993 OFFCURVE",
"590 993 CURVE SMOOTH",
"395 993 OFFCURVE",
"277 846 OFFCURVE",
"277 602 CURVE SMOOTH"
);
}
);
width = 1390;
}
);
unicode = 0111;
},
{
glyphname = Gbreve;
lastChange = "2012-05-24 21:38:30 +0000";
layers = (
{
layerId = "6B6936E6-7670-4A82-900D-EAF583C971AF";
name = Regular;
paths = (
{
closed = 1;
nodes = (
"1243 534 LINE",
"923 534 LINE",
"923 750 LINE",
"1473 750 LINE",
"1473 139 LINE",
"1317 28 OFFCURVE",
"1127 -29 OFFCURVE",
"914 -29 CURVE SMOOTH",
"447 -29 OFFCURVE",
"169 258 OFFCURVE",
"169 745 CURVE SMOOTH",
"169 1233 OFFCURVE",
"447 1520 OFFCURVE",
"914 1520 CURVE SMOOTH",
"1109 1520 OFFCURVE",
"1286 1471 OFFCURVE",
"1434 1378 CURVE",
"1434 1183 LINE",
"1285 1310 OFFCURVE",
"1116 1374 OFFCURVE",
"931 1374 CURVE SMOOTH",
"566 1374 OFFCURVE",
"382 1169 OFFCURVE",
"382 765 CURVE",
"395 397 OFFCURVE",
"566 297 OFFCURVE",
"931 297 CURVE SMOOTH",
"1074 297 OFFCURVE",
"1194 321 OFFCURVE",
"1243 373 CURVE"
);
},
{
closed = 1;
nodes = (
"571 1901 LINE",
"588 1829 OFFCURVE",
"655 1790 OFFCURVE",
"766 1790 CURVE SMOOTH",
"875 1790 OFFCURVE",
"940 1826 OFFCURVE",
"961 1901 CURVE",
"1079 1901 LINE",
"1066 1742 OFFCURVE",
"957 1659 OFFCURVE",
"766 1659 CURVE SMOOTH",
"574 1659 OFFCURVE",
"466 1741 OFFCURVE",
"453 1901 CURVE"
);
}
);
width = 1587;
}
);
unicode = 011E;
},
{
glyphname = gbreve;
lastChange = "2012-05-24 21:38:30 +0000";
layers = (
{
layerId = "6B6936E6-7670-4A82-900D-EAF583C971AF";
name = Regular;
paths = (
{
closed = 1;
nodes = (
"912 851 OFFCURVE",
"797 1004 OFFCURVE",
"598 1004 CURVE SMOOTH",
"401 1004 OFFCURVE",
"285 851 OFFCURVE",
"285 584 CURVE",
"312 319 OFFCURVE",
"387 298 OFFCURVE",
"584 298 CURVE SMOOTH",
"783 298 OFFCURVE",
"912 319 OFFCURVE",
"912 584 CURVE SMOOTH"
);
},
{
closed = 1;
nodes = (
"1166 139 LINE SMOOTH",
"1153 -336 OFFCURVE",
"989 -496 OFFCURVE",
"640 -496 CURVE SMOOTH",
"511 -496 OFFCURVE",
"398 -477 OFFCURVE",
"290 -437 CURVE",
"290 -109 LINE",
"398 -168 OFFCURVE",
"502 -195 OFFCURVE",
"611 -195 CURVE SMOOTH",
"852 -195 OFFCURVE",
"955 -26 OFFCURVE",
"982 106 CURVE",
"982 167 LINE",
"919 75 OFFCURVE",
"798 0 OFFCURVE",
"633 0 CURVE SMOOTH",
"358 0 OFFCURVE",
"175 228 OFFCURVE",
"175 573 CURVE SMOOTH",
"175 920 OFFCURVE",
"358 1147 OFFCURVE",
"633 1147 CURVE SMOOTH",
"798 1147 OFFCURVE",
"916 1082 OFFCURVE",
"992 950 CURVE",
"1012 1120 LINE",
"1196 1120 LINE"
);
},
{
closed = 1;
nodes = (
"427 1608 LINE",
"442 1508 OFFCURVE",
"506 1458 OFFCURVE",
"622 1458 CURVE SMOOTH",
"737 1458 OFFCURVE",
"800 1507 OFFCURVE",
"817 1608 CURVE",
"935 1608 LINE",
"922 1417 OFFCURVE",
"815 1321 OFFCURVE",
"622 1321 CURVE SMOOTH",
"429 1321 OFFCURVE",
"322 1417 OFFCURVE",
"309 1608 CURVE"
);
}
);
width = 1300;
}
);
unicode = 011F;
},
{
glyphname = Idotaccent;
lastChange = "2012-05-24 21:38:30 +0000";
layers = (
{
layerId = "6B6936E6-7670-4A82-900D-EAF583C971AF";
name = Regular;
paths = (
{
closed = 1;
nodes = (
"245 1493 LINE",
"437 1493 LINE",
"457 0 LINE",
"215 0 LINE"
);
},
{
closed = 1;
nodes = (
"78 1872 LINE",
"282 1872 LINE",
"282 1667 LINE",
"78 1667 LINE"
);
}
);
width = 604;
}
);
unicode = 0130;
},
{
glyphname = dotlessi;
lastChange = "2012-05-24 21:38:30 +0000";
layers = (
{
anchors = (
{
name = ogonek;
position = "{654, 10}";
},
{
name = top;
position = "{364, 1120}";
}
);
layerId = "6B6936E6-7670-4A82-900D-EAF583C971AF";
name = Regular;
paths = (
{
closed = 1;
nodes = (
"275 1120 LINE",
"459 1120 LINE",
"459 0 LINE",
"275 0 LINE"
);
}
);
width = 727;
}
);
unicode = 0131;
},
{
glyphname = Lslash;
lastChange = "2012-05-24 21:38:30 +0000";
layers = (
{
layerId = "6B6936E6-7670-4A82-900D-EAF583C971AF";
name = Regular;
paths = (
{
closed = 1;
nodes = (
"319 1493 LINE",
"522 1493 LINE",
"522 877 LINE",
"835 1096 LINE",
"915 985 LINE",
"522 711 LINE",
"522 170 LINE",
"1249 170 LINE",
"1249 0 LINE",
"319 0 LINE",
"319 571 LINE",
"171 465 LINE",
"94 575 LINE",
"319 733 LINE"
);
}
);
width = 1253;
}
);
unicode = 0141;
},
{
glyphname = lslash;
lastChange = "2012-05-24 21:38:30 +0000";
layers = (
{
layerId = "6B6936E6-7670-4A82-900D-EAF583C971AF";
name = Regular;
paths = (
{
closed = 1;
nodes = (
"217 1556 LINE",
"401 1556 LINE",
"401 954 LINE",
"526 1044 LINE",
"602 938 LINE",
"401 797 LINE",
"401 0 LINE",
"217 0 LINE",
"217 666 LINE",
"94 578 LINE",
"20 684 LINE",
"217 825 LINE"
);
}
);
width = 618;
}
);
unicode = 0142;
},
{
glyphname = OE;
lastChange = "2012-05-24 21:38:30 +0000";
layers = (
{
anchors = (
{
name = top;
position = "{1167, 1493}";
}
);
layerId = "6B6936E6-7670-4A82-900D-EAF583C971AF";
name = Regular;
paths = (
{
closed = 1;
nodes = (
"2121 1493 LINE",
"2121 1363 LINE",
"1379 1363 LINE",
"1379 951 LINE",
"2110 951 LINE",
"2110 781 LINE",
"1379 781 LINE",
"1379 280 LINE",
"2139 280 LINE",
"2139 0 LINE",
"1074 0 LINE SMOOTH",
"497 0 OFFCURVE",
"194 257 OFFCURVE",
"194 748 CURVE SMOOTH",
"194 1235 OFFCURVE",
"497 1493 OFFCURVE",
"1074 1493 CURVE SMOOTH"
);
},
{
closed = 1;
nodes = (
"1177 1363 LINE",
"1048 1363 LINE SMOOTH",
"620 1363 OFFCURVE",
"407 1185 OFFCURVE",
"407 748 CURVE SMOOTH",
"407 509 OFFCURVE",
"620 280 OFFCURVE",
"1048 280 CURVE SMOOTH",
"1177 280 LINE"
);
}
);
width = 2334;
}
);
unicode = 0152;
},
{
glyphname = oe;
lastChange = "2012-05-24 21:38:30 +0000";
layers = (
{
anchors = (
{
name = top;
position = "{1153, 1120}";
}
);
layerId = "6B6936E6-7670-4A82-900D-EAF583C971AF";
name = Regular;
paths = (
{
closed = 1;
nodes = (
"1909 800 LINE",
"1906 883 OFFCURVE",
"1789 1041 OFFCURVE",
"1606 1041 CURVE SMOOTH",
"1402 1041 OFFCURVE",
"1273 890 OFFCURVE",
"1254 799 CURVE"
);
},
{
closed = 1;
nodes = (
"2094 666 LINE",
"1248 666 LINE",
"1264 213 OFFCURVE",
"1403 187 OFFCURVE",
"1647 187 CURVE SMOOTH",
"1788 187 OFFCURVE",
"1920 222 OFFCURVE",
"2051 291 CURVE",
"2051 57 LINE",
"1918 1 OFFCURVE",
"1778 -29 OFFCURVE",
"1637 -29 CURVE SMOOTH",
"1424 -29 OFFCURVE",
"1262 45 OFFCURVE",
"1154 190 CURVE",
"1059 43 OFFCURVE",
"921 -29 OFFCURVE",
"734 -29 CURVE SMOOTH",
"413 -29 OFFCURVE",
"220 192 OFFCURVE",
"220 559 CURVE SMOOTH",
"220 927 OFFCURVE",
"413 1147 OFFCURVE",
"734 1147 CURVE SMOOTH",
"921 1147 OFFCURVE",
"1063 1072 OFFCURVE",
"1151 928 CURVE",
"1255 1071 OFFCURVE",
"1413 1147 OFFCURVE",
"1604 1147 CURVE SMOOTH",
"1905 1147 OFFCURVE",
"2094 889 OFFCURVE",
"2094 756 CURVE SMOOTH"
);
},
{
closed = 1;
nodes = (
"537 1021 OFFCURVE",
"414 870 OFFCURVE",
"414 623 CURVE SMOOTH",
"414 376 OFFCURVE",
"535 225 OFFCURVE",
"734 225 CURVE SMOOTH",
"930 225 OFFCURVE",
"1053 378 OFFCURVE",
"1053 623 CURVE SMOOTH",
"1053 867 OFFCURVE",
"930 1021 OFFCURVE",
"734 1021 CURVE SMOOTH"
);
}
);
width = 2306;
}
);
unicode = 0153;
},
{
glyphname = Scedilla;
lastChange = "2012-05-24 21:38:30 +0000";
layers = (
{
layerId = "6B6936E6-7670-4A82-900D-EAF583C971AF";
name = Regular;
paths = (
{
closed = 1;
nodes = (
"1169 1247 LINE",
"1016 1320 OFFCURVE",
"882 1356 OFFCURVE",
"755 1356 CURVE SMOOTH",
"535 1356 OFFCURVE",
"411 1267 OFFCURVE",
"411 1110 CURVE SMOOTH",
"411 978 OFFCURVE",
"475 920 OFFCURVE",
"696 879 CURVE SMOOTH",
"818 854 LINE SMOOTH",
"1119 797 OFFCURVE",
"1259 655 OFFCURVE",
"1259 412 CURVE SMOOTH",
"1259 123 OFFCURVE",
"1062 -29 OFFCURVE",
"687 -29 CURVE SMOOTH",
"546 -29 OFFCURVE",
"385 3 OFFCURVE",
"214 66 CURVE",
"214 384 LINE",
"378 292 OFFCURVE",
"535 245 OFFCURVE",
"687 245 CURVE SMOOTH",
"918 245 OFFCURVE",
"1048 359 OFFCURVE",
"1048 447 CURVE SMOOTH",
"1048 527 OFFCURVE",
"964 621 OFFCURVE",
"759 662 CURVE SMOOTH",
"636 686 LINE SMOOTH",
"335 746 OFFCURVE",
"208 866 OFFCURVE",
"208 1094 CURVE SMOOTH",
"208 1358 OFFCURVE",
"405 1520 OFFCURVE",
"732 1520 CURVE SMOOTH",
"872 1520 OFFCURVE",
"1017 1495 OFFCURVE",
"1169 1444 CURVE"
);
},
{
closed = 1;
nodes = (
"506 0 LINE",
"579 -83 OFFCURVE",
"615 -151 OFFCURVE",
"615 -215 CURVE SMOOTH",
"615 -334 OFFCURVE",
"534 -395 OFFCURVE",
"377 -395 CURVE SMOOTH",
"316 -395 OFFCURVE",
"258 -387 OFFCURVE",
"201 -371 CURVE",
"201 -240 LINE",
"246 -263 OFFCURVE",
"293 -272 OFFCURVE",
"356 -272 CURVE SMOOTH",
"435 -272 OFFCURVE",
"475 -239 OFFCURVE",
"475 -178 CURVE SMOOTH",
"475 -138 OFFCURVE",
"447 -81 OFFCURVE",
"387 0 CURVE"
);
}
);
width = 1300;
}
);
unicode = 015E;
},
{
glyphname = scedilla;
lastChange = "2012-05-24 21:38:30 +0000";
layers = (
{
layerId = "6B6936E6-7670-4A82-900D-EAF583C971AF";
name = Regular;
paths = (
{
closed = 1;
nodes = (
"1004 933 LINE",
"900 986 OFFCURVE",
"788 1013 OFFCURVE",
"668 1013 CURVE SMOOTH",
"485 1013 OFFCURVE",
"384 947 OFFCURVE",
"384 835 CURVE SMOOTH",
"384 736 OFFCURVE",
"443 689 OFFCURVE",
"640 645 CURVE SMOOTH",
"703 631 LINE SMOOTH",
"964 575 OFFCURVE",
"1064 492 OFFCURVE",
"1064 309 CURVE SMOOTH",
"1064 101 OFFCURVE",
"889 -29 OFFCURVE",
"601 -29 CURVE SMOOTH",
"481 -29 OFFCURVE",
"352 -6 OFFCURVE",
"208 41 CURVE",
"208 311 LINE",
"344 240 OFFCURVE",
"476 205 OFFCURVE",
"605 205 CURVE SMOOTH",
"778 205 OFFCURVE",
"855 259 OFFCURVE",
"855 355 CURVE",
"833 395 OFFCURVE",
"814 424 OFFCURVE",
"798 443 CURVE SMOOTH",
"782 461 OFFCURVE",
"717 482 OFFCURVE",
"603 507 CURVE SMOOTH",
"539 522 LINE SMOOTH",
"311 570 OFFCURVE",
"216 644 OFFCURVE",
"216 817 CURVE SMOOTH",
"216 1028 OFFCURVE",
"371 1147 OFFCURVE",
"646 1147 CURVE SMOOTH",
"782 1147 OFFCURVE",
"903 1127 OFFCURVE",
"1004 1087 CURVE"
);
},
{
closed = 1;
nodes = (
"390 0 LINE",
"463 -83 OFFCURVE",
"499 -151 OFFCURVE",
"499 -215 CURVE SMOOTH",
"499 -334 OFFCURVE",
"418 -395 OFFCURVE",
"261 -395 CURVE SMOOTH",
"200 -395 OFFCURVE",
"142 -387 OFFCURVE",
"85 -371 CURVE",
"85 -240 LINE",
"130 -263 OFFCURVE",
"177 -272 OFFCURVE",
"240 -272 CURVE SMOOTH",
"319 -272 OFFCURVE",
"359 -239 OFFCURVE",
"359 -178 CURVE SMOOTH",
"359 -138 OFFCURVE",
"331 -81 OFFCURVE",
"271 0 CURVE"
);
}
);
width = 1067;
}
);
unicode = 015F;
},
{
glyphname = Scaron;
lastChange = "2012-05-24 21:38:30 +0000";
layers = (
{
layerId = "6B6936E6-7670-4A82-900D-EAF583C971AF";
name = Regular;
paths = (
{
closed = 1;
nodes = (
"1169 1247 LINE",
"1016 1320 OFFCURVE",
"882 1356 OFFCURVE",
"755 1356 CURVE SMOOTH",
"535 1356 OFFCURVE",
"411 1267 OFFCURVE",
"411 1110 CURVE SMOOTH",
"411 978 OFFCURVE",
"475 920 OFFCURVE",
"696 879 CURVE SMOOTH",
"818 854 LINE SMOOTH",
"1119 797 OFFCURVE",
"1259 655 OFFCURVE",
"1259 412 CURVE SMOOTH",
"1259 123 OFFCURVE",
"1062 -29 OFFCURVE",
"687 -29 CURVE SMOOTH",
"546 -29 OFFCURVE",
"385 3 OFFCURVE",
"214 66 CURVE",
"214 384 LINE",
"378 292 OFFCURVE",
"535 245 OFFCURVE",
"687 245 CURVE SMOOTH",
"918 245 OFFCURVE",
"1048 359 OFFCURVE",
"1048 447 CURVE SMOOTH",
"1048 527 OFFCURVE",
"964 621 OFFCURVE",
"759 662 CURVE SMOOTH",
"636 686 LINE SMOOTH",
"335 746 OFFCURVE",
"208 866 OFFCURVE",
"208 1094 CURVE SMOOTH",
"208 1358 OFFCURVE",
"405 1520 OFFCURVE",
"732 1520 CURVE SMOOTH",
"872 1520 OFFCURVE",
"1017 1495 OFFCURVE",
"1169 1444 CURVE"
);
},
{
closed = 1;
nodes = (
"447 1635 LINE",
"236 1901 LINE",
"375 1901 LINE",
"541 1723 LINE",
"707 1901 LINE",
"846 1901 LINE",
"635 1635 LINE"
);
}
);
width = 1300;
}
);
unicode = 0160;
},
{
glyphname = scaron;
lastChange = "2012-05-24 21:38:30 +0000";
layers = (
{
layerId = "6B6936E6-7670-4A82-900D-EAF583C971AF";
name = Regular;
paths = (
{
closed = 1;
nodes = (
"1004 933 LINE",
"900 986 OFFCURVE",
"788 1013 OFFCURVE",
"668 1013 CURVE SMOOTH",
"485 1013 OFFCURVE",
"384 947 OFFCURVE",
"384 835 CURVE SMOOTH",
"384 736 OFFCURVE",
"443 689 OFFCURVE",
"640 645 CURVE SMOOTH",
"703 631 LINE SMOOTH",
"964 575 OFFCURVE",
"1064 492 OFFCURVE",
"1064 309 CURVE SMOOTH",
"1064 101 OFFCURVE",
"889 -29 OFFCURVE",
"601 -29 CURVE SMOOTH",
"481 -29 OFFCURVE",
"352 -6 OFFCURVE",
"208 41 CURVE",
"208 311 LINE",
"344 240 OFFCURVE",
"476 205 OFFCURVE",
"605 205 CURVE SMOOTH",
"778 205 OFFCURVE",
"855 259 OFFCURVE",
"855 355 CURVE",
"833 395 OFFCURVE",
"814 424 OFFCURVE",
"798 443 CURVE SMOOTH",
"782 461 OFFCURVE",
"717 482 OFFCURVE",
"603 507 CURVE SMOOTH",
"539 522 LINE SMOOTH",
"311 570 OFFCURVE",
"216 644 OFFCURVE",
"216 817 CURVE SMOOTH",
"216 1028 OFFCURVE",
"371 1147 OFFCURVE",
"646 1147 CURVE SMOOTH",
"782 1147 OFFCURVE",
"903 1127 OFFCURVE",
"1004 1087 CURVE"
);
},
{
closed = 1;
nodes = (
"352 1262 LINE",
"107 1638 LINE",
"246 1638 LINE",
"426 1393 LINE",
"606 1638 LINE",
"745 1638 LINE",
"500 1262 LINE"
);
}
);
width = 1067;
}
);
unicode = 0161;
},
{
glyphname = Ydieresis;
lastChange = "2012-05-24 21:38:30 +0000";
layers = (
{
layerId = "6B6936E6-7670-4A82-900D-EAF583C971AF";
name = Regular;
paths = (
{
closed = 1;
nodes = (
"64 1493 LINE",
"281 1493 LINE",
"695 729 LINE",
"1106 1493 LINE",
"1323 1493 LINE",
"825 511 LINE",
"825 0 LINE",
"552 0 LINE",
"552 511 LINE"
);
},
{
closed = 1;
nodes = (
"781 1870 LINE",
"984 1870 LINE",
"984 1667 LINE",
"781 1667 LINE"
);
},
{
closed = 1;
nodes = (
"390 1870 LINE",
"593 1870 LINE",
"593 1667 LINE",
"390 1667 LINE"
);
}
);
width = 1251;
}
);
unicode = 0178;
},
{
glyphname = Zcaron;
lastChange = "2012-05-24 21:38:30 +0000";
layers = (
{
layerId = "6B6936E6-7670-4A82-900D-EAF583C971AF";
name = Regular;
paths = (
{
closed = 1;
nodes = (
"190 1493 LINE",
"1363 1493 LINE",
"1363 1339 LINE",
"419 300 LINE",
"1386 300 LINE",
"1386 0 LINE",
"167 0 LINE",
"167 284 LINE",
"1111 1323 LINE",
"190 1323 LINE"
);
},
{
closed = 1;
nodes = (
"498 1635 LINE",
"287 1901 LINE",
"426 1901 LINE",
"592 1723 LINE",
"758 1901 LINE",
"897 1901 LINE",
"686 1635 LINE"
);
}
);
width = 1403;
}
);
unicode = 017D;
},
{
glyphname = zcaron;
lastChange = "2012-05-24 21:38:30 +0000";
layers = (
{
layerId = "6B6936E6-7670-4A82-900D-EAF583C971AF";
name = Regular;
paths = (
{
closed = 1;
nodes = (
"219 1120 LINE",
"1083 1120 LINE",
"1083 952 LINE",
"451 247 LINE",
"1073 247 LINE",
"1073 0 LINE",
"174 0 LINE",
"174 268 LINE",
"886 983 LINE",
"219 983 LINE"
);
},
{
closed = 1;
nodes = (
"356 1262 LINE",
"111 1638 LINE",
"250 1638 LINE",
"430 1393 LINE",
"610 1638 LINE",
"749 1638 LINE",
"504 1262 LINE"
);
}
);
width = 1075;
}
);
unicode = 017E;
},
{
glyphname = florin;
lastChange = "2012-05-24 21:38:30 +0000";
layers = (
{
layerId = "6B6936E6-7670-4A82-900D-EAF583C971AF";
name = Regular;
paths = (
{
closed = 1;
nodes = (
"1271 1376 LINE",
"1220 1415 OFFCURVE",
"1168 1433 OFFCURVE",
"1109 1433 CURVE SMOOTH",
"981 1433 OFFCURVE",
"907 1355 OFFCURVE",
"874 1179 CURVE SMOOTH",
"814 848 LINE",
"1101 868 LINE",
"1101 725 LINE",
"784 705 LINE",
"717 220 LINE SMOOTH",
"653 -267 OFFCURVE",
"473 -426 OFFCURVE",
"225 -426 CURVE SMOOTH",
"148 -426 OFFCURVE",
"83 -412 OFFCURVE",
"20 -383 CURVE",
"80 -67 LINE",
"149 -111 OFFCURVE",
"213 -133 OFFCURVE",
"276 -133 CURVE SMOOTH",
"405 -133 OFFCURVE",
"471 -51 OFFCURVE",
"516 170 CURVE",
"593 705 LINE",
"345 685 LINE",
"345 828 LINE",
"624 848 LINE",
"687 1178 LINE SMOOTH",
"735 1422 OFFCURVE",
"871 1556 OFFCURVE",
"1072 1556 CURVE SMOOTH",
"1143 1556 OFFCURVE",
"1210 1544 OFFCURVE",
"1271 1520 CURVE"
);
}
);
width = 1281;
}
);
unicode = 0192;
},
{
glyphname = circumflex;
lastChange = "2012-05-24 21:38:30 +0000";
layers = (
{
anchors = (
{
name = _top;
position = "{407, 1120}";
}
);
layerId = "6B6936E6-7670-4A82-900D-EAF583C971AF";
name = Regular;
paths = (
{
closed = 1;
nodes = (
"333 1638 LINE",
"481 1638 LINE",
"726 1262 LINE",
"587 1262 LINE",
"407 1507 LINE",
"227 1262 LINE",
"88 1262 LINE"
);
}
);
width = 813;
}
);
unicode = 02C6;
},
{
glyphname = caron;
lastChange = "2012-05-24 21:38:30 +0000";
layers = (
{
anchors = (
{
name = _top;
position = "{403, 1120}";
}
);
layerId = "6B6936E6-7670-4A82-900D-EAF583C971AF";
name = Regular;
paths = (
{
closed = 1;
nodes = (
"329 1262 LINE",
"84 1638 LINE",
"223 1638 LINE",
"403 1393 LINE",
"583 1638 LINE",
"722 1638 LINE",
"477 1262 LINE"
);
}
);
width = 807;
}
);
unicode = 02C7;
},
{
glyphname = breve;
lastChange = "2012-05-24 21:38:30 +0000";
layers = (
{
anchors = (
{
name = _top;
position = "{483, 1120}";
}
);
layerId = "6B6936E6-7670-4A82-900D-EAF583C971AF";
name = Regular;
paths = (
{
closed = 1;
nodes = (
"288 1608 LINE",
"303 1508 OFFCURVE",
"367 1458 OFFCURVE",
"483 1458 CURVE SMOOTH",
"598 1458 OFFCURVE",
"661 1507 OFFCURVE",
"678 1608 CURVE",
"796 1608 LINE",
"783 1417 OFFCURVE",
"676 1321 OFFCURVE",
"483 1321 CURVE SMOOTH",
"290 1321 OFFCURVE",
"183 1417 OFFCURVE",
"170 1608 CURVE"
);
}
);
width = 963;
}
);
unicode = 02D8;
},
{
glyphname = dotaccent;
lastChange = "2012-05-24 21:38:30 +0000";
layers = (
{
anchors = (
{
name = _top;
position = "{377, 1120}";
}
);
layerId = "6B6936E6-7670-4A82-900D-EAF583C971AF";
name = Regular;
paths = (
{
closed = 1;
nodes = (
"275 1552 LINE",
"479 1552 LINE",
"479 1348 LINE",
"275 1348 LINE"
);
}
);
width = 747;
}
);
unicode = 02D9;
},
{
glyphname = ring;
lastChange = "2012-05-24 21:38:30 +0000";
layers = (
{
anchors = (
{
name = _top;
position = "{440, 1120}";
}
);
layerId = "6B6936E6-7670-4A82-900D-EAF583C971AF";
name = Regular;
paths = (
{
closed = 1;
nodes = (
"592 1608 OFFCURVE",
"525 1675 OFFCURVE",
"440 1675 CURVE SMOOTH",
"353 1675 OFFCURVE",
"288 1609 OFFCURVE",
"288 1524 CURVE SMOOTH",
"288 1437 OFFCURVE",
"353 1372 OFFCURVE",
"440 1372 CURVE SMOOTH",
"525 1372 OFFCURVE",
"592 1439 OFFCURVE",
"592 1524 CURVE SMOOTH"
);
},
{
closed = 1;
nodes = (
"714 1371 OFFCURVE",
"593 1249 OFFCURVE",
"440 1249 CURVE SMOOTH",
"287 1249 OFFCURVE",
"166 1371 OFFCURVE",
"166 1524 CURVE SMOOTH",
"166 1677 OFFCURVE",
"287 1798 OFFCURVE",
"440 1798 CURVE SMOOTH",
"593 1798 OFFCURVE",
"714 1677 OFFCURVE",
"714 1524 CURVE SMOOTH"
);
}
);
width = 879;
}
);
unicode = 02DA;
},
{
glyphname = ogonek;
lastChange = "2012-05-24 21:38:30 +0000";
layers = (
{
anchors = (
{
name = _ogonek;
position = "{542, 10}";
}
);
layerId = "6B6936E6-7670-4A82-900D-EAF583C971AF";
name = Regular;
paths = (
{
closed = 1;
nodes = (
"396 0 LINE",
"336 -81 OFFCURVE",
"308 -139 OFFCURVE",
"308 -180 CURVE SMOOTH",
"308 -241 OFFCURVE",
"345 -272 OFFCURVE",
"417 -272 CURVE SMOOTH",
"460 -272 OFFCURVE",
"501 -262 OFFCURVE",
"542 -242 CURVE",
"542 -375 LINE",
"491 -388 OFFCURVE",
"446 -395 OFFCURVE",
"406 -395 CURVE SMOOTH",
"243 -395 OFFCURVE",
"169 -339 OFFCURVE",
"169 -215 CURVE SMOOTH",
"169 -151 OFFCURVE",
"204 -83 OFFCURVE",
"277 0 CURVE"
);
}
);
width = 618;
}
);
unicode = 02DB;
},
{
glyphname = tilde;
lastChange = "2012-05-24 21:38:30 +0000";
layers = (
{
anchors = (
{
name = _top;
position = "{544, 1120}";
}
);
layerId = "6B6936E6-7670-4A82-900D-EAF583C971AF";
name = Regular;
paths = (
{
closed = 1;
nodes = (
"483 1425 LINE SMOOTH",
"454 1452 OFFCURVE",
"432 1464 OFFCURVE",
"415 1464 CURVE SMOOTH",
"390 1464 OFFCURVE",
"371 1452 OFFCURVE",
"359 1428 CURVE SMOOTH",
"347 1403 OFFCURVE",
"340 1364 OFFCURVE",
"339 1309 CURVE",
"214 1309 LINE",
"217 1489 OFFCURVE",
"288 1591 OFFCURVE",
"409 1591 CURVE SMOOTH",
"460 1591 OFFCURVE",
"499 1574 OFFCURVE",
"548 1530 CURVE",
"605 1475 LINE SMOOTH",
"634 1448 OFFCURVE",
"656 1436 OFFCURVE",
"673 1436 CURVE SMOOTH",
"698 1436 OFFCURVE",
"717 1448 OFFCURVE",
"729 1473 CURVE SMOOTH",
"741 1497 OFFCURVE",
"748 1536 OFFCURVE",
"749 1591 CURVE",
"874 1591 LINE",
"871 1411 OFFCURVE",
"800 1309 OFFCURVE",
"679 1309 CURVE SMOOTH",
"628 1309 OFFCURVE",
"589 1326 OFFCURVE",
"540 1370 CURVE"
);
}
);
width = 1083;
}
);
unicode = 02DC;
},
{
glyphname = hungarumlaut;
lastChange = "2012-05-24 21:38:30 +0000";
layers = (
{
anchors = (
{
name = _top;
position = "{484, 1120}";
}
);
layerId = "6B6936E6-7670-4A82-900D-EAF583C971AF";
name = Regular;
paths = (
{
closed = 1;
nodes = (
"657 1638 LINE",
"835 1638 LINE",
"587 1262 LINE",
"452 1262 LINE"
);
},
{
closed = 1;
nodes = (
"323 1638 LINE",
"493 1638 LINE",
"270 1262 LINE",
"133 1262 LINE"
);
}
);
width = 931;
}
);
unicode = 02DD;
},
{
glyphname = pi;
lastChange = "2012-05-24 21:38:30 +0000";
layers = (
{
layerId = "6B6936E6-7670-4A82-900D-EAF583C971AF";
name = Regular;
paths = (
{
closed = 1;
nodes = (
"1333 923 LINE",
"1151 923 LINE",
"1046 426 LINE SMOOTH",
"1036 377 OFFCURVE",
"1029 337 OFFCURVE",
"1024 306 CURVE SMOOTH",
"1019 275 OFFCURVE",
"1016 253 OFFCURVE",
"1016 238 CURVE SMOOTH",
"1016 161 OFFCURVE",
"1045 131 OFFCURVE",
"1118 131 CURVE SMOOTH",
"1141 131 OFFCURVE",
"1169 134 OFFCURVE",
"1218 141 CURVE",
"1188 -70 LINE",
"1148 -81 OFFCURVE",
"1112 -86 OFFCURVE",
"1077 -86 CURVE SMOOTH",
"920 -86 OFFCURVE",
"788 53 OFFCURVE",
"788 186 CURVE SMOOTH",
"788 217 OFFCURVE",
"792 256 OFFCURVE",
"799 304 CURVE SMOOTH",
"806 352 OFFCURVE",
"827 430 OFFCURVE",
"863 537 CURVE",
"973 923 LINE",
"647 923 LINE",
"483 0 LINE",
"192 0 LINE",
"467 923 LINE",
"426 923 LINE SMOOTH",
"354 923 OFFCURVE",
"315 885 OFFCURVE",
"303 780 CURVE",
"143 780 LINE",
"180 1001 OFFCURVE",
"259 1071 OFFCURVE",
"479 1071 CURVE SMOOTH",
"1368 1071 LINE"
);
}
);
width = 1536;
}
);
unicode = 03C0;
},
{
glyphname = endash;
lastChange = "2012-05-24 21:38:30 +0000";
layers = (
{
layerId = "6B6936E6-7670-4A82-900D-EAF583C971AF";
name = Regular;
paths = (
{
closed = 1;
nodes = (
"275 633 LINE",
"1299 633 LINE",
"1299 489 LINE",
"275 489 LINE"
);
}
);
width = 1573;
}
);
unicode = 2013;
},
{
glyphname = emdash;
lastChange = "2012-05-24 21:38:30 +0000";
layers = (
{
layerId = "6B6936E6-7670-4A82-900D-EAF583C971AF";
name = Regular;
paths = (
{
closed = 1;
nodes = (
"275 633 LINE",
"2323 633 LINE",
"2323 489 LINE",
"275 489 LINE"
);
}
);
width = 2597;
}
);
unicode = 2014;
},
{
glyphname = quoteleft;
lastChange = "2012-05-24 21:38:30 +0000";
layers = (
{
layerId = "6B6936E6-7670-4A82-900D-EAF583C971AF";
name = Regular;
paths = (
{
closed = 1;
nodes = (
"354 914 LINE",
"94 914 LINE",
"94 1126 LINE",
"295 1519 LINE",
"454 1519 LINE",
"354 1126 LINE"
);
}
);
width = 562;
}
);
unicode = 2018;
},
{
glyphname = quoteright;
lastChange = "2012-05-24 21:38:30 +0000";
layers = (
{
layerId = "6B6936E6-7670-4A82-900D-EAF583C971AF";
name = Regular;
paths = (
{
closed = 1;
nodes = (
"211 1510 LINE",
"467 1510 LINE",
"467 1325 LINE",
"268 939 LINE",
"112 939 LINE",
"211 1325 LINE"
);
}
);
width = 551;
}
);
unicode = 2019;
},
{
glyphname = quotesinglbase;
lastChange = "2012-05-24 21:38:30 +0000";
layers = (
{
layerId = "6B6936E6-7670-4A82-900D-EAF583C971AF";
name = Regular;
paths = (
{
closed = 1;
nodes = (
"193 254 LINE",
"404 254 LINE",
"404 82 LINE",
"240 -238 LINE",
"111 -238 LINE",
"193 82 LINE"
);
}
);
width = 494;
}
);
unicode = 201A;
},
{
glyphname = quotedblleft;
lastChange = "2012-05-24 21:38:30 +0000";
layers = (
{
layerId = "6B6936E6-7670-4A82-900D-EAF583C971AF";
name = Regular;
paths = (
{
closed = 1;
nodes = (
"449 881 LINE",
"187 881 LINE",
"187 1096 LINE",
"391 1493 LINE",
"551 1493 LINE",
"449 1096 LINE"
);
},
{
closed = 1;
nodes = (
"959 881 LINE",
"697 881 LINE",
"697 1096 LINE",
"901 1493 LINE",
"1061 1493 LINE",
"959 1096 LINE"
);
}
);
width = 1257;
}
);
unicode = 201C;
},
{
glyphname = quotedblright;
lastChange = "2012-05-24 21:38:30 +0000";
layers = (
{
layerId = "6B6936E6-7670-4A82-900D-EAF583C971AF";
name = Regular;
paths = (
{
closed = 1;
nodes = (
"293 1493 LINE",
"539 1493 LINE",
"539 1293 LINE",
"348 921 LINE",
"198 921 LINE",
"293 1293 LINE"
);
},
{
closed = 1;
nodes = (
"770 1493 LINE",
"1015 1493 LINE",
"1015 1293 LINE",
"824 921 LINE",
"674 921 LINE",
"770 1293 LINE"
);
}
);
width = 1200;
}
);
unicode = 201D;
},
{
glyphname = quotedblbase;
lastChange = "2012-05-24 21:38:30 +0000";
layers = (
{
layerId = "6B6936E6-7670-4A82-900D-EAF583C971AF";
name = Regular;
paths = (
{
closed = 1;
nodes = (
"816 380 LINE",
"1081 380 LINE",
"1081 164 LINE",
"875 -238 LINE",
"713 -238 LINE",
"816 164 LINE"
);
},
{
closed = 1;
nodes = (
"301 380 LINE",
"566 380 LINE",
"566 164 LINE",
"360 -238 LINE",
"198 -238 LINE",
"301 164 LINE"
);
}
);
width = 1266;
}
);
unicode = 201E;
},
{
glyphname = dagger;
lastChange = "2012-05-24 21:38:30 +0000";
layers = (
{
layerId = "6B6936E6-7670-4A82-900D-EAF583C971AF";
name = Regular;
paths = (
{
closed = 1;
nodes = (
"371 1493 LINE",
"547 1493 LINE",
"547 1073 LINE",
"914 1073 LINE",
"914 920 LINE",
"547 920 LINE",
"547 -197 LINE",
"371 -197 LINE",
"371 920 LINE",
"4 920 LINE",
"4 1073 LINE",
"371 1073 LINE"
);
}
);
width = 917;
}
);
unicode = 2020;
},
{
glyphname = daggerdbl;
lastChange = "2012-05-24 21:38:30 +0000";
layers = (
{
layerId = "6B6936E6-7670-4A82-900D-EAF583C971AF";
name = Regular;
paths = (
{
closed = 1;
nodes = (
"935 153 LINE",
"608 153 LINE",
"628 -197 LINE",
"332 -197 LINE",
"352 153 LINE",
"25 153 LINE",
"25 377 LINE",
"372 377 LINE",
"392 920 LINE",
"25 920 LINE",
"25 1073 LINE",
"392 1073 LINE",
"392 1493 LINE",
"568 1493 LINE",
"568 1073 LINE",
"935 1073 LINE",
"935 920 LINE",
"568 920 LINE",
"588 377 LINE",
"935 377 LINE"
);
}
);
width = 959;
}
);
unicode = 2021;
},
{
glyphname = bullet;
lastChange = "2012-05-24 21:38:30 +0000";
layers = (
{
layerId = "6B6936E6-7670-4A82-900D-EAF583C971AF";
name = Regular;
paths = (
{
closed = 1;
nodes = (
"166 927 OFFCURVE",
"297 1057 OFFCURVE",
"465 1057 CURVE SMOOTH",
"630 1057 OFFCURVE",
"760 927 OFFCURVE",
"760 762 CURVE SMOOTH",
"760 595 OFFCURVE",
"630 465 OFFCURVE",
"463 465 CURVE SMOOTH",
"296 465 OFFCURVE",
"166 595 OFFCURVE",
"166 762 CURVE SMOOTH"
);
}
);
width = 926;
}
);
unicode = 2022;
},
{
glyphname = ellipsis;
lastChange = "2012-05-24 21:38:30 +0000";
layers = (
{
layerId = "6B6936E6-7670-4A82-900D-EAF583C971AF";
name = Regular;
paths = (
{
closed = 1;
nodes = (
"957 364 LINE",
"1279 364 LINE",
"1279 0 LINE",
"957 0 LINE"
);
},
{
closed = 1;
nodes = (
"1638 364 LINE",
"1961 364 LINE",
"1961 0 LINE",
"1638 0 LINE"
);
},
{
closed = 1;
nodes = (
"275 364 LINE",
"598 364 LINE",
"598 0 LINE",
"275 0 LINE"
);
}
);
width = 2235;
}
);
unicode = 2026;
},
{
glyphname = perthousand;
lastChange = "2012-05-24 21:38:30 +0000";
layers = (
{
layerId = "6B6936E6-7670-4A82-900D-EAF583C971AF";
name = Regular;
paths = (
{
closed = 1;
nodes = (
"2262 657 OFFCURVE",
"2191 582 OFFCURVE",
"2191 457 CURVE SMOOTH",
"2191 333 OFFCURVE",
"2262 257 OFFCURVE",
"2378 257 CURVE SMOOTH",
"2491 257 OFFCURVE",
"2562 333 OFFCURVE",
"2562 457 CURVE SMOOTH",
"2562 581 OFFCURVE",
"2491 657 OFFCURVE",
"2378 657 CURVE SMOOTH"
);
},
{
closed = 1;
nodes = (
"2589 784 OFFCURVE",
"2722 626 OFFCURVE",
"2722 377 CURVE SMOOTH",
"2722 128 OFFCURVE",
"2587 -29 OFFCURVE",
"2378 -29 CURVE SMOOTH",
"2165 -29 OFFCURVE",
"2032 128 OFFCURVE",
"2032 377 CURVE SMOOTH",
"2032 628 OFFCURVE",
"2166 784 OFFCURVE",
"2378 784 CURVE SMOOTH"
);
},
{
closed = 1;
nodes = (
"754 1520 OFFCURVE",
"889 1363 OFFCURVE",
"889 1114 CURVE SMOOTH",
"889 862 OFFCURVE",
"755 707 OFFCURVE",
"543 707 CURVE SMOOTH",
"331 707 OFFCURVE",
"199 863 OFFCURVE",
"199 1114 CURVE SMOOTH",
"199 1362 OFFCURVE",
"332 1520 OFFCURVE",
"543 1520 CURVE SMOOTH"
);
},
{
closed = 1;
nodes = (
"1446 1520 LINE",
"1606 1520 LINE",
"672 -29 LINE",
"442 -29 LINE"
);
},
{
closed = 1;
nodes = (
"428 1393 OFFCURVE",
"358 1311 OFFCURVE",
"358 1175 CURVE SMOOTH",
"358 1038 OFFCURVE",
"427 957 OFFCURVE",
"543 957 CURVE SMOOTH",
"659 957 OFFCURVE",
"729 1038 OFFCURVE",
"729 1175 CURVE SMOOTH",
"729 1310 OFFCURVE",
"658 1393 OFFCURVE",
"543 1393 CURVE SMOOTH"
);
},
{
closed = 1;
nodes = (
"1786 784 OFFCURVE",
"1919 626 OFFCURVE",
"1919 377 CURVE SMOOTH",
"1919 128 OFFCURVE",
"1784 -29 OFFCURVE",
"1575 -29 CURVE SMOOTH",
"1362 -29 OFFCURVE",
"1229 128 OFFCURVE",
"1229 377 CURVE SMOOTH",
"1229 628 OFFCURVE",
"1363 784 OFFCURVE",
"1575 784 CURVE SMOOTH"
);
},
{
closed = 1;
nodes = (
"1459 657 OFFCURVE",
"1389 582 OFFCURVE",
"1389 457 CURVE SMOOTH",
"1389 333 OFFCURVE",
"1459 257 OFFCURVE",
"1575 257 CURVE SMOOTH",
"1688 257 OFFCURVE",
"1759 333 OFFCURVE",
"1759 457 CURVE SMOOTH",
"1759 581 OFFCURVE",
"1688 657 OFFCURVE",
"1575 657 CURVE SMOOTH"
);
}
);
width = 2805;
}
);
unicode = 2030;
},
{
glyphname = guilsinglleft;
lastChange = "2012-05-24 21:38:30 +0000";
layers = (
{
layerId = "6B6936E6-7670-4A82-900D-EAF583C971AF";
name = Regular;
paths = (
{
closed = 1;
nodes = (
"469 1059 LINE",
"469 868 LINE",
"168 600 LINE",
"469 332 LINE",
"469 141 LINE",
"0 559 LINE",
"0 641 LINE"
);
}
);
width = 736;
}
);
unicode = 2039;
},
{
glyphname = guilsinglright;
lastChange = "2012-05-24 21:38:30 +0000";
layers = (
{
layerId = "6B6936E6-7670-4A82-900D-EAF583C971AF";
name = Regular;
paths = (
{
closed = 1;
nodes = (
"275 1059 LINE",
"744 641 LINE",
"744 559 LINE",
"275 141 LINE",
"275 332 LINE",
"576 600 LINE",
"275 868 LINE"
);
}
);
width = 744;
}
);
unicode = 203A;
},
{
glyphname = fraction;
lastChange = "2012-05-24 21:38:30 +0000";
layers = (
{
layerId = "6B6936E6-7670-4A82-900D-EAF583C971AF";
name = Regular;
paths = (
{
closed = 1;
nodes = (
"932 1520 LINE",
"1092 1520 LINE",
"160 -29 LINE",
"0 -29 LINE"
);
}
);
width = 1092;
}
);
unicode = 2044;
},
{
glyphname = Euro;
lastChange = "2012-05-24 21:38:30 +0000";
layers = (
{
layerId = "6B6936E6-7670-4A82-900D-EAF583C971AF";
name = Regular;
paths = (
{
closed = 1;
nodes = (
"1228 1215 LINE",
"1107 1355 OFFCURVE",
"1002 1410 OFFCURVE",
"866 1410 CURVE SMOOTH",
"657 1410 OFFCURVE",
"518 1222 OFFCURVE",
"475 973 CURVE",
"1052 973 LINE",
"997 850 LINE",
"459 850 LINE",
"456 818 OFFCURVE",
"456 792 OFFCURVE",
"456 745 CURVE SMOOTH",
"456 702 OFFCURVE",
"456 675 OFFCURVE",
"459 643 CURVE",
"905 643 LINE",
"849 480 LINE",
"485 480 LINE",
"501 404 OFFCURVE",
"647 221 OFFCURVE",
"856 221 CURVE SMOOTH",
"992 221 OFFCURVE",
"1093 276 OFFCURVE",
"1228 416 CURVE",
"1228 115 LINE",
"1109 19 OFFCURVE",
"986 -29 OFFCURVE",
"858 -29 CURVE SMOOTH",
"542 -29 OFFCURVE",
"322 188 OFFCURVE",
"282 480 CURVE",
"61 480 LINE",
"116 643 LINE",
"255 643 LINE",
"255 658 OFFCURVE",
"255 674 OFFCURVE",
"255 690 CURVE",
"254 705 OFFCURVE",
"254 724 OFFCURVE",
"254 745 CURVE SMOOTH",
"254 768 OFFCURVE",
"254 788 OFFCURVE",
"255 804 CURVE",
"255 819 OFFCURVE",
"255 835 OFFCURVE",
"255 850 CURVE",
"61 850 LINE",
"116 973 LINE",
"272 973 LINE",
"325 1316 OFFCURVE",
"543 1520 OFFCURVE",
"858 1520 CURVE SMOOTH",
"989 1520 OFFCURVE",
"1112 1473 OFFCURVE",
"1228 1378 CURVE"
);
}
);
width = 1454;
}
);
unicode = 20AC;
},
{
glyphname = trademark;
lastChange = "2012-05-24 21:38:30 +0000";
layers = (
{
layerId = "6B6936E6-7670-4A82-900D-EAF583C971AF";
name = Regular;
paths = (
{
closed = 1;
nodes = (
"1011 1493 LINE",
"1175 1167 LINE",
"1349 1493 LINE",
"1519 1493 LINE",
"1539 915 LINE",
"1366 915 LINE",
"1396 1399 LINE",
"1221 966 LINE",
"1126 966 LINE",
"943 1399 LINE",
"973 915 LINE",
"799 915 LINE",
"839 1493 LINE"
);
},
{
closed = 1;
nodes = (
"716 1493 LINE",
"716 1399 LINE",
"513 1399 LINE",
"543 915 LINE",
"369 915 LINE",
"399 1399 LINE",
"198 1399 LINE",
"198 1493 LINE"
);
}
);
width = 1804;
}
);
unicode = 2122;
},
{
glyphname = Omega;
lastChange = "2012-05-24 21:38:30 +0000";
layers = (
{
anchors = (
{
name = topleft;
position = "{20, 1493}";
}
);
layerId = "6B6936E6-7670-4A82-900D-EAF583C971AF";
name = Regular;
paths = (
{
closed = 1;
nodes = (
"1611 238 LINE",
"1611 0 LINE",
"1011 0 LINE",
"1011 238 LINE",
"1247 314 OFFCURVE",
"1386 540 OFFCURVE",
"1386 809 CURVE SMOOTH",
"1386 1196 OFFCURVE",
"1194 1389 OFFCURVE",
"906 1389 CURVE SMOOTH",
"618 1389 OFFCURVE",
"425 1194 OFFCURVE",
"425 809 CURVE SMOOTH",
"425 540 OFFCURVE",
"565 314 OFFCURVE",
"802 238 CURVE",
"802 0 LINE",
"202 0 LINE",
"202 238 LINE",
"521 238 LINE",
"310 423 OFFCURVE",
"218 554 OFFCURVE",
"218 799 CURVE SMOOTH",
"218 1223 OFFCURVE",
"499 1511 OFFCURVE",
"906 1511 CURVE SMOOTH",
"1310 1511 OFFCURVE",
"1594 1221 OFFCURVE",
"1594 809 CURVE SMOOTH",
"1594 550 OFFCURVE",
"1506 426 OFFCURVE",
"1291 238 CURVE"
);
}
);
width = 1812;
}
);
unicode = 03A9;
},
{
glyphname = partialdiff;
lastChange = "2012-05-24 21:38:30 +0000";
layers = (
{
layerId = "6B6936E6-7670-4A82-900D-EAF583C971AF";
name = Regular;
paths = (
{
closed = 1;
nodes = (
"778 737 OFFCURVE",
"788 846 OFFCURVE",
"788 946 CURVE SMOOTH",
"788 1118 OFFCURVE",
"739 1206 OFFCURVE",
"643 1206 CURVE",
"520 1199 OFFCURVE",
"452 1183 OFFCURVE",
"441 1158 CURVE SMOOTH",
"430 1133 OFFCURVE",
"412 1120 OFFCURVE",
"388 1120 CURVE SMOOTH",
"340 1120 OFFCURVE",
"324 1124 OFFCURVE",
"324 1165 CURVE SMOOTH",
"324 1248 OFFCURVE",
"434 1325 OFFCURVE",
"569 1325 CURVE SMOOTH",
"809 1325 OFFCURVE",
"963 1103 OFFCURVE",
"963 752 CURVE SMOOTH",
"963 305 OFFCURVE",
"745 -25 OFFCURVE",
"461 -25 CURVE SMOOTH",
"258 -25 OFFCURVE",
"106 137 OFFCURVE",
"106 354 CURVE SMOOTH",
"106 618 OFFCURVE",
"273 809 OFFCURVE",
"489 809 CURVE SMOOTH",
"624 809 OFFCURVE",
"707 750 OFFCURVE",
"758 621 CURVE"
);
},
{
closed = 1;
nodes = (
"670 670 OFFCURVE",
"603 744 OFFCURVE",
"486 744 CURVE SMOOTH",
"326 744 OFFCURVE",
"210 582 OFFCURVE",
"210 346 CURVE SMOOTH",
"210 213 OFFCURVE",
"275 141 OFFCURVE",
"394 141 CURVE SMOOTH",
"554 141 OFFCURVE",
"670 306 OFFCURVE",
"670 538 CURVE SMOOTH"
);
}
);
width = 1127;
}
);
unicode = 2202;
},
{
glyphname = Delta;
lastChange = "2012-05-24 21:38:30 +0000";
layers = (
{
layerId = "6B6936E6-7670-4A82-900D-EAF583C971AF";
name = Regular;
paths = (
{
closed = 1;
nodes = (
"763 1382 LINE",
"345 298 LINE",
"1181 298 LINE"
);
},
{
closed = 1;
nodes = (
"652 1473 LINE",
"876 1473 LINE",
"1455 0 LINE",
"73 0 LINE"
);
}
);
width = 1528;
}
);
unicode = 0394;
},
{
glyphname = product;
lastChange = "2012-05-24 21:38:30 +0000";
layers = (
{
layerId = "6B6936E6-7670-4A82-900D-EAF583C971AF";
name = Regular;
paths = (
{
closed = 1;
nodes = (
"275 1473 LINE",
"1512 1473 LINE",
"1512 -393 LINE",
"1272 -393 LINE",
"1272 1268 LINE",
"514 1268 LINE",
"514 -393 LINE",
"275 -393 LINE"
);
}
);
width = 1786;
}
);
unicode = 220F;
},
{
glyphname = summation;
lastChange = "2012-05-24 21:38:30 +0000";
layers = (
{
layerId = "6B6936E6-7670-4A82-900D-EAF583C971AF";
name = Regular;
paths = (
{
closed = 1;
nodes = (
"264 1473 LINE",
"1522 1473 LINE",
"1522 1320 LINE",
"563 1320 LINE",
"1435 563 LINE",
"541 -121 LINE",
"1548 -121 LINE",
"1548 -393 LINE",
"234 -393 LINE",
"234 -164 LINE",
"1159 557 LINE",
"264 1336 LINE"
);
}
);
width = 1646;
}
);
unicode = 2211;
},
{
glyphname = minus;
lastChange = "2012-05-24 21:38:30 +0000";
layers = (
{
layerId = "6B6936E6-7670-4A82-900D-EAF583C971AF";
name = Regular;
paths = (
{
closed = 1;
nodes = (
"275 727 LINE",
"1557 727 LINE",
"1557 557 LINE",
"275 557 LINE"
);
}
);
width = 1831;
}
);
unicode = 2212;
},
{
glyphname = middot.001;
lastChange = "2012-05-24 21:38:30 +0000";
layers = (
{
layerId = "6B6936E6-7670-4A82-900D-EAF583C971AF";
name = Regular;
paths = (
{
closed = 1;
nodes = (
"275 911 LINE",
"547 911 LINE",
"547 584 LINE",
"275 584 LINE"
);
}
);
width = 817;
}
);
unicode = 2219;
},
{
glyphname = radical;
lastChange = "2012-05-24 21:38:30 +0000";
layers = (
{
layerId = "6B6936E6-7670-4A82-900D-EAF583C971AF";
name = Regular;
paths = (
{
closed = 1;
nodes = (
"1055 1661 LINE",
"1244 1661 LINE",
"1244 1565 LINE",
"1129 1565 LINE",
"535 -41 LINE",
"469 -41 LINE",
"150 842 LINE",
"25 797 LINE",
"0 877 LINE",
"283 975 LINE",
"539 266 LINE"
);
}
);
width = 1265;
}
);
unicode = 221A;
},
{
glyphname = infinity;
lastChange = "2012-05-24 21:38:30 +0000";
layers = (
{
layerId = "6B6936E6-7670-4A82-900D-EAF583C971AF";
name = Regular;
paths = (
{
closed = 1;
nodes = (
"978 532 OFFCURVE",
"1068 471 OFFCURVE",
"1180 471 CURVE SMOOTH",
"1315 471 OFFCURVE",
"1409 571 OFFCURVE",
"1409 711 CURVE SMOOTH",
"1409 846 OFFCURVE",
"1321 946 OFFCURVE",
"1202 946 CURVE SMOOTH",
"1093 946 OFFCURVE",
"1012 865 OFFCURVE",
"913 649 CURVE"
);
},
{
closed = 1;
nodes = (
"726 763 OFFCURVE",
"637 912 OFFCURVE",
"524 912 CURVE SMOOTH",
"388 912 OFFCURVE",
"295 815 OFFCURVE",
"295 674 CURVE SMOOTH",
"295 539 OFFCURVE",
"383 439 OFFCURVE",
"502 439 CURVE SMOOTH",
"611 439 OFFCURVE",
"694 431 OFFCURVE",
"791 646 CURVE"
);
},
{
closed = 1;
nodes = (
"769 303 OFFCURVE",
"666 221 OFFCURVE",
"541 221 CURVE SMOOTH",
"360 221 OFFCURVE",
"219 389 OFFCURVE",
"219 610 CURVE SMOOTH",
"219 843 OFFCURVE",
"341 1001 OFFCURVE",
"520 1001 CURVE SMOOTH",
"647 1001 OFFCURVE",
"744 921 OFFCURVE",
"840 737 CURVE",
"931 921 OFFCURVE",
"1034 1006 OFFCURVE",
"1163 1006 CURVE SMOOTH",
"1342 1006 OFFCURVE",
"1485 837 OFFCURVE",
"1485 614 CURVE SMOOTH",
"1485 381 OFFCURVE",
"1363 225 OFFCURVE",
"1184 225 CURVE SMOOTH",
"1059 225 OFFCURVE",
"967 298 OFFCURVE",
"862 483 CURVE"
);
}
);
width = 1703;
}
);
unicode = 221E;
},
{
glyphname = integral;
lastChange = "2012-05-24 21:38:30 +0000";
layers = (
{
layerId = "6B6936E6-7670-4A82-900D-EAF583C971AF";
name = Regular;
paths = (
{
closed = 1;
nodes = (
"353 -262 OFFCURVE",
"393 -33 OFFCURVE",
"402 426 CURVE SMOOTH",
"403 498 OFFCURVE",
"404 553 OFFCURVE",
"405 591 CURVE SMOOTH",
"413 934 OFFCURVE",
"449 1180 OFFCURVE",
"512 1328 CURVE SMOOTH",
"575 1476 OFFCURVE",
"674 1550 OFFCURVE",
"809 1550 CURVE SMOOTH",
"916 1550 OFFCURVE",
"989 1488 OFFCURVE",
"989 1401 CURVE SMOOTH",
"989 1329 OFFCURVE",
"943 1284 OFFCURVE",
"870 1284 CURVE SMOOTH",
"814 1284 OFFCURVE",
"776 1310 OFFCURVE",
"760 1357 CURVE",
"756 1367 OFFCURVE",
"753 1384 OFFCURVE",
"750 1408 CURVE SMOOTH",
"747 1432 OFFCURVE",
"740 1444 OFFCURVE",
"729 1444 CURVE SMOOTH",
"658 1444 OFFCURVE",
"617 1238 OFFCURVE",
"608 825 CURVE SMOOTH",
"605 696 OFFCURVE",
"603 595 OFFCURVE",
"600 522 CURVE SMOOTH",
"589 203 OFFCURVE",
"552 -26 OFFCURVE",
"489 -164 CURVE SMOOTH",
"426 -302 OFFCURVE",
"329 -371 OFFCURVE",
"198 -371 CURVE SMOOTH",
"93 -371 OFFCURVE",
"18 -310 OFFCURVE",
"18 -223 CURVE SMOOTH",
"18 -148 OFFCURVE",
"66 -104 OFFCURVE",
"147 -104 CURVE SMOOTH",
"191 -104 OFFCURVE",
"223 -124 OFFCURVE",
"243 -161 CURVE SMOOTH",
"250 -173 OFFCURVE",
"255 -193 OFFCURVE",
"258 -220 CURVE SMOOTH",
"261 -248 OFFCURVE",
"269 -262 OFFCURVE",
"282 -262 CURVE SMOOTH"
);
}
);
width = 1006;
}
);
unicode = 222B;
},
{
glyphname = approxequal;
lastChange = "2012-05-24 21:38:30 +0000";
layers = (
{
layerId = "6B6936E6-7670-4A82-900D-EAF583C971AF";
name = Regular;
paths = (
{
closed = 1;
nodes = (
"1499 444 LINE",
"1359 340 OFFCURVE",
"1247 297 OFFCURVE",
"1118 297 CURVE SMOOTH",
"1045 297 OFFCURVE",
"959 317 OFFCURVE",
"862 356 CURVE SMOOTH",
"855 359 OFFCURVE",
"850 361 OFFCURVE",
"845 363 CURVE",
"841 364 OFFCURVE",
"834 367 OFFCURVE",
"824 371 CURVE",
"721 418 OFFCURVE",
"638 442 OFFCURVE",
"575 442 CURVE SMOOTH",
"458 442 OFFCURVE",
"348 394 OFFCURVE",
"217 282 CURVE",
"217 461 LINE",
"357 565 OFFCURVE",
"469 608 OFFCURVE",
"598 608 CURVE",
"671 601 OFFCURVE",
"757 578 OFFCURVE",
"855 539 CURVE SMOOTH",
"862 536 OFFCURVE",
"868 533 OFFCURVE",
"871 532 CURVE",
"875 531 OFFCURVE",
"882 528 OFFCURVE",
"892 524 CURVE SMOOTH",
"995 483 OFFCURVE",
"1078 463 OFFCURVE",
"1141 463 CURVE SMOOTH",
"1256 463 OFFCURVE",
"1362 510 OFFCURVE",
"1499 623 CURVE"
);
},
{
closed = 1;
nodes = (
"1499 834 LINE",
"1359 729 OFFCURVE",
"1247 686 OFFCURVE",
"1118 686 CURVE SMOOTH",
"1045 686 OFFCURVE",
"959 706 OFFCURVE",
"862 745 CURVE SMOOTH",
"855 748 OFFCURVE",
"850 750 OFFCURVE",
"845 752 CURVE",
"841 753 OFFCURVE",
"834 756 OFFCURVE",
"824 760 CURVE",
"721 807 OFFCURVE",
"638 831 OFFCURVE",
"575 831 CURVE SMOOTH",
"458 831 OFFCURVE",
"348 783 OFFCURVE",
"217 672 CURVE",
"217 850 LINE",
"357 954 OFFCURVE",
"469 997 OFFCURVE",
"598 997 CURVE",
"671 990 OFFCURVE",
"757 967 OFFCURVE",
"855 928 CURVE SMOOTH",
"862 925 OFFCURVE",
"867 923 OFFCURVE",
"870 922 CURVE",
"875 920 OFFCURVE",
"882 917 OFFCURVE",
"892 913 CURVE SMOOTH",
"995 872 OFFCURVE",
"1078 852 OFFCURVE",
"1141 852 CURVE SMOOTH",
"1256 852 OFFCURVE",
"1362 899 OFFCURVE",
"1499 1012 CURVE"
);
}
);
width = 1713;
}
);
unicode = 2248;
},
{
glyphname = notequal;
lastChange = "2012-05-24 21:38:30 +0000";
layers = (
{
layerId = "6B6936E6-7670-4A82-900D-EAF583C971AF";
name = Regular;
paths = (
{
closed = 1;
nodes = (
"23 930 LINE",
"795 930 LINE",
"1051 1245 LINE",
"1176 1143 LINE",
"1002 930 LINE",
"1305 930 LINE",
"1305 762 LINE",
"865 762 LINE",
"670 522 LINE",
"1305 522 LINE",
"1305 352 LINE",
"531 352 LINE",
"273 39 LINE",
"148 141 LINE",
"322 352 LINE",
"23 352 LINE",
"23 522 LINE",
"461 522 LINE",
"656 762 LINE",
"23 762 LINE"
);
}
);
width = 1326;
}
);
unicode = 2260;
},
{
glyphname = lessequal;
lastChange = "2012-05-24 21:38:30 +0000";
layers = (
{
layerId = "6B6936E6-7670-4A82-900D-EAF583C971AF";
name = Regular;
paths = (
{
closed = 1;
nodes = (
"1326 1016 LINE",
"366 739 LINE",
"1326 465 LINE",
"1326 287 LINE",
"44 655 LINE",
"44 825 LINE",
"1326 1192 LINE"
);
},
{
closed = 1;
nodes = (
"44 170 LINE",
"1326 170 LINE",
"1326 0 LINE",
"44 0 LINE"
);
}
);
width = 1557;
}
);
unicode = 2264;
},
{
glyphname = greaterequal;
lastChange = "2012-05-24 21:38:30 +0000";
layers = (
{
layerId = "6B6936E6-7670-4A82-900D-EAF583C971AF";
name = Regular;
paths = (
{
closed = 1;
nodes = (
"233 1016 LINE",
"233 1192 LINE",
"1515 825 LINE",
"1515 655 LINE",
"233 287 LINE",
"233 465 LINE",
"1194 739 LINE"
);
},
{
closed = 1;
nodes = (
"1515 170 LINE",
"1515 0 LINE",
"233 0 LINE",
"233 170 LINE"
);
}
);
width = 1558;
}
);
unicode = 2265;
},
{
glyphname = lozenge;
lastChange = "2012-05-24 21:38:30 +0000";
layers = (
{
layerId = "6B6936E6-7670-4A82-900D-EAF583C971AF";
name = Regular;
paths = (
{
closed = 1;
nodes = (
"546 1409 LINE",
"161 592 LINE",
"546 27 LINE",
"931 592 LINE"
);
},
{
closed = 1;
nodes = (
"546 1653 LINE",
"1046 592 LINE",
"546 -477 LINE",
"46 592 LINE"
);
}
);
width = 1092;
}
);
unicode = 25CA;
},
{
glyphname = fi;
lastChange = "2012-05-24 21:38:30 +0000";
layers = (
{
layerId = "6B6936E6-7670-4A82-900D-EAF583C971AF";
name = Regular;
paths = (
{
closed = 1;
nodes = (
"1167 1120 LINE",
"1197 0 LINE",
"962 0 LINE",
"982 987 LINE",
"477 987 LINE",
"507 0 LINE",
"262 0 LINE",
"282 987 LINE",
"106 987 LINE",
"106 1120 LINE",
"282 1120 LINE",
"282 1198 LINE SMOOTH",
"282 1442 OFFCURVE",
"405 1546 OFFCURVE",
"644 1586 CURVE",
"829 1606 LINE",
"829 1453 LINE",
"653 1413 LINE",
"521 1413 OFFCURVE",
"477 1331 OFFCURVE",
"477 1219 CURVE SMOOTH",
"477 1120 LINE"
);
},
{
closed = 1;
nodes = (
"982 1554 LINE",
"1167 1554 LINE",
"1167 1321 LINE",
"982 1321 LINE"
);
}
);
width = 1441;
}
);
unicode = FB01;
},
{
glyphname = fl;
lastChange = "2012-05-24 21:38:30 +0000";
layers = (
{
layerId = "6B6936E6-7670-4A82-900D-EAF583C971AF";
name = Regular;
paths = (
{
closed = 1;
nodes = (
"1179 1556 LINE",
"1179 208 LINE",
"1289 210 LINE",
"1290 0 LINE",
"994 0 LINE",
"994 1423 LINE",
"665 1423 LINE SMOOTH",
"533 1423 OFFCURVE",
"489 1378 OFFCURVE",
"489 1239 CURVE",
"499 1120 LINE",
"792 1120 LINE",
"792 977 LINE",
"499 977 LINE",
"559 0 LINE",
"264 0 LINE",
"294 977 LINE",
"128 977 LINE",
"128 1120 LINE",
"294 1120 LINE",
"304 1198 LINE",
"304 1447 OFFCURVE",
"415 1556 OFFCURVE",
"667 1556 CURVE SMOOTH"
);
}
);
width = 1500;
}
);
unicode = FB02;
},
{
glyphname = c6459;
lastChange = "2012-05-24 21:38:30 +0000";
layers = (
{
layerId = "6B6936E6-7670-4A82-900D-EAF583C971AF";
name = Regular;
paths = (
{
closed = 1;
nodes = (
"666 1497 LINE",
"869 1497 LINE",
"869 1294 LINE",
"666 1294 LINE"
);
},
{
closed = 1;
nodes = (
"275 1497 LINE",
"478 1497 LINE",
"478 1294 LINE",
"275 1294 LINE"
);
}
);
width = 1142;
}
);
},
{
glyphname = c6460;
lastChange = "2012-05-24 21:38:30 +0000";
layers = (
{
layerId = "6B6936E6-7670-4A82-900D-EAF583C971AF";
name = Regular;
paths = (
{
closed = 1;
nodes = (
"245 1526 LINE",
"430 1526 LINE",
"202 1262 LINE",
"49 1262 LINE"
);
}
);
width = 456;
}
);
},
{
glyphname = c6461;
lastChange = "2012-05-24 21:38:30 +0000";
layers = (
{
layerId = "6B6936E6-7670-4A82-900D-EAF583C971AF";
name = Regular;
paths = (
{
closed = 1;
nodes = (
"483 1370 LINE SMOOTH",
"450 1389 OFFCURVE",
"431 1395 OFFCURVE",
"415 1395 CURVE SMOOTH",
"367 1395 OFFCURVE",
"339 1360 OFFCURVE",
"339 1300 CURVE SMOOTH",
"339 1294 LINE",
"214 1294 LINE",
"214 1429 OFFCURVE",
"288 1513 OFFCURVE",
"403 1513 CURVE SMOOTH",
"451 1513 OFFCURVE",
"484 1506 OFFCURVE",
"548 1470 CURVE SMOOTH",
"605 1440 LINE SMOOTH",
"636 1423 OFFCURVE",
"657 1415 OFFCURVE",
"677 1415 CURVE SMOOTH",
"720 1415 OFFCURVE",
"749 1452 OFFCURVE",
"749 1507 CURVE SMOOTH",
"749 1513 LINE",
"874 1513 LINE",
"871 1380 OFFCURVE",
"797 1294 OFFCURVE",
"685 1294 CURVE SMOOTH",
"640 1294 OFFCURVE",
"609 1301 OFFCURVE",
"540 1337 CURVE"
);
}
);
width = 1083;
}
);
},
{
glyphname = c6462;
lastChange = "2012-05-24 21:38:30 +0000";
layers = (
{
layerId = "6B6936E6-7670-4A82-900D-EAF583C971AF";
name = Regular;
paths = (
{
closed = 1;
nodes = (
"212 1526 LINE",
"408 1262 LINE",
"255 1262 LINE",
"25 1526 LINE"
);
}
);
width = 457;
}
);
},
{
glyphname = c6463;
lastChange = "2012-05-24 21:38:30 +0000";
layers = (
{
layerId = "6B6936E6-7670-4A82-900D-EAF583C971AF";
name = Regular;
paths = (
{
closed = 1;
nodes = (
"314 1528 LINE",
"502 1528 LINE",
"713 1262 LINE",
"574 1262 LINE",
"408 1440 LINE",
"242 1262 LINE",
"103 1262 LINE"
);
}
);
width = 817;
}
);
},
{
glyphname = c6466;
lastChange = "2012-05-24 21:38:30 +0000";
layers = (
{
layerId = "6B6936E6-7670-4A82-900D-EAF583C971AF";
name = Regular;
paths = (
{
closed = 1;
nodes = (
"308 1262 LINE",
"97 1528 LINE",
"236 1528 LINE",
"402 1350 LINE",
"568 1528 LINE",
"707 1528 LINE",
"496 1262 LINE"
);
}
);
width = 806;
}
);
},
{
glyphname = c6467;
lastChange = "2012-05-24 21:38:30 +0000";
layers = (
{
layerId = "6B6936E6-7670-4A82-900D-EAF583C971AF";
name = Regular;
paths = (
{
closed = 1;
nodes = (
"432 1382 LINE",
"123 963 LINE",
"432 963 LINE"
);
},
{
closed = 1;
nodes = (
"410 1503 LINE",
"576 1503 LINE",
"576 963 LINE",
"711 963 LINE",
"711 854 LINE",
"576 854 LINE",
"576 668 LINE",
"432 668 LINE",
"432 854 LINE",
"18 854 LINE",
"18 975 LINE"
);
}
);
width = 806;
}
);
},
{
glyphname = c6468;
lastChange = "2012-05-24 21:38:30 +0000";
layers = (
{
layerId = "6B6936E6-7670-4A82-900D-EAF583C971AF";
name = Regular;
paths = (
{
closed = 1;
nodes = (
"288 1528 LINE",
"305 1456 OFFCURVE",
"372 1417 OFFCURVE",
"483 1417 CURVE SMOOTH",
"592 1417 OFFCURVE",
"657 1453 OFFCURVE",
"678 1528 CURVE",
"796 1528 LINE",
"783 1369 OFFCURVE",
"674 1286 OFFCURVE",
"483 1286 CURVE SMOOTH",
"291 1286 OFFCURVE",
"183 1368 OFFCURVE",
"170 1528 CURVE"
);
}
);
width = 963;
}
);
},
{
glyphname = c6469;
lastChange = "2012-05-24 21:38:30 +0000";
layers = (
{
layerId = "6B6936E6-7670-4A82-900D-EAF583C971AF";
name = Regular;
paths = (
{
closed = 1;
nodes = (
"275 1499 LINE",
"479 1499 LINE",
"479 1294 LINE",
"275 1294 LINE"
);
}
);
width = 747;
}
);
},
